<svg xmlns="http://www.w3.org/2000/svg" viewBox="0 0 23.65 23.64"><defs><style>.cls-1,.cls-2{fill:none;stroke:#cd8c50;stroke-width:0.96px;}.cls-1{stroke-linecap:round;stroke-linejoin:round;}.cls-2{stroke-miterlimit:10;}</style></defs><title>Asset 1</title><g id="Layer_2" data-name="Layer 2"><g id="Layer_1-2" data-name="Layer 1"><path class="cls-1" d="M17.71,13.71V9.6C17.63,3,11.88,3.43,11.88,3.43h-.12S6,3,5.93,9.6v4.11"/><polyline class="cls-1" points="15.72 8.62 13.49 8.62 12.52 6.67 11.37 8.62 7.89 8.62"/><path class="cls-2" d="M23.16,11.82A11.34,11.34,0,1,1,11.82.48,11.34,11.34,0,0,1,23.16,11.82Z"/><path class="cls-1" d="M9.53,13.69c0,.58,0,2.08,0,2.08s.13.77-4.44,1.93"/><path class="cls-1" d="M14.11,13.69v2.08s-.13.77,4.44,1.93"/><path class="cls-1" d="M8.62,8.65A5.5,5.5,0,0,0,8.51,9.9a6.13,6.13,0,0,0,1.85,4.64,2.88,2.88,0,0,0,.32.17"/><path class="cls-1" d="M15,8.65a5.5,5.5,0,0,1,.11,1.25,6.17,6.17,0,0,1-1.85,4.64,2.88,2.88,0,0,1-.32.17"/></g></g></svg>