<svg xmlns="http://www.w3.org/2000/svg" viewBox="0 0 24.21 23.64"><defs><style>.a{fill:none;stroke:#cd8c50;stroke-miterlimit:10;stroke-width:0.96px;fill-rule:evenodd;}</style></defs><title>Asset 21</title><path class="a" d="M12.11.48A11.63,11.63,0,0,0,8.43,23.14c.58.1.8-.25.8-.56s0-1.19,0-2.16c-2.93.54-3.68-.71-3.91-1.37a4.31,4.31,0,0,0-1.19-1.64c-.41-.22-1-.75,0-.77a2.33,2.33,0,0,1,1.79,1.19,2.47,2.47,0,0,0,3.38,1A2.51,2.51,0,0,1,10,17.24C7.43,17,4.73,15.94,4.73,11.5A4.54,4.54,0,0,1,5.92,8.37,4.14,4.14,0,0,1,6,5.29S7,5,9.23,6.48a11,11,0,0,1,5.81,0c2.23-1.51,3.2-1.19,3.2-1.19a4.21,4.21,0,0,1,.12,3.08,4.53,4.53,0,0,1,1.19,3.13c0,4.46-2.72,5.45-5.31,5.74A2.72,2.72,0,0,1,15,19.39c0,1.55,0,2.8,0,3.19s.22.67.8.56A11.63,11.63,0,0,0,12.11.48Z"/></svg>