<svg xmlns="http://www.w3.org/2000/svg" viewBox="0 0 13.07 22.68"><defs><style>.cls-1,.cls-2,.cls-3{fill:#cd8c50;}.cls-2,.cls-3{stroke:#cd8c50;stroke-linejoin:round;stroke-width:0.9px;}.cls-3{stroke-linecap:round;}</style></defs><title>phone-icon</title><g id="Layer_2" data-name="Layer 2"><g id="Layer_1-2" data-name="Layer 1"><path class="cls-1" d="M11.27.9a.9.9,0,0,1,.9.9V20.88a.9.9,0,0,1-.9.9H1.8a.9.9,0,0,1-.9-.9V1.8A.9.9,0,0,1,1.8.9h9.47m0-.9H1.8A1.81,1.81,0,0,0,0,1.8V20.88a1.81,1.81,0,0,0,1.8,1.8h9.47a1.81,1.81,0,0,0,1.8-1.8V1.8A1.81,1.81,0,0,0,11.27,0Z"/><line class="cls-2" x1="0.71" y1="17.41" x2="12.36" y2="17.41"/><line class="cls-3" x1="5.74" y1="19.73" x2="7.33" y2="19.73"/></g></g></svg>