<svg xmlns="http://www.w3.org/2000/svg" viewBox="0 0 214.57 316.69"><title>prog-langs-and-tools_1</title><g id="Layer_2" data-name="Layer 2"><g id="Layer_1-2" data-name="Layer 1"><g style="opacity:0.27"><circle cx="89.76" cy="17.74" r="2.82" style="fill:#bec3d6"/></g><path d="M82.92,19.2a2.82,2.82,0,1,1-2.82-2.82A2.82,2.82,0,0,1,82.92,19.2Z" transform="translate(0 -1.46)" style="fill:#bec3d6;opacity:0.27"/><path d="M73.26,19.2a2.82,2.82,0,1,1-2.82-2.82A2.82,2.82,0,0,1,73.26,19.2Z" transform="translate(0 -1.46)" style="fill:#8a6c93"/><circle cx="60.78" cy="17.74" r="2.82" style="fill:#8a6c93"/><path d="M53.94,19.2a2.82,2.82,0,1,1-2.82-2.82A2.82,2.82,0,0,1,53.94,19.2Z" transform="translate(0 -1.46)" style="fill:#8a6c93"/><circle cx="41.46" cy="17.74" r="2.82" style="fill:#8a6c93"/><path d="M34.62,19.2a2.82,2.82,0,1,1-2.82-2.82A2.82,2.82,0,0,1,34.62,19.2Z" transform="translate(0 -1.46)" style="fill:#8a6c93"/><circle cx="22.14" cy="17.74" r="2.82" style="fill:#8a6c93"/><circle cx="12.48" cy="17.74" r="2.82" style="fill:#8a6c93"/><path d="M5.64,19.2a2.82,2.82,0,1,1-2.82-2.82A2.82,2.82,0,0,1,5.64,19.2Z" transform="translate(0 -1.46)" style="fill:#8a6c93"/><path d="M8,10.37H6.85V6.46H2.21v3.91H1V1.77H2.21V5.6H6.85V1.77H8Z" transform="translate(0 -1.46)" style="fill:#8a6c93"/><path d="M16,1.77v1H13.19v7.62H12V2.75H9.24v-1Z" transform="translate(0 -1.46)" style="fill:#8a6c93"/><path d="M21.57,7.56c.05.11.09.22.13.32l.12-.32L22,7.25,24.88,2A.38.38,0,0,1,25,1.8a.78.78,0,0,1,.24,0h.86v8.6h-1V4.05a2.62,2.62,0,0,1,0-.27,2.83,2.83,0,0,1,0-.29L22.2,8.86a.46.46,0,0,1-.42.27h-.17a.46.46,0,0,1-.42-.27l-3-5.39,0,.3c0,.1,0,.2,0,.28v6.32h-1V1.77h.85a.7.7,0,0,1,.24,0c.06,0,.11.08.17.17l3,5.29C21.48,7.36,21.53,7.46,21.57,7.56Z" transform="translate(0 -1.46)" style="fill:#8a6c93"/><path d="M29.4,9.39h3.72v1H28.24V1.77H29.4Z" transform="translate(0 -1.46)" style="fill:#8a6c93"/><path d="M39.23,2.24a.48.48,0,0,1-.15.37.63.63,0,0,1-.48.15H35.9L35.5,5a5.73,5.73,0,0,1,1.24-.15,3.33,3.33,0,0,1,1.19.2,2.31,2.31,0,0,1,.86.55,2.13,2.13,0,0,1,.52.82,2.86,2.86,0,0,1,.18,1,3.08,3.08,0,0,1-.24,1.24,2.85,2.85,0,0,1-.66.94,2.78,2.78,0,0,1-1,.6,3.68,3.68,0,0,1-1.94.14,4.12,4.12,0,0,1-.65-.2,4.92,4.92,0,0,1-.56-.29A3.31,3.31,0,0,1,34,9.56l.32-.46A.34.34,0,0,1,34.62,9a.57.57,0,0,1,.27.09l.37.21a3.46,3.46,0,0,0,.5.2,2.11,2.11,0,0,0,.7.1,2.09,2.09,0,0,0,.81-.15A1.6,1.6,0,0,0,37.88,9a1.81,1.81,0,0,0,.39-.64,2.19,2.19,0,0,0,.14-.83,2.11,2.11,0,0,0-.12-.73,1.33,1.33,0,0,0-.35-.55,1.65,1.65,0,0,0-.59-.35,2.33,2.33,0,0,0-.83-.13,5.29,5.29,0,0,0-.67,0,5.41,5.41,0,0,0-.72.18l-.67-.2.69-4h4.08Z" transform="translate(0 -1.46)" style="fill:#8a6c93"/><circle cx="89.76" cy="50.71" r="2.82" style="fill:#bec3d6;opacity:0.27"/><g style="opacity:0.27"><path d="M82.92,52.18a2.82,2.82,0,1,1-2.82-2.82A2.81,2.81,0,0,1,82.92,52.18Z" transform="translate(0 -1.46)" style="fill:#bec3d6"/></g><path d="M73.26,52.18a2.82,2.82,0,1,1-2.82-2.82A2.81,2.81,0,0,1,73.26,52.18Z" transform="translate(0 -1.46)" style="fill:#8a6c93"/><path d="M53.94,85.45a2.82,2.82,0,1,1-2.82-2.82A2.82,2.82,0,0,1,53.94,85.45Z" transform="translate(0 -1.46)" style="fill:#8a6c93"/><path d="M93,19.14a2.82,2.82,0,1,1-2.82-2.82A2.82,2.82,0,0,1,93,19.14Z" transform="translate(0 -1.46)" style="fill:#8a6c93"/><path d="M82.92,19.14a2.82,2.82,0,1,1-2.82-2.82A2.81,2.81,0,0,1,82.92,19.14Z" transform="translate(0 -1.46)" style="fill:#8a6c93"/><circle cx="60.78" cy="50.71" r="2.82" style="fill:#8a6c93"/><circle cx="41.46" cy="83.68" r="2.82" style="fill:#8a6c93"/><path d="M53.94,52.18a2.82,2.82,0,1,1-2.82-2.82A2.81,2.81,0,0,1,53.94,52.18Z" transform="translate(0 -1.46)" style="fill:#8a6c93"/><circle cx="41.46" cy="50.71" r="2.82" style="fill:#8a6c93"/><path d="M34.62,52.18a2.82,2.82,0,1,1-2.82-2.82A2.81,2.81,0,0,1,34.62,52.18Z" transform="translate(0 -1.46)" style="fill:#8a6c93"/><circle cx="22.14" cy="50.71" r="2.82" style="fill:#8a6c93"/><circle cx="12.48" cy="50.71" r="2.82" style="fill:#8a6c93"/><path d="M5.64,52.18a2.82,2.82,0,1,1-2.82-2.82A2.81,2.81,0,0,1,5.64,52.18Z" transform="translate(0 -1.46)" style="fill:#8a6c93"/><path d="M7.1,41.56a.25.25,0,0,1,.18.08l.45.5a3.46,3.46,0,0,1-1.28,1,4.3,4.3,0,0,1-1.81.34A4.21,4.21,0,0,1,3,43.11a3.66,3.66,0,0,1-1.29-.9,4.13,4.13,0,0,1-.83-1.38A5.38,5.38,0,0,1,.54,39a4.66,4.66,0,0,1,.32-1.78,4.07,4.07,0,0,1,.88-1.39A3.89,3.89,0,0,1,3.11,35a4.47,4.47,0,0,1,1.75-.33,4.1,4.1,0,0,1,1.64.3,4.09,4.09,0,0,1,1.22.8l-.38.53a.47.47,0,0,1-.1.1.22.22,0,0,1-.15,0,.29.29,0,0,1-.17-.06l-.21-.14c-.08-.05-.17-.12-.28-.18a3.43,3.43,0,0,0-.38-.18,3,3,0,0,0-.52-.14,3.37,3.37,0,0,0-.68-.06,3.22,3.22,0,0,0-1.26.24,2.94,2.94,0,0,0-1,.67A3.18,3.18,0,0,0,2,37.63,3.94,3.94,0,0,0,1.73,39,4,4,0,0,0,2,40.48a3,3,0,0,0,.63,1.06,2.74,2.74,0,0,0,.94.67,3.1,3.1,0,0,0,1.18.22,4.75,4.75,0,0,0,.69,0A3.39,3.39,0,0,0,6,42.25,2.73,2.73,0,0,0,6.45,42a3.3,3.3,0,0,0,.46-.35A.28.28,0,0,1,7.1,41.56Z" transform="translate(0 -1.46)" style="fill:#8a6c93"/><path d="M13.67,36.08a.58.58,0,0,1-.12.14.24.24,0,0,1-.15,0,.4.4,0,0,1-.24-.1,2.89,2.89,0,0,0-.34-.22,3.36,3.36,0,0,0-.5-.23,2.35,2.35,0,0,0-1.39,0,1.56,1.56,0,0,0-.51.28,1.25,1.25,0,0,0-.3.42A1.35,1.35,0,0,0,10,37a1,1,0,0,0,.18.6,1.44,1.44,0,0,0,.47.4,3.36,3.36,0,0,0,.66.29l.75.26a7,7,0,0,1,.76.29,2.84,2.84,0,0,1,.66.42,1.8,1.8,0,0,1,.46.62,2,2,0,0,1,.18.9A2.89,2.89,0,0,1,14,41.79a2.51,2.51,0,0,1-.56.86,2.71,2.71,0,0,1-.91.57,3.12,3.12,0,0,1-1.22.21,3.78,3.78,0,0,1-1.52-.3,3.39,3.39,0,0,1-1.17-.82l.33-.55A.63.63,0,0,1,9,41.65a.3.3,0,0,1,.15,0,.48.48,0,0,1,.29.14l.41.3a3.24,3.24,0,0,0,.59.29,2.27,2.27,0,0,0,.84.14,2.17,2.17,0,0,0,.74-.12,1.46,1.46,0,0,0,.54-.32,1.33,1.33,0,0,0,.35-.49,1.66,1.66,0,0,0,.12-.64,1.05,1.05,0,0,0-.18-.64,1.43,1.43,0,0,0-.46-.42,2.85,2.85,0,0,0-.66-.28L11,39.32c-.26-.09-.52-.18-.76-.29a2.48,2.48,0,0,1-.66-.42A1.87,1.87,0,0,1,9.12,38a2.28,2.28,0,0,1-.18-1,2.23,2.23,0,0,1,.18-.88,2.17,2.17,0,0,1,.51-.76,2.42,2.42,0,0,1,.83-.53,3.09,3.09,0,0,1,1.14-.2,3.64,3.64,0,0,1,1.31.23,3.29,3.29,0,0,1,1,.66Z" transform="translate(0 -1.46)" style="fill:#8a6c93"/><path d="M20,36.08a.58.58,0,0,1-.12.14.24.24,0,0,1-.15,0,.4.4,0,0,1-.24-.1,2.89,2.89,0,0,0-.34-.22,3,3,0,0,0-.5-.23,2.35,2.35,0,0,0-1.39,0,1.42,1.42,0,0,0-.5.28,1.15,1.15,0,0,0-.31.42,1.35,1.35,0,0,0-.1.53,1,1,0,0,0,.18.6A1.44,1.44,0,0,0,17,38a3.36,3.36,0,0,0,.66.29l.75.26a7,7,0,0,1,.76.29,2.84,2.84,0,0,1,.66.42,2,2,0,0,1,.47.62,2.16,2.16,0,0,1,.17.9,2.89,2.89,0,0,1-.19,1.06,2.37,2.37,0,0,1-.56.86,2.71,2.71,0,0,1-.91.57,3.09,3.09,0,0,1-1.22.21,3.78,3.78,0,0,1-1.52-.3,3.39,3.39,0,0,1-1.17-.82l.33-.55a.63.63,0,0,1,.12-.11.3.3,0,0,1,.15,0,.48.48,0,0,1,.29.14l.41.3a3.24,3.24,0,0,0,.59.29,2.27,2.27,0,0,0,.84.14,2.17,2.17,0,0,0,.74-.12A1.59,1.59,0,0,0,19,42a1.44,1.44,0,0,0,.34-.49,1.66,1.66,0,0,0,.12-.64,1.05,1.05,0,0,0-.18-.64,1.33,1.33,0,0,0-.46-.42,2.85,2.85,0,0,0-.66-.28l-.75-.24c-.26-.09-.52-.18-.76-.29a2.48,2.48,0,0,1-.66-.42,1.87,1.87,0,0,1-.46-.64,2.28,2.28,0,0,1-.18-1,2.23,2.23,0,0,1,.18-.88,2.17,2.17,0,0,1,.51-.76,2.42,2.42,0,0,1,.83-.53,3.09,3.09,0,0,1,1.14-.2,3.64,3.64,0,0,1,1.31.23,3.29,3.29,0,0,1,1,.66Z" transform="translate(0 -1.46)" style="fill:#8a6c93"/><path d="M24.66,34.64a3.29,3.29,0,0,1,1,.16,2.27,2.27,0,0,1,.79.45,2,2,0,0,1,.52.69,2.06,2.06,0,0,1,.19.91,2.38,2.38,0,0,1-.11.73,1.77,1.77,0,0,1-.3.56,1.7,1.7,0,0,1-.47.41,2.7,2.7,0,0,1-.62.27,2.44,2.44,0,0,1,1.27.74,2,2,0,0,1,.42,1.31,2.47,2.47,0,0,1-.23,1.07,2.34,2.34,0,0,1-.61.81,2.79,2.79,0,0,1-.91.51,3.9,3.9,0,0,1-2.28,0,2.26,2.26,0,0,1-.82-.47,2.45,2.45,0,0,1-.56-.71,5.51,5.51,0,0,1-.36-.89L22,41a.6.6,0,0,1,.26,0,.36.36,0,0,1,.21,0,.28.28,0,0,1,.14.16l0,.05,0,0c.05.12.12.25.2.4a1.75,1.75,0,0,0,.33.41,1.65,1.65,0,0,0,.5.32,1.88,1.88,0,0,0,.76.13,2.05,2.05,0,0,0,.78-.14,1.83,1.83,0,0,0,.57-.38,1.6,1.6,0,0,0,.45-1.1,2.08,2.08,0,0,0-.09-.63,1.12,1.12,0,0,0-.34-.5,1.68,1.68,0,0,0-.67-.33,4.19,4.19,0,0,0-1.1-.12v-.78a3.18,3.18,0,0,0,.93-.12,1.66,1.66,0,0,0,.64-.31,1.14,1.14,0,0,0,.35-.47,1.51,1.51,0,0,0,.11-.61,1.8,1.8,0,0,0-.11-.65,1.4,1.4,0,0,0-.32-.46,1.37,1.37,0,0,0-.49-.27,1.89,1.89,0,0,0-.6-.09,1.64,1.64,0,0,0-.6.1,1.47,1.47,0,0,0-.49.27,1.54,1.54,0,0,0-.36.4,2.18,2.18,0,0,0-.21.52.48.48,0,0,1-.15.25.36.36,0,0,1-.24.07h-.14l-.56-.09a3.26,3.26,0,0,1,.33-1,2.38,2.38,0,0,1,.6-.76,2.61,2.61,0,0,1,.85-.47A3.42,3.42,0,0,1,24.66,34.64Z" transform="translate(0 -1.46)" style="fill:#8a6c93"/><g style="opacity:0.27"><circle cx="89.76" cy="83.68" r="2.82" style="fill:#bec3d6"/></g><g style="opacity:0.27"><path d="M82.92,85.15a2.82,2.82,0,1,1-2.82-2.82A2.82,2.82,0,0,1,82.92,85.15Z" transform="translate(0 -1.46)" style="fill:#bec3d6"/></g><path d="M73.26,85.15a2.82,2.82,0,1,1-2.82-2.82A2.82,2.82,0,0,1,73.26,85.15Z" transform="translate(0 -1.46)" style="fill:#bec3d6;opacity:0.27"/><g style="opacity:0.27"><circle cx="60.78" cy="83.68" r="2.82" style="fill:#bec3d6"/></g><path d="M34.62,85.15a2.82,2.82,0,1,1-2.82-2.82A2.82,2.82,0,0,1,34.62,85.15Z" transform="translate(0 -1.46)" style="fill:#8a6c93"/><path d="M44.28,85.45a2.82,2.82,0,1,1-2.82-2.82A2.82,2.82,0,0,1,44.28,85.45Z" transform="translate(0 -1.46)" style="fill:#8a6c93"/><path d="M53.94,85.45a2.82,2.82,0,1,1-2.82-2.82A2.82,2.82,0,0,1,53.94,85.45Z" transform="translate(0 -1.46)" style="fill:#8a6c93"/><circle cx="22.14" cy="83.68" r="2.82" style="fill:#8a6c93"/><circle cx="12.48" cy="83.68" r="2.82" style="fill:#8a6c93"/><path d="M5.64,85.15a2.82,2.82,0,1,1-2.82-2.82A2.82,2.82,0,0,1,5.64,85.15Z" transform="translate(0 -1.46)" style="fill:#8a6c93"/><path d="M4.28,73.34a4.28,4.28,0,0,1-.18,1.29,2.61,2.61,0,0,1-.52,1,2.26,2.26,0,0,1-.85.6,3,3,0,0,1-1.16.21,4.74,4.74,0,0,1-1.21-.16l0-.35c0-.11,0-.22,0-.34a.22.22,0,0,1,.07-.16.27.27,0,0,1,.19-.07,1,1,0,0,1,.29.06,1.6,1.6,0,0,0,.48.05,1.9,1.9,0,0,0,.7-.12,1.21,1.21,0,0,0,.52-.37A1.69,1.69,0,0,0,3,74.3a3.73,3.73,0,0,0,.11-.94V67.71H4.28Z" transform="translate(0 -1.46)" style="fill:#8a6c93"/><path d="M10.67,76.31h-.48a.62.62,0,0,1-.25,0,.27.27,0,0,1-.12-.2l-.12-.57a5.09,5.09,0,0,1-.47.39,2.92,2.92,0,0,1-.48.29,2.43,2.43,0,0,1-.54.17,3.06,3.06,0,0,1-.63.06,2.29,2.29,0,0,1-.66-.09,1.57,1.57,0,0,1-.54-.3A1.53,1.53,0,0,1,6,75.5a1.73,1.73,0,0,1-.13-.71,1.35,1.35,0,0,1,.2-.7,1.68,1.68,0,0,1,.64-.59,3.9,3.9,0,0,1,1.15-.43,8,8,0,0,1,1.75-.16v-.48a1.69,1.69,0,0,0-.3-1.08,1.13,1.13,0,0,0-.9-.36,1.83,1.83,0,0,0-.66.1,2.19,2.19,0,0,0-.46.22L7,71.53a.44.44,0,0,1-.28.1.28.28,0,0,1-.18-.06.35.35,0,0,1-.13-.14l-.2-.34a3.42,3.42,0,0,1,1.09-.73,3.37,3.37,0,0,1,1.29-.24,2.38,2.38,0,0,1,.91.17,1.85,1.85,0,0,1,.66.47,2,2,0,0,1,.41.72,3.14,3.14,0,0,1,.14.94ZM7.9,75.65a2.05,2.05,0,0,0,.51-.05,2.09,2.09,0,0,0,.44-.16,2.48,2.48,0,0,0,.4-.26,2.92,2.92,0,0,0,.37-.34V73.58a7.48,7.48,0,0,0-1.26.1,3.55,3.55,0,0,0-.84.24,1.2,1.2,0,0,0-.47.36.83.83,0,0,0-.14.46,1,1,0,0,0,.07.41.94.94,0,0,0,.21.29.88.88,0,0,0,.32.16A1.23,1.23,0,0,0,7.9,75.65Z" transform="translate(0 -1.46)" style="fill:#8a6c93"/><path d="M11.33,70.23h.87a.28.28,0,0,1,.21.07.29.29,0,0,1,.12.15l1.55,3.91a3.66,3.66,0,0,1,.13.44l.09.42c0-.14.06-.28.1-.42a3.73,3.73,0,0,1,.14-.44l1.56-3.91a.42.42,0,0,1,.11-.16.37.37,0,0,1,.21-.06h.83l-2.48,6.08h-1Z" transform="translate(0 -1.46)" style="fill:#8a6c93"/><path d="M22.7,76.31h-.47a.55.55,0,0,1-.25,0,.25.25,0,0,1-.13-.2l-.12-.57a4,4,0,0,1-.47.39,2.92,2.92,0,0,1-.48.29,2.19,2.19,0,0,1-.53.17,3.1,3.1,0,0,1-.64.06,2.39,2.39,0,0,1-.66-.09,1.67,1.67,0,0,1-.54-.3,1.38,1.38,0,0,1-.36-.51,1.73,1.73,0,0,1-.13-.71,1.34,1.34,0,0,1,.19-.7,1.84,1.84,0,0,1,.64-.59,4,4,0,0,1,1.16-.43,7.81,7.81,0,0,1,1.74-.16v-.48a1.69,1.69,0,0,0-.3-1.08,1.1,1.1,0,0,0-.9-.36,1.74,1.74,0,0,0-.65.1,2.28,2.28,0,0,0-.47.22,3.76,3.76,0,0,0-.33.22.48.48,0,0,1-.28.1.31.31,0,0,1-.19-.06.44.44,0,0,1-.13-.14l-.19-.34a3.21,3.21,0,0,1,2.37-1,2.34,2.34,0,0,1,.91.17,1.89,1.89,0,0,1,.67.47,2.12,2.12,0,0,1,.41.72,3.14,3.14,0,0,1,.13.94Zm-2.77-.66a2.14,2.14,0,0,0,.52-.05,2.32,2.32,0,0,0,.44-.16,2,2,0,0,0,.39-.26,2.92,2.92,0,0,0,.37-.34V73.58a7.26,7.26,0,0,0-1.25.1,3.55,3.55,0,0,0-.84.24,1.13,1.13,0,0,0-.47.36.77.77,0,0,0-.15.46,1,1,0,0,0,.08.41.7.7,0,0,0,.21.29.83.83,0,0,0,.31.16A1.23,1.23,0,0,0,19.93,75.65Z" transform="translate(0 -1.46)" style="fill:#8a6c93"/><path d="M28.9,69.05a.58.58,0,0,1-.12.14.25.25,0,0,1-.16,0,.4.4,0,0,1-.23-.1c-.09-.07-.21-.14-.34-.22a3.36,3.36,0,0,0-.5-.23,2.13,2.13,0,0,0-.71-.1,2.08,2.08,0,0,0-.69.11,1.51,1.51,0,0,0-.5.28,1.25,1.25,0,0,0-.3.42,1.35,1.35,0,0,0-.1.53,1,1,0,0,0,.17.6,1.69,1.69,0,0,0,.47.4,4,4,0,0,0,.66.29l.76.26a6.13,6.13,0,0,1,.75.29,2.48,2.48,0,0,1,.66.42,1.82,1.82,0,0,1,.47.62,2,2,0,0,1,.18.9,2.89,2.89,0,0,1-.19,1.06,2.51,2.51,0,0,1-.56.86,2.71,2.71,0,0,1-.91.57,3.32,3.32,0,0,1-1.22.21A3.75,3.75,0,0,1,25,76.1a3.52,3.52,0,0,1-1.18-.82l.34-.55a.43.43,0,0,1,.12-.11.25.25,0,0,1,.15-.05.48.48,0,0,1,.29.14c.11.09.24.19.4.3a4.06,4.06,0,0,0,.59.29,2.32,2.32,0,0,0,.85.14,2.07,2.07,0,0,0,.73-.12,1.43,1.43,0,0,0,.55-.32,1.33,1.33,0,0,0,.35-.49,1.66,1.66,0,0,0,.12-.64,1.05,1.05,0,0,0-.18-.64,1.43,1.43,0,0,0-.46-.42,3.28,3.28,0,0,0-.66-.28l-.76-.24c-.26-.09-.51-.18-.75-.29a2.48,2.48,0,0,1-.66-.42,2,2,0,0,1-.47-.64,2.46,2.46,0,0,1-.17-1,2.38,2.38,0,0,1,.17-.88,2.19,2.19,0,0,1,.52-.76,2.42,2.42,0,0,1,.83-.53,3.09,3.09,0,0,1,1.14-.2,3.68,3.68,0,0,1,1.31.23,3.13,3.13,0,0,1,1,.66Z" transform="translate(0 -1.46)" style="fill:#8a6c93"/><path d="M34.83,71.31a.32.32,0,0,1-.1.1.17.17,0,0,1-.13,0,.37.37,0,0,1-.2-.08l-.27-.16a2.06,2.06,0,0,0-.39-.17,1.85,1.85,0,0,0-.57-.07,1.78,1.78,0,0,0-.78.16,1.52,1.52,0,0,0-.58.46,2,2,0,0,0-.34.72,3.6,3.6,0,0,0-.12,1,3.32,3.32,0,0,0,.13,1,2.2,2.2,0,0,0,.35.72,1.55,1.55,0,0,0,.55.44,1.78,1.78,0,0,0,.74.15,1.93,1.93,0,0,0,.64-.09,1.64,1.64,0,0,0,.42-.21,2.6,2.6,0,0,0,.28-.2.34.34,0,0,1,.21-.1.24.24,0,0,1,.21.11l.3.39a2.42,2.42,0,0,1-1,.71,3.56,3.56,0,0,1-1.26.22,2.59,2.59,0,0,1-1.05-.21,2.34,2.34,0,0,1-.85-.61,2.85,2.85,0,0,1-.57-1,3.85,3.85,0,0,1-.21-1.32A3.92,3.92,0,0,1,30.44,72,3,3,0,0,1,31,71a2.37,2.37,0,0,1,.9-.65,3,3,0,0,1,1.22-.24,2.85,2.85,0,0,1,1.13.21,2.58,2.58,0,0,1,.87.59Z" transform="translate(0 -1.46)" style="fill:#8a6c93"/><path d="M36.29,76.31V70.23h.61a.33.33,0,0,1,.24.07.45.45,0,0,1,.09.22l.07,1a2.91,2.91,0,0,1,.77-1,1.71,1.71,0,0,1,1.08-.36,1.65,1.65,0,0,1,.46.06,1.53,1.53,0,0,1,.37.16l-.14.8a.17.17,0,0,1-.18.15.9.9,0,0,1-.26-.06,1.52,1.52,0,0,0-.48-.06,1.37,1.37,0,0,0-.94.33,2.3,2.3,0,0,0-.62.94v3.87Z" transform="translate(0 -1.46)" style="fill:#8a6c93"/><path d="M42.55,68.32a.68.68,0,0,1-.06.29.87.87,0,0,1-.41.41.73.73,0,0,1-.3.06.72.72,0,0,1-.29-.06.81.81,0,0,1-.24-.17.78.78,0,0,1-.16-.24.68.68,0,0,1-.06-.29.82.82,0,0,1,.22-.54.81.81,0,0,1,.24-.17.72.72,0,0,1,.29-.06.73.73,0,0,1,.3.06.81.81,0,0,1,.24.17.74.74,0,0,1,.17.25A.72.72,0,0,1,42.55,68.32Zm-.24,1.91v6.08H41.24V70.23Z" transform="translate(0 -1.46)" style="fill:#8a6c93"/><path d="M44.2,78.37V70.23h.63a.27.27,0,0,1,.29.22l.09.72a3.36,3.36,0,0,1,.89-.76,2.28,2.28,0,0,1,1.15-.29,2.24,2.24,0,0,1,1,.2,2,2,0,0,1,.73.6,2.82,2.82,0,0,1,.46,1,5,5,0,0,1,.16,1.34,4.15,4.15,0,0,1-.18,1.25,3,3,0,0,1-.51,1,2.34,2.34,0,0,1-.83.67,2.44,2.44,0,0,1-1.1.24,2.32,2.32,0,0,1-1-.18,2.28,2.28,0,0,1-.71-.53v2.69ZM46.9,71a1.69,1.69,0,0,0-.91.24,2.55,2.55,0,0,0-.73.67v2.94a1.69,1.69,0,0,0,.65.56,1.78,1.78,0,0,0,.78.16A1.53,1.53,0,0,0,48,75a2.8,2.8,0,0,0,.46-1.73,4.3,4.3,0,0,0-.11-1,2.05,2.05,0,0,0-.3-.7,1.23,1.23,0,0,0-.48-.4A1.73,1.73,0,0,0,46.9,71Z" transform="translate(0 -1.46)" style="fill:#8a6c93"/><path d="M52.66,76.4a1.47,1.47,0,0,1-1.11-.4,1.64,1.64,0,0,1-.38-1.16V71.12h-.73a.2.2,0,0,1-.23-.23v-.43l1-.12.25-1.88a.22.22,0,0,1,.08-.15.29.29,0,0,1,.17,0h.54v2.09H54v.77H52.24v3.65a.78.78,0,0,0,.18.57.63.63,0,0,0,.48.19.84.84,0,0,0,.29,0,1.12,1.12,0,0,0,.22-.1l.15-.09a.21.21,0,0,1,.11-.05.17.17,0,0,1,.15.1l.31.51a2,2,0,0,1-.66.41A2.23,2.23,0,0,1,52.66,76.4Z" transform="translate(0 -1.46)" style="fill:#8a6c93"/><path d="M63.08,67.71v1H59v2.85h3.34v.92H59v2.93h4.13v1h-5.3v-8.6Z" transform="translate(0 -1.46)" style="fill:#8a6c93"/><path d="M69.16,69.05a.58.58,0,0,1-.12.14.25.25,0,0,1-.16,0,.4.4,0,0,1-.23-.1c-.09-.07-.21-.14-.34-.22a3.36,3.36,0,0,0-.5-.23,2.13,2.13,0,0,0-.71-.1,2.08,2.08,0,0,0-.69.11,1.51,1.51,0,0,0-.5.28,1.25,1.25,0,0,0-.3.42,1.35,1.35,0,0,0-.1.53,1,1,0,0,0,.17.6,1.69,1.69,0,0,0,.47.4,4,4,0,0,0,.66.29l.76.26a6.13,6.13,0,0,1,.75.29,2.48,2.48,0,0,1,.66.42,1.82,1.82,0,0,1,.47.62,2,2,0,0,1,.18.9,2.89,2.89,0,0,1-.19,1.06,2.51,2.51,0,0,1-.56.86,2.71,2.71,0,0,1-.91.57,3.32,3.32,0,0,1-1.22.21,3.75,3.75,0,0,1-1.52-.3,3.52,3.52,0,0,1-1.18-.82l.34-.55a.43.43,0,0,1,.12-.11.25.25,0,0,1,.15-.05.48.48,0,0,1,.29.14c.11.09.24.19.4.3a4.06,4.06,0,0,0,.59.29,2.32,2.32,0,0,0,.85.14,2.07,2.07,0,0,0,.73-.12,1.43,1.43,0,0,0,.55-.32,1.33,1.33,0,0,0,.35-.49,1.66,1.66,0,0,0,.12-.64,1.05,1.05,0,0,0-.18-.64,1.43,1.43,0,0,0-.46-.42,3.28,3.28,0,0,0-.66-.28l-.76-.24c-.26-.09-.51-.18-.75-.29a2.48,2.48,0,0,1-.66-.42,2,2,0,0,1-.47-.64,2.46,2.46,0,0,1-.17-1,2.38,2.38,0,0,1,.17-.88,2.19,2.19,0,0,1,.52-.76,2.42,2.42,0,0,1,.83-.53,3.08,3.08,0,0,1,1.13-.2,3.69,3.69,0,0,1,1.32.23,3.23,3.23,0,0,1,1,.66Z" transform="translate(0 -1.46)" style="fill:#8a6c93"/><path d="M74,71a2.93,2.93,0,0,1,1,.17,2.61,2.61,0,0,1,.81.5,2.53,2.53,0,0,1,.55.8,2.86,2.86,0,0,1,.2,1.09,2.72,2.72,0,0,1-.22,1.11,2.55,2.55,0,0,1-.6.88,2.81,2.81,0,0,1-.93.6,3.29,3.29,0,0,1-1.2.21,3.13,3.13,0,0,1-1.17-.2,2.66,2.66,0,0,1-.9-.59,2.47,2.47,0,0,1-.57-.92,3.4,3.4,0,0,1-.2-1.22,3.19,3.19,0,0,1,.25-1.2,6.1,6.1,0,0,1,.8-1.37L73.94,68a.76.76,0,0,1,.24-.18.74.74,0,0,1,.34-.08h1l-3,3.77a2.59,2.59,0,0,1,.67-.32A2.64,2.64,0,0,1,74,71Zm-2.22,2.62a2.27,2.27,0,0,0,.12.75,1.52,1.52,0,0,0,.35.59,1.47,1.47,0,0,0,.56.38,2,2,0,0,0,.76.14,2.13,2.13,0,0,0,.78-.14,1.73,1.73,0,0,0,.6-.39,1.67,1.67,0,0,0,.38-.58,1.94,1.94,0,0,0,.14-.73,2.28,2.28,0,0,0-.13-.76,1.63,1.63,0,0,0-.38-.57,1.7,1.7,0,0,0-.57-.37,2.21,2.21,0,0,0-.74-.12,2.13,2.13,0,0,0-.78.14,1.76,1.76,0,0,0-.59.4,1.69,1.69,0,0,0-.37.58A1.72,1.72,0,0,0,71.75,73.66Z" transform="translate(0 -1.46)" style="fill:#8a6c93"/><g style="opacity:0.27"><circle cx="89.76" cy="116.65" r="2.82" style="fill:#bec3d6"/></g><g style="opacity:0.27"><path d="M82.92,118.12a2.82,2.82,0,1,1-2.82-2.82A2.82,2.82,0,0,1,82.92,118.12Z" transform="translate(0 -1.46)" style="fill:#bec3d6"/></g><g style="opacity:0.27"><path d="M73.26,118.12a2.82,2.82,0,1,1-2.82-2.82A2.82,2.82,0,0,1,73.26,118.12Z" transform="translate(0 -1.46)" style="fill:#bec3d6"/></g><circle cx="60.78" cy="116.65" r="2.82" style="fill:#bec3d6;opacity:0.27"/><g style="opacity:0.27"><path d="M53.94,118.12a2.82,2.82,0,1,1-2.82-2.82A2.82,2.82,0,0,1,53.94,118.12Z" transform="translate(0 -1.46)" style="fill:#bec3d6"/></g><g style="opacity:0.27"><circle cx="41.46" cy="116.65" r="2.82" style="fill:#bec3d6"/></g><path d="M34.62,118.12a2.82,2.82,0,1,1-2.82-2.82A2.82,2.82,0,0,1,34.62,118.12Z" transform="translate(0 -1.46)" style="fill:#8a6c93"/><circle cx="22.14" cy="116.65" r="2.82" style="fill:#8a6c93"/><circle cx="12.48" cy="116.65" r="2.82" style="fill:#8a6c93"/><path d="M5.64,118.12a2.82,2.82,0,1,1-2.82-2.82A2.82,2.82,0,0,1,5.64,118.12Z" transform="translate(0 -1.46)" style="fill:#8a6c93"/><path d="M2.32,106.06v3.22H1.16v-8.6H3.7a4.61,4.61,0,0,1,1.42.19,2.81,2.81,0,0,1,1,.54,2.17,2.17,0,0,1,.59.84,3,3,0,0,1,.2,1.1,2.75,2.75,0,0,1-.21,1.09,2.32,2.32,0,0,1-.62.86,2.77,2.77,0,0,1-1,.56,4.18,4.18,0,0,1-1.38.2Zm0-.92H3.7a2.63,2.63,0,0,0,.88-.13,1.83,1.83,0,0,0,.64-.37,1.61,1.61,0,0,0,.39-.57,1.88,1.88,0,0,0,.13-.72,1.69,1.69,0,0,0-.5-1.29,2.22,2.22,0,0,0-1.54-.46H2.32Z" transform="translate(0 -1.46)" style="fill:#8a6c93"/><path d="M8.21,109.28v-8.84H9.28V104a3.23,3.23,0,0,1,.86-.67,2.39,2.39,0,0,1,1.09-.24,2.19,2.19,0,0,1,.88.16,1.69,1.69,0,0,1,.64.47,1.88,1.88,0,0,1,.38.73,3.09,3.09,0,0,1,.14.94v3.87H12.2v-3.87a1.63,1.63,0,0,0-.32-1.07,1.16,1.16,0,0,0-1-.38,1.68,1.68,0,0,0-.88.23,2.72,2.72,0,0,0-.76.61v4.48Z" transform="translate(0 -1.46)" style="fill:#8a6c93"/><path d="M16.33,106.06v3.22H15.17v-8.6h2.54a4.58,4.58,0,0,1,1.41.19,2.72,2.72,0,0,1,1,.54,2.07,2.07,0,0,1,.59.84,3,3,0,0,1,.2,1.1,2.75,2.75,0,0,1-.21,1.09,2.32,2.32,0,0,1-.62.86,2.77,2.77,0,0,1-1,.56,4.16,4.16,0,0,1-1.37.2Zm0-.92h1.38a2.57,2.57,0,0,0,.87-.13,1.74,1.74,0,0,0,.64-.37,1.39,1.39,0,0,0,.39-.57,1.89,1.89,0,0,0,.14-.72,1.66,1.66,0,0,0-.51-1.29,2.2,2.2,0,0,0-1.53-.46H16.33Z" transform="translate(0 -1.46)" style="fill:#8a6c93"/><g style="opacity:0.27"><circle cx="211.75" cy="17.67" r="2.82" style="fill:#bec3d6"/></g><g style="opacity:0.27"><path d="M204.91,19.14a2.82,2.82,0,1,1-2.82-2.82A2.81,2.81,0,0,1,204.91,19.14Z" transform="translate(0 -1.46)" style="fill:#bec3d6"/></g><g style="opacity:0.27"><path d="M195.25,19.14a2.82,2.82,0,1,1-2.82-2.82A2.81,2.81,0,0,1,195.25,19.14Z" transform="translate(0 -1.46)" style="fill:#bec3d6"/></g><g style="opacity:0.27"><circle cx="182.77" cy="17.67" r="2.82" style="fill:#bec3d6"/></g><g style="opacity:0.27"><path d="M175.93,19.14a2.82,2.82,0,1,1-2.82-2.82A2.81,2.81,0,0,1,175.93,19.14Z" transform="translate(0 -1.46)" style="fill:#bec3d6"/></g><g style="opacity:0.27"><circle cx="163.45" cy="17.67" r="2.82" style="fill:#bec3d6"/></g><g style="opacity:0.27"><path d="M156.61,19.14a2.82,2.82,0,1,1-2.82-2.82A2.81,2.81,0,0,1,156.61,19.14Z" transform="translate(0 -1.46)" style="fill:#bec3d6"/></g><g style="opacity:0.27"><circle cx="144.13" cy="17.67" r="2.82" style="fill:#bec3d6"/></g><circle cx="134.47" cy="17.67" r="2.82" style="fill:#8a6c93"/><path d="M127.63,19.14a2.82,2.82,0,1,1-2.82-2.82A2.81,2.81,0,0,1,127.63,19.14Z" transform="translate(0 -1.46)" style="fill:#8a6c93"/><path d="M123.86,1.74a.79.79,0,0,1,.18.16l5,6.48c0-.11,0-.21,0-.3V1.7h1v8.6h-.58a.52.52,0,0,1-.23-.05.47.47,0,0,1-.19-.16l-5-6.47c0,.09,0,.19,0,.29V10.3h-1V1.7h.6A.45.45,0,0,1,123.86,1.74Z" transform="translate(0 -1.46)" style="fill:#8a6c93"/><path d="M134.4,4.12a3.09,3.09,0,0,1,1.2.23,2.56,2.56,0,0,1,.91.63,2.9,2.9,0,0,1,.58,1,4.08,4.08,0,0,1,.2,1.3,4,4,0,0,1-.2,1.29,2.94,2.94,0,0,1-.58,1,2.42,2.42,0,0,1-.91.62,3.41,3.41,0,0,1-2.41,0,2.5,2.5,0,0,1-.91-.62,2.79,2.79,0,0,1-.58-1,3.71,3.71,0,0,1-.21-1.29A3.81,3.81,0,0,1,131.7,6a2.74,2.74,0,0,1,.58-1,2.65,2.65,0,0,1,.91-.63A3.11,3.11,0,0,1,134.4,4.12Zm0,5.43a1.55,1.55,0,0,0,1.34-.6,2.8,2.8,0,0,0,.45-1.69,2.78,2.78,0,0,0-.45-1.69A1.55,1.55,0,0,0,134.4,5a1.88,1.88,0,0,0-.79.16,1.48,1.48,0,0,0-.57.45,2,2,0,0,0-.33.72,3.64,3.64,0,0,0-.11,1,3.6,3.6,0,0,0,.11,1A2,2,0,0,0,133,9a1.46,1.46,0,0,0,.57.44A1.74,1.74,0,0,0,134.4,9.55Z" transform="translate(0 -1.46)" style="fill:#8a6c93"/><path d="M142.89,10.3a.28.28,0,0,1-.29-.22l-.1-.74a3.06,3.06,0,0,1-.89.76,2.25,2.25,0,0,1-1.15.28,2.09,2.09,0,0,1-.94-.2,1.89,1.89,0,0,1-.73-.59,2.82,2.82,0,0,1-.46-1,4.92,4.92,0,0,1-.16-1.34A4.2,4.2,0,0,1,138.35,6a3.2,3.2,0,0,1,.51-1,2.53,2.53,0,0,1,.83-.66,2.53,2.53,0,0,1,2.06-.06,2.4,2.4,0,0,1,.71.53V1.46h1.06V10.3Zm-2.07-.78a1.69,1.69,0,0,0,.91-.24,2.73,2.73,0,0,0,.73-.68V5.66a1.73,1.73,0,0,0-.65-.55A1.78,1.78,0,0,0,141,5a1.53,1.53,0,0,0-1.3.6,2.8,2.8,0,0,0-.46,1.73,4.29,4.29,0,0,0,.1,1,2,2,0,0,0,.3.69,1.11,1.11,0,0,0,.49.4A1.53,1.53,0,0,0,140.82,9.52Z" transform="translate(0 -1.46)" style="fill:#8a6c93"/><path d="M147.72,4.12a2.75,2.75,0,0,1,1,.19,2.2,2.2,0,0,1,.8.53,2.34,2.34,0,0,1,.52.85,3.19,3.19,0,0,1,.19,1.15.68.68,0,0,1-.05.34.22.22,0,0,1-.2.08h-4.05a3.22,3.22,0,0,0,.16,1,2.06,2.06,0,0,0,.39.72,1.56,1.56,0,0,0,.6.42,2,2,0,0,0,.78.14,2.43,2.43,0,0,0,.7-.09,3.46,3.46,0,0,0,.5-.2c.14-.07.25-.14.35-.2a.45.45,0,0,1,.24-.09.24.24,0,0,1,.21.1l.3.39a1.9,1.9,0,0,1-.48.41,3,3,0,0,1-.59.3,4.77,4.77,0,0,1-.65.17,5,5,0,0,1-.67.05,3.15,3.15,0,0,1-1.16-.21,2.62,2.62,0,0,1-.92-.62,3.2,3.2,0,0,1-.6-1,4.27,4.27,0,0,1-.21-1.39A3.54,3.54,0,0,1,145.08,6a2.86,2.86,0,0,1,.56-1,2.52,2.52,0,0,1,.9-.63A2.8,2.8,0,0,1,147.72,4.12Zm0,.79a1.64,1.64,0,0,0-1.22.45A2.07,2.07,0,0,0,146,6.6h3.3a2.07,2.07,0,0,0-.1-.68,1.57,1.57,0,0,0-.3-.54A1.42,1.42,0,0,0,148.4,5,1.67,1.67,0,0,0,147.75,4.91Z" transform="translate(0 -1.46)" style="fill:#8a6c93"/><path d="M151.26,9.64a1,1,0,0,1,.05-.3.78.78,0,0,1,.16-.24.84.84,0,0,1,.24-.16.75.75,0,0,1,.82.16.63.63,0,0,1,.16.24.8.8,0,0,1,.06.3.73.73,0,0,1-.06.3.76.76,0,0,1-.4.39.73.73,0,0,1-.58,0,.67.67,0,0,1-.24-.16.73.73,0,0,1-.16-.23A.94.94,0,0,1,151.26,9.64Z" transform="translate(0 -1.46)" style="fill:#8a6c93"/><path d="M155.34,4.22v6.53a2.48,2.48,0,0,1-.1.68,1.41,1.41,0,0,1-.3.55,1.52,1.52,0,0,1-.54.37,2.33,2.33,0,0,1-1.14.1,1.68,1.68,0,0,1-.32-.09l0-.57c0-.06,0-.09.06-.1a.24.24,0,0,1,.13,0h.23a.88.88,0,0,0,.67-.22,1.06,1.06,0,0,0,.2-.71V4.22Zm.24-1.91a.57.57,0,0,1-.07.29.78.78,0,0,1-.16.24.85.85,0,0,1-.25.17.72.72,0,0,1-.29.06.68.68,0,0,1-.29-.06.87.87,0,0,1-.41-.41.68.68,0,0,1-.06-.29.72.72,0,0,1,.06-.29.74.74,0,0,1,.17-.25.81.81,0,0,1,.24-.17.68.68,0,0,1,.29-.06.72.72,0,0,1,.29.06.85.85,0,0,1,.25.17.72.72,0,0,1,.16.25A.59.59,0,0,1,155.58,2.31Z" transform="translate(0 -1.46)" style="fill:#8a6c93"/><path d="M160.68,5.22a.23.23,0,0,1-.22.13.48.48,0,0,1-.21-.06L160,5.14,159.58,5a2.08,2.08,0,0,0-.54-.07,1.87,1.87,0,0,0-.49.07,1.43,1.43,0,0,0-.37.19.77.77,0,0,0-.23.28.81.81,0,0,0-.08.34.6.6,0,0,0,.13.4,1.11,1.11,0,0,0,.36.26,3,3,0,0,0,.51.21l.57.18.58.22a2.14,2.14,0,0,1,.51.3,1.51,1.51,0,0,1,.35.44,1.39,1.39,0,0,1,.14.63,2,2,0,0,1-.15.78,1.67,1.67,0,0,1-.45.61,2.16,2.16,0,0,1-.71.42,3.33,3.33,0,0,1-1,.14,3,3,0,0,1-1.15-.2,3.17,3.17,0,0,1-.88-.53l.26-.41a.43.43,0,0,1,.11-.12.29.29,0,0,1,.17,0,.43.43,0,0,1,.23.08l.29.19a2.4,2.4,0,0,0,.42.18,2,2,0,0,0,1.15,0,1.21,1.21,0,0,0,.39-.22.87.87,0,0,0,.23-.32,1,1,0,0,0,.08-.39.64.64,0,0,0-.14-.41,1.08,1.08,0,0,0-.35-.28,3,3,0,0,0-.51-.21l-.58-.18-.59-.22a2.1,2.1,0,0,1-.5-.31,1.37,1.37,0,0,1-.36-.46,1.47,1.47,0,0,1-.13-.66,1.55,1.55,0,0,1,.14-.67,1.76,1.76,0,0,1,.42-.56,2,2,0,0,1,.68-.39,2.61,2.61,0,0,1,.92-.15,3,3,0,0,1,1.07.19,2.6,2.6,0,0,1,.83.52Z" transform="translate(0 -1.46)" style="fill:#8a6c93"/><g style="opacity:0.27"><circle cx="211.75" cy="50.56" r="2.82" style="fill:#bec3d6"/></g><g style="opacity:0.27"><path d="M204.91,52a2.82,2.82,0,1,1-2.82-2.82A2.82,2.82,0,0,1,204.91,52Z" transform="translate(0 -1.46)" style="fill:#bec3d6"/></g><g style="opacity:0.27"><path d="M195.25,52a2.82,2.82,0,1,1-2.82-2.82A2.82,2.82,0,0,1,195.25,52Z" transform="translate(0 -1.46)" style="fill:#bec3d6"/></g><g style="opacity:0.27"><circle cx="182.77" cy="50.56" r="2.82" style="fill:#bec3d6"/></g><g style="opacity:0.27"><path d="M175.93,52a2.82,2.82,0,1,1-2.82-2.82A2.82,2.82,0,0,1,175.93,52Z" transform="translate(0 -1.46)" style="fill:#bec3d6"/></g><g style="opacity:0.27"><circle cx="163.45" cy="50.56" r="2.82" style="fill:#bec3d6"/></g><g style="opacity:0.27"><path d="M156.61,52a2.82,2.82,0,1,1-2.82-2.82A2.82,2.82,0,0,1,156.61,52Z" transform="translate(0 -1.46)" style="fill:#bec3d6"/></g><g style="opacity:0.27"><circle cx="144.13" cy="50.56" r="2.82" style="fill:#bec3d6"/></g><circle cx="134.47" cy="50.56" r="2.82" style="fill:#8a6c93"/><path d="M127.63,52a2.82,2.82,0,1,1-2.82-2.82A2.82,2.82,0,0,1,127.63,52Z" transform="translate(0 -1.46)" style="fill:#8a6c93"/><path d="M127.41,40.38l.12.32c0-.11.09-.21.13-.32a2.89,2.89,0,0,1,.15-.31l2.91-5.28a.38.38,0,0,1,.16-.17.78.78,0,0,1,.24,0H132v8.6h-1V36.6a2.83,2.83,0,0,0,0-.29L128,41.68a.46.46,0,0,1-.42.27h-.17a.46.46,0,0,1-.42-.27l-3-5.39c0,.1,0,.2,0,.3s0,.2,0,.28v6.32h-1v-8.6h.86a.7.7,0,0,1,.24,0,.33.33,0,0,1,.16.17l3,5.29A2.1,2.1,0,0,1,127.41,40.38Z" transform="translate(0 -1.46)" style="fill:#8a6c93"/><path d="M135.69,45a.47.47,0,0,1-.14.19.34.34,0,0,1-.25.08h-.79l1.11-2.42-2.51-5.72H134a.28.28,0,0,1,.21.07.53.53,0,0,1,.12.15L136,41.16c0,.09.07.18.1.26a2.68,2.68,0,0,0,.07.27,2.76,2.76,0,0,1,.08-.27q0-.12.09-.27l1.58-3.82a.48.48,0,0,1,.13-.16.31.31,0,0,1,.19-.06h.85Z" transform="translate(0 -1.46)" style="fill:#8a6c93"/><path d="M144.62,35.93a.57.57,0,0,1-.11.14.25.25,0,0,1-.16,0,.4.4,0,0,1-.24-.1,2.89,2.89,0,0,0-.34-.22,3,3,0,0,0-.5-.23,2.35,2.35,0,0,0-1.39,0,1.42,1.42,0,0,0-.5.28,1,1,0,0,0-.3.42,1.36,1.36,0,0,0-.11.53,1,1,0,0,0,.18.6,1.56,1.56,0,0,0,.47.4,3.36,3.36,0,0,0,.66.29l.75.26a7,7,0,0,1,.76.29,2.48,2.48,0,0,1,.66.42,2,2,0,0,1,.47.62,2,2,0,0,1,.17.9,2.89,2.89,0,0,1-.19,1.06,2.46,2.46,0,0,1-.56.86,2.66,2.66,0,0,1-.9.57,3.37,3.37,0,0,1-1.23.21,3.78,3.78,0,0,1-1.52-.3,3.48,3.48,0,0,1-1.17-.82l.34-.55a.57.57,0,0,1,.11-.11.3.3,0,0,1,.16,0,.51.51,0,0,1,.29.14,4.14,4.14,0,0,0,.4.3,3.61,3.61,0,0,0,.59.29,2.3,2.3,0,0,0,.84.14,2.13,2.13,0,0,0,.74-.12,1.43,1.43,0,0,0,.55-.32,1.31,1.31,0,0,0,.34-.49,1.66,1.66,0,0,0,.12-.64,1.13,1.13,0,0,0-.17-.64,1.47,1.47,0,0,0-.47-.42,2.85,2.85,0,0,0-.66-.28l-.75-.24c-.26-.09-.51-.18-.76-.29a2.59,2.59,0,0,1-.65-.42,1.9,1.9,0,0,1-.47-.64,2.28,2.28,0,0,1-.18-1,2.2,2.2,0,0,1,.18-.88,2.31,2.31,0,0,1,.51-.76,2.52,2.52,0,0,1,.83-.53,3.09,3.09,0,0,1,1.14-.2,3.73,3.73,0,0,1,1.32.23,3.08,3.08,0,0,1,1,.66Z" transform="translate(0 -1.46)" style="fill:#8a6c93"/><path d="M154.56,38.89a5.27,5.27,0,0,1-.12,1.15,4.1,4.1,0,0,1-.36,1,3.57,3.57,0,0,1-.57.86,3.94,3.94,0,0,1-.75.66L155,45h-1a1.12,1.12,0,0,1-.38-.06.75.75,0,0,1-.3-.21l-1.52-1.64a4.92,4.92,0,0,1-.71.17,4.72,4.72,0,0,1-.77.06,4.59,4.59,0,0,1-1.73-.32,4,4,0,0,1-1.34-.91,4,4,0,0,1-.86-1.38,5.24,5.24,0,0,1,0-3.55,4,4,0,0,1,.86-1.39,3.89,3.89,0,0,1,1.34-.91,4.7,4.7,0,0,1,3.46,0,3.79,3.79,0,0,1,1.34.91,4,4,0,0,1,.87,1.39A5.06,5.06,0,0,1,154.56,38.89Zm-1.19,0a4.19,4.19,0,0,0-.22-1.42,2.84,2.84,0,0,0-.61-1.06,2.52,2.52,0,0,0-1-.67,3.4,3.4,0,0,0-2.51,0,2.64,2.64,0,0,0-1,.67,3,3,0,0,0-.61,1.06,4.69,4.69,0,0,0,0,2.84,3,3,0,0,0,.61,1.06,2.64,2.64,0,0,0,1,.67,3.54,3.54,0,0,0,2.51,0,2.52,2.52,0,0,0,1-.67,2.84,2.84,0,0,0,.61-1.06A4.19,4.19,0,0,0,153.37,38.89Z" transform="translate(0 -1.46)" style="fill:#8a6c93"/><path d="M157.32,42.21H161v1h-4.89v-8.6h1.17Z" transform="translate(0 -1.46)" style="fill:#8a6c93"/><path d="M162.24,43.31a.62.62,0,0,1-.25.32.7.7,0,0,1-.33.1h-.45l3.6-9a.69.69,0,0,1,.22-.3.58.58,0,0,1,.35-.1h.45Z" transform="translate(0 -1.46)" style="fill:#8a6c93"/><path d="M171.17,40.38c.05.11.09.22.13.32l.12-.32.15-.31,2.91-5.28a.44.44,0,0,1,.16-.17.78.78,0,0,1,.24,0h.86v8.6h-1V36.87a2.62,2.62,0,0,1,0-.27,2.83,2.83,0,0,1,0-.29l-2.95,5.37a.46.46,0,0,1-.42.27h-.17a.46.46,0,0,1-.42-.27l-3-5.39,0,.3c0,.1,0,.2,0,.28v6.32h-1v-8.6h.86a.67.67,0,0,1,.23,0c.06,0,.11.08.17.17l3,5.29C171.08,40.18,171.13,40.28,171.17,40.38Z" transform="translate(0 -1.46)" style="fill:#8a6c93"/><path d="M182.13,43.19h-.47a.55.55,0,0,1-.25,0,.25.25,0,0,1-.13-.2l-.12-.57a5.09,5.09,0,0,1-.47.39,2.92,2.92,0,0,1-.48.29,3,3,0,0,1-.53.17,3.1,3.1,0,0,1-.64.06,2.39,2.39,0,0,1-.66-.09,1.67,1.67,0,0,1-.54-.3,1.47,1.47,0,0,1-.36-.51,1.73,1.73,0,0,1-.14-.71,1.35,1.35,0,0,1,.2-.7,1.76,1.76,0,0,1,.64-.59,4,4,0,0,1,1.16-.43,7.81,7.81,0,0,1,1.74-.16v-.48a1.68,1.68,0,0,0-.3-1.08,1.1,1.1,0,0,0-.9-.36,1.74,1.74,0,0,0-.65.1,2.28,2.28,0,0,0-.47.22l-.33.22a.48.48,0,0,1-.28.1.31.31,0,0,1-.19-.06.44.44,0,0,1-.13-.14l-.19-.34A3.21,3.21,0,0,1,180,37a2.34,2.34,0,0,1,.91.17,1.89,1.89,0,0,1,.67.47,2.12,2.12,0,0,1,.41.72,3.14,3.14,0,0,1,.13.94Zm-2.77-.66a2.14,2.14,0,0,0,.52-.05,2.32,2.32,0,0,0,.44-.16,2,2,0,0,0,.39-.26,2.92,2.92,0,0,0,.37-.34V40.46a7.26,7.26,0,0,0-1.25.1,3.55,3.55,0,0,0-.84.24,1.13,1.13,0,0,0-.47.36.75.75,0,0,0-.15.46,1,1,0,0,0,.08.41.7.7,0,0,0,.21.29.83.83,0,0,0,.31.16A1.23,1.23,0,0,0,179.36,42.53Z" transform="translate(0 -1.46)" style="fill:#8a6c93"/><path d="M183.75,43.19V37.11h.62a.29.29,0,0,1,.23.07.38.38,0,0,1,.1.22l.07,1a2.69,2.69,0,0,1,.77-1,1.68,1.68,0,0,1,1.08-.36,1.63,1.63,0,0,1,.45.06,1.61,1.61,0,0,1,.38.16l-.14.8a.18.18,0,0,1-.19.15.86.86,0,0,1-.25-.06,1.59,1.59,0,0,0-.49-.06,1.36,1.36,0,0,0-.93.33,2.42,2.42,0,0,0-.63.94v3.87Z" transform="translate(0 -1.46)" style="fill:#8a6c93"/><path d="M190,35.2a.57.57,0,0,1-.07.29.78.78,0,0,1-.16.24.85.85,0,0,1-.25.17.72.72,0,0,1-.29.06.68.68,0,0,1-.29-.06.87.87,0,0,1-.41-.41.68.68,0,0,1-.06-.29.72.72,0,0,1,.06-.29.74.74,0,0,1,.17-.25.81.81,0,0,1,.24-.17.68.68,0,0,1,.29-.06.72.72,0,0,1,.29.06.85.85,0,0,1,.25.17.72.72,0,0,1,.16.25A.59.59,0,0,1,190,35.2Zm-.24,1.91v6.08h-1.07V37.11Z" transform="translate(0 -1.46)" style="fill:#8a6c93"/><path d="M196.12,43.19h-.47a.58.58,0,0,1-.25,0,.25.25,0,0,1-.13-.2l-.12-.57a4,4,0,0,1-.47.39,2.92,2.92,0,0,1-.48.29,2.74,2.74,0,0,1-.53.17,3.1,3.1,0,0,1-.64.06,2.39,2.39,0,0,1-.66-.09,1.78,1.78,0,0,1-.54-.3,1.47,1.47,0,0,1-.36-.51,1.73,1.73,0,0,1-.13-.71,1.34,1.34,0,0,1,.19-.7,1.84,1.84,0,0,1,.64-.59,4,4,0,0,1,1.16-.43,7.87,7.87,0,0,1,1.74-.16v-.48a1.68,1.68,0,0,0-.3-1.08,1.1,1.1,0,0,0-.9-.36,1.78,1.78,0,0,0-.65.1,2.28,2.28,0,0,0-.47.22l-.33.22a.46.46,0,0,1-.28.1.31.31,0,0,1-.19-.06.44.44,0,0,1-.13-.14l-.19-.34a3.42,3.42,0,0,1,1.09-.73A3.3,3.3,0,0,1,194,37a2.29,2.29,0,0,1,.9.17,1.8,1.8,0,0,1,.67.47,2.12,2.12,0,0,1,.41.72,3.14,3.14,0,0,1,.13.94Zm-2.77-.66a2.14,2.14,0,0,0,.52-.05,2.32,2.32,0,0,0,.44-.16,2.48,2.48,0,0,0,.4-.26,3.75,3.75,0,0,0,.36-.34V40.46a7.26,7.26,0,0,0-1.25.1,3.55,3.55,0,0,0-.84.24,1.13,1.13,0,0,0-.47.36.75.75,0,0,0-.15.46,1,1,0,0,0,.08.41.7.7,0,0,0,.21.29.83.83,0,0,0,.31.16A1.23,1.23,0,0,0,193.35,42.53Z" transform="translate(0 -1.46)" style="fill:#8a6c93"/><path d="M202,43.19a.28.28,0,0,1-.29-.22l-.09-.74a3.36,3.36,0,0,1-.89.76,2.3,2.3,0,0,1-1.15.28,2.1,2.1,0,0,1-.95-.2,2,2,0,0,1-.73-.59,2.82,2.82,0,0,1-.46-1,5,5,0,0,1-.16-1.34,4.2,4.2,0,0,1,.18-1.25,3,3,0,0,1,.52-1,2.49,2.49,0,0,1,.82-.66,2.39,2.39,0,0,1,1.11-.25,2.11,2.11,0,0,1,1.66.72V34.35h1.07v8.84ZM200,42.41a1.73,1.73,0,0,0,.92-.24,2.7,2.7,0,0,0,.72-.68V38.55A1.7,1.7,0,0,0,201,38a1.85,1.85,0,0,0-.78-.16,1.54,1.54,0,0,0-1.31.6,2.87,2.87,0,0,0-.46,1.73,4.24,4.24,0,0,0,.11,1,1.68,1.68,0,0,0,.3.69,1.08,1.08,0,0,0,.48.4A1.53,1.53,0,0,0,200,42.41Z" transform="translate(0 -1.46)" style="fill:#8a6c93"/><path d="M204.49,43.19V34.35h1.07V38a3,3,0,0,1,.87-.71,2.41,2.41,0,0,1,2.07-.07,1.89,1.89,0,0,1,.73.59,3,3,0,0,1,.46,1,4.85,4.85,0,0,1,.16,1.33,4.15,4.15,0,0,1-.18,1.25,2.88,2.88,0,0,1-.52,1,2.31,2.31,0,0,1-.82.67,2.51,2.51,0,0,1-1.11.24,1.91,1.91,0,0,1-1-.23,2.16,2.16,0,0,1-.72-.63l-.06.55a.25.25,0,0,1-.27.23Zm2.71-5.32a1.69,1.69,0,0,0-.91.24,2.55,2.55,0,0,0-.73.67v2.94a1.66,1.66,0,0,0,.64.56,1.85,1.85,0,0,0,.78.16,1.54,1.54,0,0,0,1.31-.6,2.8,2.8,0,0,0,.46-1.73,4.3,4.3,0,0,0-.11-1,2.05,2.05,0,0,0-.3-.7,1.19,1.19,0,0,0-.49-.4A1.67,1.67,0,0,0,207.2,37.87Z" transform="translate(0 -1.46)" style="fill:#8a6c93"/><g style="opacity:0.27"><circle cx="211.75" cy="83.45" r="2.82" style="fill:#bec3d6"/></g><g style="opacity:0.27"><path d="M204.91,84.92a2.82,2.82,0,1,1-2.82-2.82A2.81,2.81,0,0,1,204.91,84.92Z" transform="translate(0 -1.46)" style="fill:#bec3d6"/></g><path d="M195.25,84.92a2.82,2.82,0,1,1-2.82-2.82A2.81,2.81,0,0,1,195.25,84.92Z" transform="translate(0 -1.46)" style="fill:#8a6c93"/><circle cx="182.77" cy="83.45" r="2.82" style="fill:#8a6c93"/><path d="M175.93,84.92a2.82,2.82,0,1,1-2.82-2.82A2.81,2.81,0,0,1,175.93,84.92Z" transform="translate(0 -1.46)" style="fill:#8a6c93"/><circle cx="163.45" cy="83.45" r="2.82" style="fill:#8a6c93"/><path d="M156.61,84.92a2.82,2.82,0,1,1-2.82-2.82A2.81,2.81,0,0,1,156.61,84.92Z" transform="translate(0 -1.46)" style="fill:#8a6c93"/><circle cx="144.13" cy="83.45" r="2.82" style="fill:#8a6c93"/><circle cx="134.47" cy="83.45" r="2.82" style="fill:#8a6c93"/><path d="M127.63,84.92a2.82,2.82,0,1,1-2.82-2.82A2.81,2.81,0,0,1,127.63,84.92Z" transform="translate(0 -1.46)" style="fill:#8a6c93"/><path d="M127.44,68.82a.58.58,0,0,1-.12.14.24.24,0,0,1-.15,0,.4.4,0,0,1-.24-.1,2.89,2.89,0,0,0-.34-.22,2.59,2.59,0,0,0-.5-.23,2.07,2.07,0,0,0-.7-.1,1.82,1.82,0,0,0-.69.11,1.56,1.56,0,0,0-.51.28,1.25,1.25,0,0,0-.3.42,1.35,1.35,0,0,0-.1.53,1,1,0,0,0,.18.6,1.51,1.51,0,0,0,.46.4,4,4,0,0,0,.66.29l.76.26a7,7,0,0,1,.76.29,2.84,2.84,0,0,1,.66.42,1.8,1.8,0,0,1,.46.62,2,2,0,0,1,.18.9,2.89,2.89,0,0,1-.19,1.06,2.61,2.61,0,0,1-.56.86,2.71,2.71,0,0,1-.91.57,3.32,3.32,0,0,1-1.22.21,3.78,3.78,0,0,1-1.52-.3,3.39,3.39,0,0,1-1.17-.82l.33-.55a.63.63,0,0,1,.12-.11.3.3,0,0,1,.15,0,.48.48,0,0,1,.29.14,4.43,4.43,0,0,0,.41.3,3.47,3.47,0,0,0,.58.29,2.36,2.36,0,0,0,.85.14,2.17,2.17,0,0,0,.74-.12,1.46,1.46,0,0,0,.54-.32,1.42,1.42,0,0,0,.35-.49,1.66,1.66,0,0,0,.12-.64,1.05,1.05,0,0,0-.18-.64,1.43,1.43,0,0,0-.46-.42,3.36,3.36,0,0,0-.66-.29l-.76-.24a6.77,6.77,0,0,1-.75-.28,2.48,2.48,0,0,1-.66-.42,1.87,1.87,0,0,1-.46-.64,2.28,2.28,0,0,1-.18-1,2.2,2.2,0,0,1,.18-.88,2,2,0,0,1,.51-.76,2.42,2.42,0,0,1,.83-.53,3.09,3.09,0,0,1,1.14-.2,3.64,3.64,0,0,1,1.31.23,3,3,0,0,1,1,.66Z" transform="translate(0 -1.46)" style="fill:#8a6c93"/><path d="M128.43,70h.84a.32.32,0,0,1,.22.07.27.27,0,0,1,.11.15l1.17,3.91q0,.23.09.42c0,.14,0,.27.07.41,0-.14.07-.27.11-.41s.08-.27.12-.42l1.29-3.93a.29.29,0,0,1,.29-.21h.46a.32.32,0,0,1,.2.06.33.33,0,0,1,.11.15l1.25,3.93a3.31,3.31,0,0,1,.12.42l.1.4c0-.13.05-.27.08-.41a4.11,4.11,0,0,1,.1-.41l1.19-3.91a.42.42,0,0,1,.11-.16.34.34,0,0,1,.2-.06h.8l-2,6.08h-.85c-.1,0-.18-.07-.22-.21l-1.34-4.12a2.29,2.29,0,0,1-.08-.28l-.06-.28-.06.29a1.47,1.47,0,0,1-.08.28l-1.36,4.11a.24.24,0,0,1-.24.21h-.81Z" transform="translate(0 -1.46)" style="fill:#8a6c93"/><path d="M139.84,68.09a.68.68,0,0,1-.06.29.87.87,0,0,1-.41.41.72.72,0,0,1-.29.06.68.68,0,0,1-.29-.06.87.87,0,0,1-.41-.41.68.68,0,0,1-.06-.29.81.81,0,0,1,.47-.71.68.68,0,0,1,.29-.06.72.72,0,0,1,.29.06.77.77,0,0,1,.47.71ZM139.61,70v6.08h-1.07V70Z" transform="translate(0 -1.46)" style="fill:#8a6c93"/><path d="M141.73,76.08V70.91l-.67-.08a.51.51,0,0,1-.21-.09.22.22,0,0,1-.08-.18v-.44h1v-.59a2.61,2.61,0,0,1,.15-.92,1.67,1.67,0,0,1,.42-.69,1.78,1.78,0,0,1,.65-.42,2.41,2.41,0,0,1,.87-.15,2.27,2.27,0,0,1,.75.12l0,.54c0,.08,0,.13-.1.14a1,1,0,0,1-.27,0H144a1.59,1.59,0,0,0-.5.07,1,1,0,0,0-.39.23,1.19,1.19,0,0,0-.25.43,2.35,2.35,0,0,0-.08.65v.56h1.76v.77H142.8v5.19Z" transform="translate(0 -1.46)" style="fill:#8a6c93"/><path d="M147.38,76.17a1.47,1.47,0,0,1-1.11-.4,1.6,1.6,0,0,1-.39-1.16V70.89h-.73a.21.21,0,0,1-.16,0,.21.21,0,0,1-.07-.18v-.43l1-.12.24-1.88a.28.28,0,0,1,.08-.15.25.25,0,0,1,.17,0H147v2.09h1.74v.77H147v3.65a.78.78,0,0,0,.18.57.66.66,0,0,0,.49.19.88.88,0,0,0,.29,0,1,1,0,0,0,.21-.1,1,1,0,0,0,.15-.1.3.3,0,0,1,.11,0,.17.17,0,0,1,.15.1l.32.51a2.15,2.15,0,0,1-.67.41A2.45,2.45,0,0,1,147.38,76.17Z" transform="translate(0 -1.46)" style="fill:#8a6c93"/><circle cx="211.75" cy="116.34" r="2.82" style="fill:#bec3d6;opacity:0.27"/><g style="opacity:0.27"><path d="M204.91,117.81a2.82,2.82,0,1,1-2.82-2.82A2.82,2.82,0,0,1,204.91,117.81Z" transform="translate(0 -1.46)" style="fill:#bec3d6"/></g><g style="opacity:0.27"><path d="M195.25,117.81a2.82,2.82,0,1,1-2.82-2.82A2.82,2.82,0,0,1,195.25,117.81Z" transform="translate(0 -1.46)" style="fill:#bec3d6"/></g><g style="opacity:0.27"><circle cx="182.77" cy="116.34" r="2.82" style="fill:#bec3d6"/></g><g style="opacity:0.27"><path d="M175.93,117.81a2.82,2.82,0,1,1-2.82-2.82A2.82,2.82,0,0,1,175.93,117.81Z" transform="translate(0 -1.46)" style="fill:#bec3d6"/></g><g style="opacity:0.27"><circle cx="163.45" cy="116.34" r="2.82" style="fill:#bec3d6"/></g><g style="opacity:0.27"><path d="M156.61,117.81a2.82,2.82,0,1,1-2.82-2.82A2.82,2.82,0,0,1,156.61,117.81Z" transform="translate(0 -1.46)" style="fill:#bec3d6"/></g><g style="opacity:0.27"><circle cx="144.13" cy="116.34" r="2.82" style="fill:#bec3d6"/></g><circle cx="134.47" cy="116.34" r="2.82" style="fill:#8a6c93"/><path d="M127.63,117.81a2.82,2.82,0,1,1-2.82-2.82A2.82,2.82,0,0,1,127.63,117.81Z" transform="translate(0 -1.46)" style="fill:#8a6c93"/><path d="M129.09,107.19a.27.27,0,0,1,.18.08l.45.5a3.55,3.55,0,0,1-1.28,1,4.33,4.33,0,0,1-1.81.34,4.21,4.21,0,0,1-1.69-.32,3.66,3.66,0,0,1-1.29-.9,4,4,0,0,1-.83-1.38,5.38,5.38,0,0,1-.29-1.79,4.86,4.86,0,0,1,.31-1.78,4.09,4.09,0,0,1,.89-1.39,3.85,3.85,0,0,1,1.36-.9,4.56,4.56,0,0,1,1.76-.33,4,4,0,0,1,2.86,1.1l-.38.53a.47.47,0,0,1-.1.1.22.22,0,0,1-.15,0,.29.29,0,0,1-.17-.06l-.21-.14c-.08,0-.17-.12-.28-.18a3.43,3.43,0,0,0-.38-.18,3,3,0,0,0-.52-.14,3.37,3.37,0,0,0-.68-.06,3.22,3.22,0,0,0-1.26.24,2.94,2.94,0,0,0-1,.67,3.18,3.18,0,0,0-.64,1.07,3.94,3.94,0,0,0-.23,1.41,4,4,0,0,0,.23,1.44,3,3,0,0,0,.63,1.06,2.59,2.59,0,0,0,.94.66,2.92,2.92,0,0,0,1.18.23,4.75,4.75,0,0,0,.69,0,3.39,3.39,0,0,0,.57-.14,2.73,2.73,0,0,0,.48-.25,3.3,3.3,0,0,0,.46-.35A.28.28,0,0,1,129.09,107.19Z" transform="translate(0 -1.46)" style="fill:#8a6c93"/><path d="M18.1,179.35a24.22,24.22,0,1,1,24.22,24.22A24.24,24.24,0,0,1,18.1,179.35Zm3.57,0A20.65,20.65,0,1,0,42.32,158.7,20.67,20.67,0,0,0,21.67,179.35Z" transform="translate(0 -1.46)" style="fill:#bec3d6;opacity:0.27"/><path d="M42.32,203.57a24.22,24.22,0,1,0,0-48.44H40.53v3.57h1.79a20.65,20.65,0,1,1-11.95,37.49l-1.46-1-2.07,2.91,1.46,1A24,24,0,0,0,42.32,203.57Z" transform="translate(0 -1.46)" style="fill:#8a6c93"/><path d="M35.39,171.32h2.15v.56H34.71v-5h.68Z" transform="translate(0 -1.46)" style="fill:#8a6c93"/><path d="M39,167.25a.45.45,0,0,1-.14.31.5.5,0,0,1-.14.1.47.47,0,0,1-.17,0,.51.51,0,0,1-.17,0l-.13-.1a.33.33,0,0,1-.1-.14.38.38,0,0,1,0-.34.33.33,0,0,1,.1-.14l.13-.1a.51.51,0,0,1,.17,0,.47.47,0,0,1,.17,0,.5.5,0,0,1,.14.1.45.45,0,0,1,.14.31Zm-.14,1.11v3.52h-.62v-3.52Z" transform="translate(0 -1.46)" style="fill:#8a6c93"/><path d="M41.16,168.3a2,2,0,0,1,.43,0,1.14,1.14,0,0,1,.36.15h1v.23c0,.07,0,.12-.15.14l-.4.06a1.06,1.06,0,0,1,.12.5,1,1,0,0,1-.1.47,1.07,1.07,0,0,1-.27.36,1.22,1.22,0,0,1-.42.23,1.83,1.83,0,0,1-1,0,.66.66,0,0,0-.17.16.33.33,0,0,0-.05.16.22.22,0,0,0,.1.2.71.71,0,0,0,.26.09,2.25,2.25,0,0,0,.38,0h.44a2.09,2.09,0,0,1,.43,0,1.14,1.14,0,0,1,.38.13.69.69,0,0,1,.27.24.76.76,0,0,1,.1.4.88.88,0,0,1-.12.44,1.17,1.17,0,0,1-.32.39,1.49,1.49,0,0,1-.52.26,2.09,2.09,0,0,1-.69.1,2.79,2.79,0,0,1-.68-.07,1.51,1.51,0,0,1-.48-.21.83.83,0,0,1-.29-.3.73.73,0,0,1-.09-.35.63.63,0,0,1,.16-.44,1,1,0,0,1,.46-.29.65.65,0,0,1-.24-.19.5.5,0,0,1-.09-.31.45.45,0,0,1,0-.16.6.6,0,0,1,.08-.16,1,1,0,0,1,.14-.15.69.69,0,0,1,.2-.13A1.18,1.18,0,0,1,40,170a1.05,1.05,0,0,1-.15-.57,1.15,1.15,0,0,1,.1-.46,1.09,1.09,0,0,1,.28-.36,1.22,1.22,0,0,1,.42-.23A1.8,1.8,0,0,1,41.16,168.3Zm1.1,3.76a.33.33,0,0,0-.07-.21.46.46,0,0,0-.2-.13l-.29-.07-.35,0H41a1.34,1.34,0,0,1-.35,0,1,1,0,0,0-.33.23.45.45,0,0,0-.12.32.43.43,0,0,0,.06.22.47.47,0,0,0,.19.18,1.11,1.11,0,0,0,.31.12,2.55,2.55,0,0,0,.9,0,1.26,1.26,0,0,0,.33-.14.54.54,0,0,0,.22-.2A.56.56,0,0,0,42.26,172.06Zm-1.1-1.9a1.14,1.14,0,0,0,.33,0,.58.58,0,0,0,.24-.15.48.48,0,0,0,.15-.22.88.88,0,0,0,0-.29.68.68,0,0,0-.2-.51.95.95,0,0,0-1.14,0,.68.68,0,0,0-.2.51.88.88,0,0,0,0,.29.71.71,0,0,0,.15.22.75.75,0,0,0,.24.15A1.14,1.14,0,0,0,41.16,170.16Z" transform="translate(0 -1.46)" style="fill:#8a6c93"/><path d="M43.53,171.88v-3.52h.37a.15.15,0,0,1,.16.13l0,.38a2,2,0,0,1,.52-.41,1.33,1.33,0,0,1,.65-.16,1.19,1.19,0,0,1,.51.1.91.91,0,0,1,.37.27,1.2,1.2,0,0,1,.22.42,1.63,1.63,0,0,1,.08.55v2.24h-.62v-2.24a1,1,0,0,0-.18-.62.68.68,0,0,0-.56-.22,1,1,0,0,0-.51.13,1.66,1.66,0,0,0-.44.36v2.59Z" transform="translate(0 -1.46)" style="fill:#8a6c93"/><path d="M48.79,168.3a1.63,1.63,0,0,1,.59.11,1.21,1.21,0,0,1,.46.31,1.27,1.27,0,0,1,.3.49,1.78,1.78,0,0,1,.11.67.38.38,0,0,1,0,.19s-.06.05-.12.05H47.76a1.64,1.64,0,0,0,.09.58,1.2,1.2,0,0,0,.23.42.85.85,0,0,0,.35.24,1.06,1.06,0,0,0,.45.09,1.16,1.16,0,0,0,.4-.06,1.1,1.1,0,0,0,.29-.12l.21-.11a.24.24,0,0,1,.14-.06.14.14,0,0,1,.12.06l.17.23a1.31,1.31,0,0,1-.28.24,1.35,1.35,0,0,1-.34.17,2.36,2.36,0,0,1-.38.1,2.43,2.43,0,0,1-.38,0,1.87,1.87,0,0,1-.68-.12,1.47,1.47,0,0,1-.53-.36,1.81,1.81,0,0,1-.35-.59,2.55,2.55,0,0,1-.12-.81,1.92,1.92,0,0,1,.11-.69,1.5,1.5,0,0,1,.32-.55,1.59,1.59,0,0,1,.52-.37A1.74,1.74,0,0,1,48.79,168.3Zm0,.46a1,1,0,0,0-.71.26,1.21,1.21,0,0,0-.32.72H49.7a1.25,1.25,0,0,0-.06-.4.87.87,0,0,0-.18-.31.84.84,0,0,0-.28-.2A.87.87,0,0,0,48.81,168.76Z" transform="translate(0 -1.46)" style="fill:#8a6c93"/><path d="M41.54,180.23a.16.16,0,0,1-.17-.12l0-.43a1.82,1.82,0,0,1-.52.44,1.3,1.3,0,0,1-.67.16,1.33,1.33,0,0,1-.54-.11,1.21,1.21,0,0,1-.43-.35,1.62,1.62,0,0,1-.26-.56,2.59,2.59,0,0,1-.1-.78,2.36,2.36,0,0,1,.11-.72,1.77,1.77,0,0,1,.3-.58,1.29,1.29,0,0,1,.48-.39,1.34,1.34,0,0,1,.64-.14,1.18,1.18,0,0,1,.55.11,1.31,1.31,0,0,1,.41.3v-1.95h.62v5.12Zm-1.2-.45a.93.93,0,0,0,.53-.14,1.53,1.53,0,0,0,.42-.39v-1.71a1,1,0,0,0-.37-.32,1.13,1.13,0,0,0-.45-.09.9.9,0,0,0-.76.35,1.63,1.63,0,0,0-.27,1,2.49,2.49,0,0,0,.06.59,1.11,1.11,0,0,0,.18.41.7.7,0,0,0,.28.23A.92.92,0,0,0,40.34,179.78Z" transform="translate(0 -1.46)" style="fill:#8a6c93"/><path d="M44.35,176.65a1.58,1.58,0,0,1,.58.11,1.21,1.21,0,0,1,.46.31,1.42,1.42,0,0,1,.31.49,2,2,0,0,1,.11.67.38.38,0,0,1,0,.19.13.13,0,0,1-.12.05H43.31a2.28,2.28,0,0,0,.09.58,1.39,1.39,0,0,0,.23.42.92.92,0,0,0,.35.24,1.1,1.1,0,0,0,.45.09,1.16,1.16,0,0,0,.4-.06,1,1,0,0,0,.29-.12l.21-.11a.22.22,0,0,1,.14,0,.13.13,0,0,1,.12,0l.17.23a1.25,1.25,0,0,1-.27.24,1.42,1.42,0,0,1-.35.17,1.56,1.56,0,0,1-.37.1,2.56,2.56,0,0,1-.39,0,1.81,1.81,0,0,1-.67-.12,1.42,1.42,0,0,1-.54-.36,2,2,0,0,1-.35-.59,2.55,2.55,0,0,1-.12-.81,2.22,2.22,0,0,1,.11-.69,1.68,1.68,0,0,1,.33-.55,1.41,1.41,0,0,1,.52-.37A1.67,1.67,0,0,1,44.35,176.65Zm0,.46a1,1,0,0,0-.71.26,1.27,1.27,0,0,0-.32.72h1.92a1.25,1.25,0,0,0-.06-.4,1,1,0,0,0-.17-.31,1,1,0,0,0-.28-.2A.92.92,0,0,0,44.36,177.11Z" transform="translate(0 -1.46)" style="fill:#8a6c93"/><path d="M28.49,185.69l0,.06-.08,0a.24.24,0,0,1-.12-.05l-.15-.09a1,1,0,0,0-.23-.1,1.25,1.25,0,0,0-.78.05.82.82,0,0,0-.34.27,1.37,1.37,0,0,0-.2.42,2.29,2.29,0,0,0-.07.55,2,2,0,0,0,.08.57,1.37,1.37,0,0,0,.2.42.93.93,0,0,0,.33.26,1.08,1.08,0,0,0,.42.08,1,1,0,0,0,.37-.05l.25-.12.16-.12a.16.16,0,0,1,.12-.05.12.12,0,0,1,.12.06l.18.22a1.32,1.32,0,0,1-.58.41,2,2,0,0,1-.73.13,1.54,1.54,0,0,1-.61-.12,1.42,1.42,0,0,1-.49-.35,1.59,1.59,0,0,1-.33-.57,2.26,2.26,0,0,1-.12-.77,2.48,2.48,0,0,1,.11-.73,1.59,1.59,0,0,1,.32-.57,1.43,1.43,0,0,1,.52-.38,1.73,1.73,0,0,1,.71-.13,1.67,1.67,0,0,1,.65.12,1.72,1.72,0,0,1,.51.33Z" transform="translate(0 -1.46)" style="fill:#8a6c93"/><path d="M30.77,185a1.88,1.88,0,0,1,.69.12,1.45,1.45,0,0,1,.53.37,1.63,1.63,0,0,1,.34.57,2.56,2.56,0,0,1,.11.75,2.47,2.47,0,0,1-.11.75,1.47,1.47,0,0,1-.34.57,1.45,1.45,0,0,1-.53.37,1.88,1.88,0,0,1-.69.12,1.94,1.94,0,0,1-.7-.12,1.45,1.45,0,0,1-.53-.37,1.47,1.47,0,0,1-.34-.57,2.19,2.19,0,0,1-.12-.75,2.27,2.27,0,0,1,.12-.75,1.63,1.63,0,0,1,.34-.57,1.45,1.45,0,0,1,.53-.37A1.94,1.94,0,0,1,30.77,185Zm0,3.14a.9.9,0,0,0,.77-.35,1.55,1.55,0,0,0,.26-1,1.62,1.62,0,0,0-.26-1,.9.9,0,0,0-.77-.35,1.08,1.08,0,0,0-.46.09.93.93,0,0,0-.33.26,1.15,1.15,0,0,0-.19.42,2,2,0,0,0-.07.57,2,2,0,0,0,.07.56,1,1,0,0,0,.19.41.93.93,0,0,0,.33.26A1.08,1.08,0,0,0,30.77,188.15Z" transform="translate(0 -1.46)" style="fill:#8a6c93"/><path d="M33.21,188.59v-3.53h.37a.15.15,0,0,1,.16.13l0,.36a1.63,1.63,0,0,1,.44-.39,1,1,0,0,1,.56-.15.85.85,0,0,1,.58.19,1.25,1.25,0,0,1,.32.54.89.89,0,0,1,.19-.33,1.18,1.18,0,0,1,.27-.23,1.13,1.13,0,0,1,.32-.13,1.27,1.27,0,0,1,.34,0,1.48,1.48,0,0,1,.49.08,1,1,0,0,1,.37.26,1.44,1.44,0,0,1,.24.42,2,2,0,0,1,.08.57v2.25h-.62v-2.25a1,1,0,0,0-.18-.63.68.68,0,0,0-.53-.21.93.93,0,0,0-.29.05A.75.75,0,0,0,36,186a1.06,1.06,0,0,0-.06.37v2.25h-.62v-2.25a1,1,0,0,0-.17-.63.6.6,0,0,0-.5-.21.79.79,0,0,0-.42.12,1.64,1.64,0,0,0-.36.34v2.63Z" transform="translate(0 -1.46)" style="fill:#8a6c93"/><path d="M38.92,188.59v-3.53h.37a.16.16,0,0,1,.17.13l0,.36a1.79,1.79,0,0,1,.44-.39,1,1,0,0,1,.56-.15.85.85,0,0,1,.58.19,1.16,1.16,0,0,1,.32.54,1.06,1.06,0,0,1,.19-.33,1.18,1.18,0,0,1,.27-.23,1.27,1.27,0,0,1,.32-.13,1.32,1.32,0,0,1,.34,0,1.54,1.54,0,0,1,.5.08,1.08,1.08,0,0,1,.37.26,1.42,1.42,0,0,1,.23.42,2,2,0,0,1,.08.57v2.25h-.62v-2.25a1,1,0,0,0-.18-.63.66.66,0,0,0-.53-.21.93.93,0,0,0-.29.05.78.78,0,0,0-.24.16.76.76,0,0,0-.16.26.87.87,0,0,0-.07.37v2.25H41v-2.25a1,1,0,0,0-.18-.63.59.59,0,0,0-.49-.21.8.8,0,0,0-.43.12,1.64,1.64,0,0,0-.36.34v2.63Z" transform="translate(0 -1.46)" style="fill:#8a6c93"/><path d="M47.22,188.59H47a.33.33,0,0,1-.15,0,.18.18,0,0,1-.07-.12l-.07-.33a2.76,2.76,0,0,1-.27.23,1.56,1.56,0,0,1-.28.16,1.63,1.63,0,0,1-.31.11,2.05,2.05,0,0,1-.37,0,1.16,1.16,0,0,1-.38-.06.67.67,0,0,1-.31-.17.78.78,0,0,1-.21-.29.93.93,0,0,1-.08-.42.73.73,0,0,1,.11-.4,1,1,0,0,1,.37-.34,2.35,2.35,0,0,1,.67-.25,4.78,4.78,0,0,1,1-.1v-.27a1,1,0,0,0-.17-.63.64.64,0,0,0-.52-.21,1,1,0,0,0-.38.06,1.13,1.13,0,0,0-.27.13l-.2.12a.25.25,0,0,1-.16.06.2.2,0,0,1-.11,0,.27.27,0,0,1-.07-.08l-.11-.2a1.83,1.83,0,0,1,.63-.42A1.79,1.79,0,0,1,46,185a1.24,1.24,0,0,1,.52.1,1,1,0,0,1,.62.69,1.53,1.53,0,0,1,.08.54Zm-1.6-.38a1,1,0,0,0,.3,0,1.06,1.06,0,0,0,.25-.09,1.14,1.14,0,0,0,.23-.15,1.94,1.94,0,0,0,.21-.2V187a3.8,3.8,0,0,0-.72.05,2.24,2.24,0,0,0-.49.14.67.67,0,0,0-.27.21.43.43,0,0,0-.09.26.62.62,0,0,0,.05.25.48.48,0,0,0,.12.16.4.4,0,0,0,.18.1A.85.85,0,0,0,45.62,188.21Z" transform="translate(0 -1.46)" style="fill:#8a6c93"/><path d="M48.16,188.59v-3.53h.37a.16.16,0,0,1,.17.13l0,.38a2,2,0,0,1,.51-.41,1.4,1.4,0,0,1,.66-.15,1.36,1.36,0,0,1,.51.09,1.1,1.1,0,0,1,.36.27,1.22,1.22,0,0,1,.23.42,1.92,1.92,0,0,1,.08.55v2.25h-.62v-2.25a.92.92,0,0,0-.19-.62.66.66,0,0,0-.55-.22,1,1,0,0,0-.52.13,1.83,1.83,0,0,0-.44.36v2.6Z" transform="translate(0 -1.46)" style="fill:#8a6c93"/><path d="M54.51,188.59a.15.15,0,0,1-.16-.13l-.06-.43a1.82,1.82,0,0,1-.52.44,1.29,1.29,0,0,1-.66.16,1.23,1.23,0,0,1-.55-.11,1.07,1.07,0,0,1-.42-.34,1.59,1.59,0,0,1-.27-.57,2.94,2.94,0,0,1-.1-.77,2.43,2.43,0,0,1,.11-.73,1.77,1.77,0,0,1,.3-.58,1.29,1.29,0,0,1,.48-.39,1.47,1.47,0,0,1,.64-.14,1.31,1.31,0,0,1,.55.11,1.2,1.2,0,0,1,.41.31v-2h.62v5.13Zm-1.2-.46a.93.93,0,0,0,.53-.14,1.4,1.4,0,0,0,.42-.39v-1.7a1,1,0,0,0-.37-.33,1.13,1.13,0,0,0-.45-.09.91.91,0,0,0-.76.35,1.64,1.64,0,0,0-.27,1,2.55,2.55,0,0,0,.06.59,1.13,1.13,0,0,0,.18.4.7.7,0,0,0,.28.23A.92.92,0,0,0,53.31,188.13Z" transform="translate(0 -1.46)" style="fill:#8a6c93"/><path d="M57.32,185a1.57,1.57,0,0,1,.58.1,1.33,1.33,0,0,1,.47.31,1.5,1.5,0,0,1,.3.49,2,2,0,0,1,.11.67.46.46,0,0,1,0,.2.14.14,0,0,1-.12.05H56.28a2,2,0,0,0,.1.58,1.23,1.23,0,0,0,.22.41,1.07,1.07,0,0,0,.35.25,1.33,1.33,0,0,0,.45.08,1.27,1.27,0,0,0,.41-.06,1.6,1.6,0,0,0,.29-.11l.2-.12a.24.24,0,0,1,.14-.05.14.14,0,0,1,.12.06l.17.22a.9.9,0,0,1-.27.24,1.54,1.54,0,0,1-.34.17,1.78,1.78,0,0,1-.38.1,2.56,2.56,0,0,1-.39,0,1.81,1.81,0,0,1-.67-.12,1.39,1.39,0,0,1-.53-.36,1.65,1.65,0,0,1-.35-.59,2.22,2.22,0,0,1-.13-.81,2,2,0,0,1,.12-.69,1.59,1.59,0,0,1,.32-.55,1.41,1.41,0,0,1,.52-.37A1.67,1.67,0,0,1,57.32,185Zm0,.45a1,1,0,0,0-.71.26,1.27,1.27,0,0,0-.32.72h1.92a1.25,1.25,0,0,0-.06-.4.85.85,0,0,0-.17-.31,1,1,0,0,0-.28-.2A1.12,1.12,0,0,0,57.33,185.46Z" transform="translate(0 -1.46)" style="fill:#8a6c93"/><g style="opacity:0.27"><path d="M82.24,179.35a24.22,24.22,0,1,1,24.22,24.22A24.24,24.24,0,0,1,82.24,179.35Zm3.57,0a20.65,20.65,0,1,0,20.65-20.65A20.67,20.67,0,0,0,85.81,179.35Z" transform="translate(0 -1.46)" style="fill:#bec3d6"/></g><path d="M106.46,203.57a24.22,24.22,0,1,0,0-48.44h-1.79v3.57h1.79a20.64,20.64,0,1,1-19.9,15.13l.48-1.72-3.45-1-.48,1.73a24.25,24.25,0,0,0,23.35,30.69Z" transform="translate(0 -1.46)" style="fill:#8a6c93"/><path d="M103.67,180.76l.37,0a1.65,1.65,0,0,0,.32-.06,1.31,1.31,0,0,0,.28-.09l.26-.12v-1.1h-.77a.21.21,0,0,1-.11,0,.18.18,0,0,1,0-.09v-.39h1.53v1.92a2.5,2.5,0,0,1-.39.23,2,2,0,0,1-.43.17,2.6,2.6,0,0,1-.5.1,4.78,4.78,0,0,1-.57,0,2.7,2.7,0,0,1-1-.19,2.32,2.32,0,0,1-.78-.52,2.79,2.79,0,0,1-.51-.81,3.07,3.07,0,0,1,0-2.07,2.42,2.42,0,0,1,.51-.81,2.26,2.26,0,0,1,.81-.52,2.89,2.89,0,0,1,1-.18,3.16,3.16,0,0,1,.55,0,2.15,2.15,0,0,1,.47.13,1.66,1.66,0,0,1,.4.2,1.77,1.77,0,0,1,.35.26l-.19.3a.17.17,0,0,1-.16.1.24.24,0,0,1-.12,0l-.19-.12a1.26,1.26,0,0,0-.26-.13,1.79,1.79,0,0,0-.37-.11,2.41,2.41,0,0,0-.5-.05,2.06,2.06,0,0,0-.76.14,1.56,1.56,0,0,0-.58.39,1.68,1.68,0,0,0-.37.62,2.35,2.35,0,0,0-.13.82,2.47,2.47,0,0,0,.13.84,1.8,1.8,0,0,0,.38.63,1.65,1.65,0,0,0,.58.39A2,2,0,0,0,103.67,180.76Z" transform="translate(0 -1.46)" style="fill:#8a6c93"/><path d="M107.35,181.25h-.67v-5h.67Z" transform="translate(0 -1.46)" style="fill:#8a6c93"/><path d="M112.08,176.26v.57h-1.61v4.42h-.67v-4.42h-1.62v-.57Z" transform="translate(0 -1.46)" style="fill:#8a6c93"/><path d="M18.39,236.72a24.22,24.22,0,1,1,24.22,24.22A24.24,24.24,0,0,1,18.39,236.72Zm3.57,0a20.65,20.65,0,1,0,20.65-20.65A20.67,20.67,0,0,0,22,236.72Z" transform="translate(0 -1.46)" style="fill:#bec3d6;opacity:0.27"/><path d="M42.61,260.94a24.22,24.22,0,1,0,0-48.44H40.82v3.57h1.79A20.66,20.66,0,1,1,30.51,220L32,218.94l-2.1-2.9-1.45,1.05a24.23,24.23,0,0,0,14.2,43.85Z" transform="translate(0 -1.46)" style="fill:#8a6c93"/><path d="M34.87,236.37,33.22,234h.68l.1,0,.07.07,1.3,2a.71.71,0,0,1,.07-.16l1.23-1.82a.19.19,0,0,1,.07-.08.12.12,0,0,1,.09,0h.64l-1.65,2.39,1.7,2.59h-.66c-.06,0-.1,0-.12,0a.18.18,0,0,1-.07-.08l-1.34-2.1-.06.14-1.31,2a.27.27,0,0,1-.07.08.12.12,0,0,1-.11,0h-.63Z" transform="translate(0 -1.46)" style="fill:#8a6c93"/><path d="M40.37,236l-.06.05a.1.1,0,0,1-.08,0,.21.21,0,0,1-.11-.05L40,236a.9.9,0,0,0-.22-.1,1.06,1.06,0,0,0-.33,0,1.11,1.11,0,0,0-.46.09.86.86,0,0,0-.33.27,1,1,0,0,0-.2.42,1.88,1.88,0,0,0-.07.55,2,2,0,0,0,.07.57,1.27,1.27,0,0,0,.21.42.87.87,0,0,0,.32.25,1.2,1.2,0,0,0,.8,0l.24-.12.16-.12a.18.18,0,0,1,.13-.05.13.13,0,0,1,.12.05l.17.23a1.37,1.37,0,0,1-.57.41,2,2,0,0,1-.73.13,1.59,1.59,0,0,1-.62-.12,1.42,1.42,0,0,1-.49-.35,1.78,1.78,0,0,1-.33-.57,2.3,2.3,0,0,1-.12-.77,2.48,2.48,0,0,1,.11-.73,1.59,1.59,0,0,1,.32-.57,1.52,1.52,0,0,1,.52-.38,1.8,1.8,0,0,1,.71-.14,1.54,1.54,0,0,1,1.16.46Z" transform="translate(0 -1.46)" style="fill:#8a6c93"/><path d="M42.64,235.35a1.94,1.94,0,0,1,.7.13,1.64,1.64,0,0,1,.53.37,1.68,1.68,0,0,1,.33.57,2.4,2.4,0,0,1,0,1.5,1.78,1.78,0,0,1-.33.57,1.64,1.64,0,0,1-.53.37,2.1,2.1,0,0,1-1.4,0,1.54,1.54,0,0,1-.53-.37,1.63,1.63,0,0,1-.34-.57,2.61,2.61,0,0,1,0-1.5,1.56,1.56,0,0,1,.87-.94A1.94,1.94,0,0,1,42.64,235.35Zm0,3.15a.91.91,0,0,0,.78-.35,1.63,1.63,0,0,0,.26-1,1.65,1.65,0,0,0-.26-1,.91.91,0,0,0-.78-.35,1.08,1.08,0,0,0-.46.09.93.93,0,0,0-.33.26,1.35,1.35,0,0,0-.19.42,2.38,2.38,0,0,0-.07.56,2.31,2.31,0,0,0,.07.56,1.16,1.16,0,0,0,.19.42.93.93,0,0,0,.33.26A1.08,1.08,0,0,0,42.64,238.5Z" transform="translate(0 -1.46)" style="fill:#8a6c93"/><path d="M47.56,238.93a.15.15,0,0,1-.16-.12l-.06-.43a1.82,1.82,0,0,1-.52.44,1.29,1.29,0,0,1-.66.16,1.38,1.38,0,0,1-.55-.11,1.1,1.1,0,0,1-.42-.35,1.54,1.54,0,0,1-.27-.56,3,3,0,0,1-.1-.78,2.36,2.36,0,0,1,.11-.72,1.77,1.77,0,0,1,.3-.58,1.29,1.29,0,0,1,.48-.39,1.34,1.34,0,0,1,.64-.14,1.18,1.18,0,0,1,.55.11,1.31,1.31,0,0,1,.41.3v-1.95h.62v5.12Zm-1.2-.45a1,1,0,0,0,.53-.14,1.53,1.53,0,0,0,.42-.39v-1.7a.94.94,0,0,0-.37-.33,1.13,1.13,0,0,0-.45-.09.91.91,0,0,0-.76.35,1.63,1.63,0,0,0-.27,1,2.49,2.49,0,0,0,.06.59,1.11,1.11,0,0,0,.18.41.7.7,0,0,0,.28.23A.92.92,0,0,0,46.36,238.48Z" transform="translate(0 -1.46)" style="fill:#8a6c93"/><path d="M50.37,235.35a1.58,1.58,0,0,1,.58.11,1.21,1.21,0,0,1,.46.31,1.29,1.29,0,0,1,.31.49,2,2,0,0,1,.11.67.38.38,0,0,1,0,.19s-.06,0-.12,0H49.33a2.28,2.28,0,0,0,.09.58,1.39,1.39,0,0,0,.23.42.92.92,0,0,0,.35.24,1.13,1.13,0,0,0,.45.09,1.27,1.27,0,0,0,.41-.06,1.6,1.6,0,0,0,.29-.11l.2-.12a.22.22,0,0,1,.14-.05.13.13,0,0,1,.12.05l.17.23a1.05,1.05,0,0,1-.27.24,1.54,1.54,0,0,1-.34.17,1.78,1.78,0,0,1-.38.1,2.56,2.56,0,0,1-.39,0,1.81,1.81,0,0,1-.67-.12,1.39,1.39,0,0,1-.53-.36,1.65,1.65,0,0,1-.35-.59,2.3,2.3,0,0,1-.13-.81,2.17,2.17,0,0,1,.11-.69,1.68,1.68,0,0,1,.33-.55,1.41,1.41,0,0,1,.52-.37A1.67,1.67,0,0,1,50.37,235.35Zm0,.46a1,1,0,0,0-.71.26,1.27,1.27,0,0,0-.32.72h1.92a1.25,1.25,0,0,0-.06-.4.85.85,0,0,0-.17-.31,1,1,0,0,0-.28-.2A.92.92,0,0,0,50.38,235.81Z" transform="translate(0 -1.46)" style="fill:#8a6c93"/><path d="M82.24,236.58a24.22,24.22,0,1,1,24.22,24.22A24.25,24.25,0,0,1,82.24,236.58Zm3.57,0a20.65,20.65,0,1,0,20.65-20.64A20.67,20.67,0,0,0,85.81,236.58Z" transform="translate(0 -1.46)" style="fill:#bec3d6;opacity:0.27"/><path d="M106.46,260.8a24.22,24.22,0,1,0,0-48.44h-1.79v3.58h1.79a20.64,20.64,0,1,1-12.1,3.91l1.45-1-2.1-2.9-1.45,1a24.23,24.23,0,0,0,14.2,43.85Z" transform="translate(0 -1.46)" style="fill:#8a6c93"/><path d="M100.75,233.58a.16.16,0,0,1,.1,0l.26.29a2.14,2.14,0,0,1-.74.55,2.74,2.74,0,0,1-2,0,2.17,2.17,0,0,1-1.23-1.33,3,3,0,0,1-.17-1,2.82,2.82,0,0,1,.18-1,2.4,2.4,0,0,1,.52-.81,2.14,2.14,0,0,1,.79-.52,2.61,2.61,0,0,1,1-.19,2.43,2.43,0,0,1,.94.17,2.29,2.29,0,0,1,.71.46l-.22.31s0,0,0,.06l-.09,0a.19.19,0,0,1-.1,0l-.12-.08-.16-.11-.23-.1a1.71,1.71,0,0,0-.29-.08,2.35,2.35,0,0,0-.4,0,1.94,1.94,0,0,0-.73.14,1.61,1.61,0,0,0-.57.39,1.85,1.85,0,0,0-.38.62,2.68,2.68,0,0,0,0,1.65,1.74,1.74,0,0,0,.37.62,1.4,1.4,0,0,0,.55.38,1.72,1.72,0,0,0,.68.14,2.41,2.41,0,0,0,.4,0,1.59,1.59,0,0,0,.33-.08l.28-.14a2.39,2.39,0,0,0,.26-.21A.21.21,0,0,1,100.75,233.58Z" transform="translate(0 -1.46)" style="fill:#8a6c93"/><path d="M103.33,231a1.75,1.75,0,0,1,.7.13,1.64,1.64,0,0,1,.53.37,1.59,1.59,0,0,1,.33.57,2.4,2.4,0,0,1,0,1.5,1.78,1.78,0,0,1-.33.57,1.47,1.47,0,0,1-.53.36,1.95,1.95,0,0,1-1.4,0,1.39,1.39,0,0,1-.53-.36,1.8,1.8,0,0,1-.34-.57,2.61,2.61,0,0,1,0-1.5,1.6,1.6,0,0,1,.34-.57,1.54,1.54,0,0,1,.53-.37A1.75,1.75,0,0,1,103.33,231Zm0,3.15a.91.91,0,0,0,.78-.35,1.65,1.65,0,0,0,.26-1,1.63,1.63,0,0,0-.26-1,.88.88,0,0,0-.78-.35,1.08,1.08,0,0,0-.46.09.93.93,0,0,0-.33.26,1.16,1.16,0,0,0-.19.42,2.4,2.4,0,0,0-.06.56,2.34,2.34,0,0,0,.06.56,1.25,1.25,0,0,0,.19.42.93.93,0,0,0,.33.26A1.08,1.08,0,0,0,103.33,234.18Z" transform="translate(0 -1.46)" style="fill:#8a6c93"/><path d="M108.18,231.71l-.06.06s0,0-.08,0a.19.19,0,0,1-.11,0l-.16-.1-.23-.09a.93.93,0,0,0-.32-.05,1,1,0,0,0-.46.1.93.93,0,0,0-.33.26,1.17,1.17,0,0,0-.2.42,2,2,0,0,0-.07.56,2,2,0,0,0,.07.57,1.22,1.22,0,0,0,.21.41.74.74,0,0,0,.32.26,1,1,0,0,0,.42.09,1.35,1.35,0,0,0,.38-.05,1.78,1.78,0,0,0,.24-.12l.16-.12a.18.18,0,0,1,.13-.06.11.11,0,0,1,.11.06l.18.23a1.5,1.5,0,0,1-.58.41,2,2,0,0,1-.72.13,1.59,1.59,0,0,1-.62-.12,1.42,1.42,0,0,1-.49-.35,1.78,1.78,0,0,1-.33-.57,2.35,2.35,0,0,1-.12-.77,2.38,2.38,0,0,1,.11-.73,1.73,1.73,0,0,1,.32-.58,1.41,1.41,0,0,1,.52-.37,1.76,1.76,0,0,1,.71-.14,1.6,1.6,0,0,1,.65.12,1.47,1.47,0,0,1,.51.34Z" transform="translate(0 -1.46)" style="fill:#8a6c93"/><path d="M110.45,231a1.75,1.75,0,0,1,.7.13,1.5,1.5,0,0,1,.52.37,1.47,1.47,0,0,1,.34.57,2.4,2.4,0,0,1,0,1.5,1.63,1.63,0,0,1-.34.57,1.35,1.35,0,0,1-.52.36,1.95,1.95,0,0,1-1.4,0,1.39,1.39,0,0,1-.53-.36,1.63,1.63,0,0,1-.34-.57,2.4,2.4,0,0,1,0-1.5,1.47,1.47,0,0,1,.34-.57,1.54,1.54,0,0,1,.53-.37A1.75,1.75,0,0,1,110.45,231Zm0,3.15a.91.91,0,0,0,.78-.35,1.65,1.65,0,0,0,.26-1,1.63,1.63,0,0,0-.26-1,.88.88,0,0,0-.78-.35,1.08,1.08,0,0,0-.46.09.93.93,0,0,0-.33.26,1.16,1.16,0,0,0-.19.42,2.38,2.38,0,0,0-.07.56,2.31,2.31,0,0,0,.07.56,1.25,1.25,0,0,0,.19.42.93.93,0,0,0,.33.26A1.08,1.08,0,0,0,110.45,234.18Z" transform="translate(0 -1.46)" style="fill:#8a6c93"/><path d="M115.48,234.61h-.27a.31.31,0,0,1-.15,0s-.06-.05-.07-.12l-.07-.32c-.1.08-.19.16-.28.22a1.53,1.53,0,0,1-.27.17,1.09,1.09,0,0,1-.32.1,1.37,1.37,0,0,1-.36,0,1.23,1.23,0,0,1-.39-.06,1,1,0,0,1-.31-.17.81.81,0,0,1-.21-.3,1,1,0,0,1-.08-.41.78.78,0,0,1,.12-.41,1,1,0,0,1,.37-.34,2.55,2.55,0,0,1,.67-.25,4.78,4.78,0,0,1,1-.09v-.28a1,1,0,0,0-.17-.62.66.66,0,0,0-.53-.21,1.09,1.09,0,0,0-.38.05,1.26,1.26,0,0,0-.26.13l-.2.13a.27.27,0,0,1-.16.06.15.15,0,0,1-.11,0,.14.14,0,0,1-.07-.08l-.12-.2a2.47,2.47,0,0,1,.63-.42,2,2,0,0,1,.75-.14,1.47,1.47,0,0,1,.53.1,1.19,1.19,0,0,1,.38.27,1.1,1.1,0,0,1,.24.42,1.92,1.92,0,0,1,.08.55Zm-1.61-.38a1.39,1.39,0,0,0,.3,0,1.14,1.14,0,0,0,.26-.09l.23-.15.21-.2V233a3.84,3.84,0,0,0-.73.06,1.62,1.62,0,0,0-.48.14.7.7,0,0,0-.28.2.5.5,0,0,0-.08.27.61.61,0,0,0,0,.24.52.52,0,0,0,.12.17.66.66,0,0,0,.19.09A.78.78,0,0,0,113.87,234.23Z" transform="translate(0 -1.46)" style="fill:#8a6c93"/><path d="M100.15,241.1V243h-.67v-5H101a3,3,0,0,1,.83.1,1.71,1.71,0,0,1,.58.32,1.27,1.27,0,0,1,.34.48,1.87,1.87,0,0,1,.11.64,1.69,1.69,0,0,1-.12.64,1.36,1.36,0,0,1-.36.5,1.79,1.79,0,0,1-.58.32,2.45,2.45,0,0,1-.8.12Zm0-.54h.8a1.3,1.3,0,0,0,.51-.08,1,1,0,0,0,.37-.21.86.86,0,0,0,.23-.33,1.16,1.16,0,0,0,.08-.42.94.94,0,0,0-.3-.74,1.26,1.26,0,0,0-.89-.27h-.8Z" transform="translate(0 -1.46)" style="fill:#8a6c93"/><path d="M104.89,239.38a1.75,1.75,0,0,1,.7.13,1.5,1.5,0,0,1,.52.37,1.47,1.47,0,0,1,.34.57,2.4,2.4,0,0,1,0,1.5,1.63,1.63,0,0,1-.34.57,1.35,1.35,0,0,1-.52.36,1.95,1.95,0,0,1-1.4,0,1.39,1.39,0,0,1-.53-.36,1.63,1.63,0,0,1-.34-.57,2.4,2.4,0,0,1,0-1.5,1.47,1.47,0,0,1,.34-.57,1.54,1.54,0,0,1,.53-.37A1.75,1.75,0,0,1,104.89,239.38Zm0,3.15a.91.91,0,0,0,.78-.35,1.65,1.65,0,0,0,.25-1,1.63,1.63,0,0,0-.25-1,.91.91,0,0,0-.78-.35,1.08,1.08,0,0,0-.46.09.93.93,0,0,0-.33.26,1.16,1.16,0,0,0-.19.42,2.38,2.38,0,0,0-.07.56,2.31,2.31,0,0,0,.07.56,1.25,1.25,0,0,0,.19.42.93.93,0,0,0,.33.26A1.08,1.08,0,0,0,104.89,242.53Z" transform="translate(0 -1.46)" style="fill:#8a6c93"/><path d="M109.81,243a.16.16,0,0,1-.17-.13l0-.42a1.82,1.82,0,0,1-.52.44,1.29,1.29,0,0,1-.66.16,1.2,1.2,0,0,1-.55-.12,1.09,1.09,0,0,1-.43-.34,1.71,1.71,0,0,1-.26-.56,2.68,2.68,0,0,1-.1-.78,2.36,2.36,0,0,1,.11-.72,1.82,1.82,0,0,1,.3-.59,1.37,1.37,0,0,1,.48-.38,1.44,1.44,0,0,1,1.19,0,1.53,1.53,0,0,1,.41.31v-1.95h.62V243Zm-1.2-.45a1,1,0,0,0,.53-.14,1.53,1.53,0,0,0,.42-.39v-1.71a1,1,0,0,0-.37-.32,1.13,1.13,0,0,0-.45-.09.9.9,0,0,0-.76.35,1.61,1.61,0,0,0-.27,1,2.49,2.49,0,0,0,.06.59,1.19,1.19,0,0,0,.18.41.7.7,0,0,0,.28.23A.92.92,0,0,0,108.61,242.51Z" transform="translate(0 -1.46)" style="fill:#8a6c93"/><path d="M113.24,240a.14.14,0,0,1-.13.07l-.12,0-.16-.09-.23-.09a1.37,1.37,0,0,0-.31,0,1.11,1.11,0,0,0-.28,0,.9.9,0,0,0-.22.11.43.43,0,0,0-.13.17.42.42,0,0,0,0,.2.33.33,0,0,0,.08.22.72.72,0,0,0,.21.16l.29.12.33.1.34.13a1.17,1.17,0,0,1,.29.17.75.75,0,0,1,.21.26.8.8,0,0,1,.08.36,1.06,1.06,0,0,1-.09.45.93.93,0,0,1-.26.36,1.22,1.22,0,0,1-.42.24,1.62,1.62,0,0,1-.57.09,1.76,1.76,0,0,1-.66-.12,1.83,1.83,0,0,1-.51-.31l.14-.24.07-.07.1,0a.24.24,0,0,1,.13.05l.17.11a1.33,1.33,0,0,0,.24.1,1,1,0,0,0,.36,0,1,1,0,0,0,.31,0,1,1,0,0,0,.23-.13.59.59,0,0,0,.13-.19.54.54,0,0,0,0-.22.36.36,0,0,0-.08-.24.58.58,0,0,0-.21-.16,1.1,1.1,0,0,0-.29-.12l-.34-.11-.34-.13a.79.79,0,0,1-.29-.18.75.75,0,0,1-.21-.26.9.9,0,0,1-.08-.39.85.85,0,0,1,.09-.38.78.78,0,0,1,.24-.33,1.49,1.49,0,0,1,.39-.23,1.8,1.8,0,0,1,.54-.08,1.75,1.75,0,0,1,.62.11,1.5,1.5,0,0,1,.48.3Z" transform="translate(0 -1.46)" style="fill:#8a6c93"/><g style="opacity:0.27"><path d="M18.1,293.93a24.22,24.22,0,1,1,24.22,24.22A24.24,24.24,0,0,1,18.1,293.93Zm3.57,0a20.65,20.65,0,1,0,20.65-20.65A20.67,20.67,0,0,0,21.67,293.93Z" transform="translate(0 -1.46)" style="fill:#bec3d6"/></g><path d="M42.32,318.15a24.22,24.22,0,1,0,0-48.44H40.53v3.57h1.79a20.65,20.65,0,1,1-19.27,28.07l-.64-1.67L19.07,301l.64,1.67A24.37,24.37,0,0,0,42.32,318.15Z" transform="translate(0 -1.46)" style="fill:#8a6c93"/><path d="M29.43,290.68H30a.2.2,0,0,1,.14.05.24.24,0,0,1,.09.11l1.41,3.52a1.6,1.6,0,0,1,.08.26,2.45,2.45,0,0,1,.08.29c0-.1.05-.2.07-.29a1,1,0,0,1,.09-.26l1.4-3.52a.21.21,0,0,1,.08-.11.25.25,0,0,1,.15-.05h.54l-2,5h-.61Z" transform="translate(0 -1.46)" style="fill:#8a6c93"/><path d="M37.29,291.46a.19.19,0,0,1-.07.08s0,0-.09,0a.27.27,0,0,1-.13-.05,1.74,1.74,0,0,0-.2-.13,1.12,1.12,0,0,0-.7-.19,1.25,1.25,0,0,0-.4.06.81.81,0,0,0-.29.16.64.64,0,0,0-.18.25.73.73,0,0,0-.06.3.56.56,0,0,0,.11.35.87.87,0,0,0,.27.23,1.9,1.9,0,0,0,.38.17l.44.15.44.17a1.63,1.63,0,0,1,.38.24,1.22,1.22,0,0,1,.27.36,1.18,1.18,0,0,1,.1.52,1.59,1.59,0,0,1-.11.62,1.47,1.47,0,0,1-.32.5,1.49,1.49,0,0,1-.53.33,1.92,1.92,0,0,1-.71.12,2.3,2.3,0,0,1-.88-.17,2.2,2.2,0,0,1-.68-.48l.2-.32.07-.06a.11.11,0,0,1,.08,0,.29.29,0,0,1,.17.08,1.91,1.91,0,0,0,.24.17,1.53,1.53,0,0,0,.34.17,1.17,1.17,0,0,0,.49.08,1.33,1.33,0,0,0,.42-.06.91.91,0,0,0,.32-.19.72.72,0,0,0,.2-.29.87.87,0,0,0,.07-.37.62.62,0,0,0-.1-.37.78.78,0,0,0-.27-.24,1.9,1.9,0,0,0-.38-.17l-.44-.14a3.29,3.29,0,0,1-.44-.16,1.39,1.39,0,0,1-.38-.25,1,1,0,0,1-.27-.37,1.29,1.29,0,0,1-.1-.55,1.34,1.34,0,0,1,.1-.52,1.28,1.28,0,0,1,.3-.43,1.47,1.47,0,0,1,.48-.31,1.69,1.69,0,0,1,.66-.12,2.06,2.06,0,0,1,.76.14,1.71,1.71,0,0,1,.6.38Z" transform="translate(0 -1.46)" style="fill:#8a6c93"/><path d="M43.28,294.64a.13.13,0,0,1,.1,0l.27.29a2.06,2.06,0,0,1-.75.55,2.4,2.4,0,0,1-1,.2,2.5,2.5,0,0,1-1-.18,2,2,0,0,1-.75-.53,2.22,2.22,0,0,1-.48-.8,2.86,2.86,0,0,1-.17-1,2.91,2.91,0,0,1,.18-1,2.42,2.42,0,0,1,.51-.81,2.52,2.52,0,0,1,.79-.52,2.8,2.8,0,0,1,1-.19,2.3,2.3,0,0,1,1,.18,2.23,2.23,0,0,1,.71.46l-.22.31-.06.06-.09,0-.09,0-.12-.09-.17-.1-.22-.11-.3-.08a2.21,2.21,0,0,0-.39,0,1.9,1.9,0,0,0-.73.14,1.56,1.56,0,0,0-.58.39,1.74,1.74,0,0,0-.37.62,2.31,2.31,0,0,0-.14.82,2.41,2.41,0,0,0,.14.83,1.83,1.83,0,0,0,.36.61,1.63,1.63,0,0,0,.55.39,1.72,1.72,0,0,0,.68.13l.4,0a1.59,1.59,0,0,0,.33-.09.92.92,0,0,0,.28-.14,1.56,1.56,0,0,0,.27-.2A.15.15,0,0,1,43.28,294.64Z" transform="translate(0 -1.46)" style="fill:#8a6c93"/><path d="M45.86,292.09a1.94,1.94,0,0,1,.7.12,1.45,1.45,0,0,1,.53.37,1.47,1.47,0,0,1,.33.57,2.27,2.27,0,0,1,.12.75,2.19,2.19,0,0,1-.12.75,1.34,1.34,0,0,1-.33.57,1.45,1.45,0,0,1-.53.37,1.94,1.94,0,0,1-.7.13,1.88,1.88,0,0,1-.69-.13,1.45,1.45,0,0,1-.53-.37,1.47,1.47,0,0,1-.34-.57,2.19,2.19,0,0,1-.12-.75,2.27,2.27,0,0,1,.12-.75,1.63,1.63,0,0,1,.34-.57,1.45,1.45,0,0,1,.53-.37A1.88,1.88,0,0,1,45.86,292.09Zm0,3.14a.88.88,0,0,0,.78-.35,1.62,1.62,0,0,0,.26-1,1.69,1.69,0,0,0-.26-1,.91.91,0,0,0-.78-.35,1.11,1.11,0,0,0-.46.09.9.9,0,0,0-.32.26,1.36,1.36,0,0,0-.2.42,2.49,2.49,0,0,0-.06.57,2.4,2.4,0,0,0,.06.56,1.21,1.21,0,0,0,.2.41.8.8,0,0,0,.32.26A1.11,1.11,0,0,0,45.86,295.23Z" transform="translate(0 -1.46)" style="fill:#8a6c93"/><path d="M50.79,295.67a.16.16,0,0,1-.17-.13l-.06-.43a1.93,1.93,0,0,1-.51.44,1.36,1.36,0,0,1-.67.17,1.26,1.26,0,0,1-.55-.12,1.24,1.24,0,0,1-.42-.34,1.68,1.68,0,0,1-.27-.57,3,3,0,0,1-.09-.77,2.48,2.48,0,0,1,.1-.73,1.62,1.62,0,0,1,.31-.58,1.35,1.35,0,0,1,.47-.39,1.47,1.47,0,0,1,.64-.14,1.36,1.36,0,0,1,.56.11,1.35,1.35,0,0,1,.41.31v-2h.62v5.13Zm-1.2-.46a1,1,0,0,0,.53-.13,1.75,1.75,0,0,0,.42-.4V293a1,1,0,0,0-.83-.42.89.89,0,0,0-.76.36,1.66,1.66,0,0,0-.26,1,2.55,2.55,0,0,0,.06.59,1.34,1.34,0,0,0,.17.4.65.65,0,0,0,.29.23A.89.89,0,0,0,49.59,295.21Z" transform="translate(0 -1.46)" style="fill:#8a6c93"/><path d="M53.59,292.09a1.63,1.63,0,0,1,.59.1,1.33,1.33,0,0,1,.46.31,1.35,1.35,0,0,1,.3.49,1.78,1.78,0,0,1,.11.67.43.43,0,0,1,0,.2.14.14,0,0,1-.12.05H52.56a1.72,1.72,0,0,0,.09.58,1.25,1.25,0,0,0,.23.41,1,1,0,0,0,.35.25,1.25,1.25,0,0,0,.45.08,1.2,1.2,0,0,0,.4-.06,1.6,1.6,0,0,0,.29-.11,1.17,1.17,0,0,0,.2-.12.37.37,0,0,1,.15-.05.11.11,0,0,1,.11.06l.18.22a1.12,1.12,0,0,1-.28.25,1.77,1.77,0,0,1-.34.16,1.64,1.64,0,0,1-.38.1,1.69,1.69,0,0,1-.38,0,1.87,1.87,0,0,1-.68-.13,1.47,1.47,0,0,1-.53-.36,1.57,1.57,0,0,1-.35-.59,2.47,2.47,0,0,1-.12-.81,2,2,0,0,1,.11-.69,1.51,1.51,0,0,1,.84-.92A1.73,1.73,0,0,1,53.59,292.09Zm0,.45a1,1,0,0,0-.71.26,1.21,1.21,0,0,0-.32.72H54.5a1.34,1.34,0,0,0-.06-.4.83.83,0,0,0-.18-.3.74.74,0,0,0-.28-.21A1.06,1.06,0,0,0,53.61,292.54Z" transform="translate(0 -1.46)" style="fill:#8a6c93"/><path d="M82.6,293.93a24.22,24.22,0,1,1,24.22,24.22A24.24,24.24,0,0,1,82.6,293.93Zm3.57,0a20.65,20.65,0,1,0,20.65-20.65A20.67,20.67,0,0,0,86.17,293.93Z" transform="translate(0 -1.46)" style="fill:#bec3d6;opacity:0.27"/><path d="M106.82,318.15a24.22,24.22,0,0,0,0-48.44H105v3.57h1.79a20.65,20.65,0,1,1-11.95,37.49l-1.46-1-2.07,2.91,1.46,1A24.08,24.08,0,0,0,106.82,318.15Z" transform="translate(0 -1.46)" style="fill:#8a6c93"/><path d="M101.18,295.18v-3.52h.37a.16.16,0,0,1,.17.13l0,.38a2,2,0,0,1,.51-.41,1.39,1.39,0,0,1,.65-.16,1.29,1.29,0,0,1,.51.1.91.91,0,0,1,.37.27,1.22,1.22,0,0,1,.23.42,1.93,1.93,0,0,1,.07.55v2.24h-.61v-2.24a1,1,0,0,0-.19-.62.68.68,0,0,0-.56-.22,1,1,0,0,0-.51.13,1.66,1.66,0,0,0-.44.36v2.59Z" transform="translate(0 -1.46)" style="fill:#8a6c93"/><path d="M105.05,296.38v-4.72h.37a.16.16,0,0,1,.17.13l0,.42a1.86,1.86,0,0,1,.52-.45,1.3,1.3,0,0,1,.67-.16,1.42,1.42,0,0,1,.55.11,1.27,1.27,0,0,1,.42.35,1.71,1.71,0,0,1,.26.56,2.68,2.68,0,0,1,.1.78,2.36,2.36,0,0,1-.11.72,1.82,1.82,0,0,1-.3.59,1.43,1.43,0,0,1-.47.38,1.37,1.37,0,0,1-.64.14,1.19,1.19,0,0,1-.56-.11,1.21,1.21,0,0,1-.41-.3v1.56Zm1.57-4.28a.93.93,0,0,0-.53.14,1.53,1.53,0,0,0-.42.39v1.71a1,1,0,0,0,.37.32,1.14,1.14,0,0,0,.46.09.85.85,0,0,0,.75-.35,1.61,1.61,0,0,0,.27-1,2.49,2.49,0,0,0-.06-.59,1.11,1.11,0,0,0-.18-.41.77.77,0,0,0-.28-.23A.92.92,0,0,0,106.62,292.1Z" transform="translate(0 -1.46)" style="fill:#8a6c93"/><path d="M108.89,295.18v-3.52h.37a.16.16,0,0,1,.17.13l0,.36a1.79,1.79,0,0,1,.44-.39,1,1,0,0,1,.56-.16.85.85,0,0,1,.58.2,1.12,1.12,0,0,1,.32.54,1.06,1.06,0,0,1,.19-.33,1.18,1.18,0,0,1,.27-.23,1,1,0,0,1,.32-.13,1.33,1.33,0,0,1,.34,0,1.31,1.31,0,0,1,.5.09,1.08,1.08,0,0,1,.37.26,1.22,1.22,0,0,1,.23.42,2,2,0,0,1,.08.57v2.24h-.62v-2.24a1,1,0,0,0-.18-.63.66.66,0,0,0-.53-.21.93.93,0,0,0-.29,0,.78.78,0,0,0-.24.16.76.76,0,0,0-.16.26,1.06,1.06,0,0,0-.07.37v2.24H111v-2.24a1,1,0,0,0-.18-.63.58.58,0,0,0-.49-.21.8.8,0,0,0-.43.12,1.43,1.43,0,0,0-.36.34v2.62Z" transform="translate(0 -1.46)" style="fill:#8a6c93"/><g style="opacity:0.27"><path d="M146,236.72a24.22,24.22,0,1,1,24.22,24.22A24.24,24.24,0,0,1,146,236.72Zm3.57,0a20.65,20.65,0,1,0,20.65-20.65A20.67,20.67,0,0,0,149.57,236.72Z" transform="translate(0 -1.46)" style="fill:#bec3d6"/></g><path d="M170.22,260.94a24.22,24.22,0,0,0,0-48.44h-1.79v3.57h1.79a20.65,20.65,0,1,1-20.65,20.65,20.42,20.42,0,0,1,.75-5.52l.48-1.72-3.45-1-.48,1.72a24.26,24.26,0,0,0,23.35,30.7Z" transform="translate(0 -1.46)" style="fill:#8a6c93"/><path d="M164.35,236.53,161,231.65h1.35a.42.42,0,0,1,.22,0,.44.44,0,0,1,.13.14l2.61,4q.06-.15.15-.33l2.47-3.66a.56.56,0,0,1,.14-.16.28.28,0,0,1,.18-.06h1.29l-3.32,4.82,3.43,5.21h-1.34a.32.32,0,0,1-.24-.08.65.65,0,0,1-.15-.18l-2.68-4.2c0,.09-.08.19-.13.28l-2.62,3.92a.86.86,0,0,1-.14.18.3.3,0,0,1-.23.08H160.9Z" transform="translate(0 -1.46)" style="fill:#8a6c93"/><path d="M179.72,236.67a5.62,5.62,0,0,1-.36,2.05,4.46,4.46,0,0,1-1,1.58,4.4,4.4,0,0,1-1.56,1,5.44,5.44,0,0,1-2,.36H171v-10h3.76a5.44,5.44,0,0,1,2,.36,4.4,4.4,0,0,1,1.56,1,4.51,4.51,0,0,1,1,1.59A5.58,5.58,0,0,1,179.72,236.67Zm-1.4,0a4.93,4.93,0,0,0-.25-1.65,3.51,3.51,0,0,0-.71-1.24,3.16,3.16,0,0,0-1.12-.77,4,4,0,0,0-1.46-.26h-2.39v7.83h2.39a4,4,0,0,0,1.46-.26,3.16,3.16,0,0,0,1.12-.77,3.37,3.37,0,0,0,.71-1.23A5,5,0,0,0,178.32,236.67Z" transform="translate(0 -1.46)" style="fill:#8a6c93"/><g style="opacity:0.27"><path d="M146,293.93a24.22,24.22,0,1,1,24.22,24.22A24.24,24.24,0,0,1,146,293.93Zm3.57,0a20.65,20.65,0,1,0,20.65-20.65A20.67,20.67,0,0,0,149.57,293.93Z" transform="translate(0 -1.46)" style="fill:#bec3d6"/></g><path d="M168.43,318.15h1.79a24.22,24.22,0,0,0,0-48.44h-1.79v3.57h1.79a20.65,20.65,0,1,1,0,41.29h-1.79Z" transform="translate(0 -1.46)" style="fill:#8a6c93"/><path d="M173.06,297.64H172a.44.44,0,0,1-.29-.09.55.55,0,0,1-.17-.23l-.94-2.42h-4.5l-.94,2.42a.51.51,0,0,1-.17.22.41.41,0,0,1-.29.1h-1.05l4-10h1.38Zm-6.57-3.72h3.74l-1.57-4.09a6.57,6.57,0,0,1-.3-.94c-.05.19-.11.37-.15.53s-.1.3-.15.42Z" transform="translate(0 -1.46)" style="fill:#8a6c93"/><path d="M175.8,288.32a.77.77,0,0,1-.08.34.92.92,0,0,1-.19.28.81.81,0,0,1-.29.19.77.77,0,0,1-.34.07.8.8,0,0,1-.34-.07.87.87,0,0,1-.28-.19.92.92,0,0,1-.19-.28.86.86,0,0,1,0-.68,1,1,0,0,1,.19-.29.87.87,0,0,1,.28-.19.8.8,0,0,1,.34-.07.77.77,0,0,1,.34.07.81.81,0,0,1,.29.19,1,1,0,0,1,.19.29A.77.77,0,0,1,175.8,288.32Zm-.28,2.23v7.09h-1.25v-7.09Z" transform="translate(0 -1.46)" style="fill:#8a6c93"/><path d="M145.92,179.35a24.22,24.22,0,1,1,24.22,24.22A24.24,24.24,0,0,1,145.92,179.35Zm3.58,0a20.65,20.65,0,1,0,20.64-20.65A20.66,20.66,0,0,0,149.5,179.35Z" transform="translate(0 -1.46)" style="fill:#bec3d6;opacity:0.27"/><path d="M170.14,203.57a24.22,24.22,0,1,0,0-48.44h-1.79v3.57h1.79a20.64,20.64,0,1,1-12.1,3.92l1.45-1.05-2.1-2.9-1.45,1.05a24.23,24.23,0,0,0,14.2,43.85Z" transform="translate(0 -1.46)" style="fill:#8a6c93"/><path d="M159,179.56a1.46,1.46,0,0,0,.07.19,1.07,1.07,0,0,1,.07-.19.76.76,0,0,1,.09-.18l1.68-3.06a.19.19,0,0,1,.1-.1l.14,0h.5v5H161v-3.67a.81.81,0,0,1,0-.15,1,1,0,0,1,0-.17l-1.71,3.12a.27.27,0,0,1-.24.15H159a.27.27,0,0,1-.25-.15L157,177.19c0,.06,0,.12,0,.17a1,1,0,0,1,0,.16v3.67h-.59v-5h.49l.14,0s.07,0,.1.1l1.72,3.07Z" transform="translate(0 -1.46)" style="fill:#8a6c93"/><path d="M164.74,178.25a.14.14,0,0,1-.13.07.24.24,0,0,1-.12,0l-.16-.08-.23-.09a.93.93,0,0,0-.31,0,.82.82,0,0,0-.28,0,.54.54,0,0,0-.35.27.46.46,0,0,0,0,.2.36.36,0,0,0,.08.23.57.57,0,0,0,.21.15,1.1,1.1,0,0,0,.29.12l.34.11.33.13a.92.92,0,0,1,.29.17.75.75,0,0,1,.21.26.8.8,0,0,1,.08.36,1.13,1.13,0,0,1-.09.45.93.93,0,0,1-.26.36,1.27,1.27,0,0,1-.41.24,2,2,0,0,1-.57.08,1.78,1.78,0,0,1-.67-.12,1.81,1.81,0,0,1-.51-.3l.15-.24s0-.05.06-.07a.16.16,0,0,1,.1,0,.25.25,0,0,1,.14,0,1.11,1.11,0,0,0,.16.11,1.33,1.33,0,0,0,.24.11,1.25,1.25,0,0,0,.36.05,1,1,0,0,0,.31-.05.58.58,0,0,0,.23-.13.38.38,0,0,0,.13-.18.54.54,0,0,0,.05-.22.36.36,0,0,0-.08-.24.6.6,0,0,0-.21-.17l-.29-.12-.34-.1-.34-.13a1.19,1.19,0,0,1-.29-.18.75.75,0,0,1-.21-.26.93.93,0,0,1-.08-.39.92.92,0,0,1,.09-.39.82.82,0,0,1,.24-.32,1.26,1.26,0,0,1,.39-.23,1.8,1.8,0,0,1,.54-.08,1.52,1.52,0,0,1,.62.11,1.5,1.5,0,0,1,.48.3Z" transform="translate(0 -1.46)" style="fill:#8a6c93"/><path d="M171.81,178.7a3.13,3.13,0,0,1-.17,1,2.29,2.29,0,0,1-.51.8,2.06,2.06,0,0,1-.77.52,2.56,2.56,0,0,1-1,.19,2.51,2.51,0,0,1-1-.19,2.06,2.06,0,0,1-.77-.52,2.29,2.29,0,0,1-.51-.8,3.13,3.13,0,0,1-.17-1,3,3,0,0,1,.17-1,2.42,2.42,0,0,1,.51-.81,2.35,2.35,0,0,1,.77-.53,2.7,2.7,0,0,1,1-.18,2.75,2.75,0,0,1,1,.18,2.35,2.35,0,0,1,.77.53,2.42,2.42,0,0,1,.51.81A3,3,0,0,1,171.81,178.7Zm-.69,0a2.68,2.68,0,0,0-.12-.83,2,2,0,0,0-.36-.62,1.59,1.59,0,0,0-.56-.38,1.95,1.95,0,0,0-1.45,0,1.59,1.59,0,0,0-.56.38,1.66,1.66,0,0,0-.36.62,2.68,2.68,0,0,0-.12.83,2.62,2.62,0,0,0,.12.82,1.66,1.66,0,0,0,.36.62,1.59,1.59,0,0,0,.56.38,1.95,1.95,0,0,0,1.45,0,1.59,1.59,0,0,0,.56-.38,2,2,0,0,0,.36-.62A2.62,2.62,0,0,0,171.12,178.7Z" transform="translate(0 -1.46)" style="fill:#8a6c93"/><path d="M172.78,181.19v-3l-.39,0a.23.23,0,0,1-.12-.06.12.12,0,0,1-.05-.1v-.26h.56v-.34a1.8,1.8,0,0,1,.08-.54,1.14,1.14,0,0,1,.25-.39,1,1,0,0,1,.38-.25,1.54,1.54,0,0,1,.5-.08,1.27,1.27,0,0,1,.44.07l0,.31a.08.08,0,0,1-.06.08l-.15,0h-.11a.88.88,0,0,0-.29,0,.65.65,0,0,0-.23.13.68.68,0,0,0-.14.25,1.35,1.35,0,0,0-.05.38v.32h1v.45h-1v3Z" transform="translate(0 -1.46)" style="fill:#8a6c93"/><path d="M175.12,181.19v-3l-.39,0a.23.23,0,0,1-.12-.06.12.12,0,0,1,0-.1v-.26h.55v-.19a1.78,1.78,0,0,1,.1-.59,1.25,1.25,0,0,1,.31-.47,1.31,1.31,0,0,1,.5-.3,2.1,2.1,0,0,1,.7-.11l.27,0,.24,0,0,.32a.09.09,0,0,1,0,.06h-.28a1.32,1.32,0,0,0-.9.26,1,1,0,0,0-.28.77v.17h2.13v3.46h-.62v-3h-1.48v3Z" transform="translate(0 -1.46)" style="fill:#8a6c93"/><path d="M181.35,178.29s0,0,0,.06l-.08,0a.17.17,0,0,1-.11,0l-.16-.1-.23-.1a1.49,1.49,0,0,0-.33,0,1.06,1.06,0,0,0-.45.09,1,1,0,0,0-.33.27,1.38,1.38,0,0,0-.21.42,2.38,2.38,0,0,0-.06.55,1.93,1.93,0,0,0,.07.57,1.37,1.37,0,0,0,.2.42.93.93,0,0,0,.33.26,1.09,1.09,0,0,0,.79,0,.83.83,0,0,0,.25-.12l.16-.12a.21.21,0,0,1,.12-.05.12.12,0,0,1,.12.06l.18.22a1.42,1.42,0,0,1-.58.42,2.2,2.2,0,0,1-.73.13,1.54,1.54,0,0,1-.61-.12,1.45,1.45,0,0,1-.49-.36,1.59,1.59,0,0,1-.33-.57,2.26,2.26,0,0,1-.12-.77,2.36,2.36,0,0,1,.11-.72,1.55,1.55,0,0,1,.32-.58,1.43,1.43,0,0,1,.52-.38,1.76,1.76,0,0,1,.71-.13,1.64,1.64,0,0,1,.65.12,1.57,1.57,0,0,1,.51.34Z" transform="translate(0 -1.46)" style="fill:#8a6c93"/><path d="M183.6,177.61a1.57,1.57,0,0,1,.58.1,1.49,1.49,0,0,1,.46.31,1.52,1.52,0,0,1,.31.49,2,2,0,0,1,.11.67.43.43,0,0,1,0,.2.17.17,0,0,1-.12.05h-2.35a2.43,2.43,0,0,0,.09.58,1.46,1.46,0,0,0,.23.41,1.07,1.07,0,0,0,.35.25,1.29,1.29,0,0,0,.45.08,1.5,1.5,0,0,0,.4-.05l.3-.12.2-.12a.3.3,0,0,1,.14-.05.14.14,0,0,1,.12.06l.17.22a1.07,1.07,0,0,1-.27.25,1.87,1.87,0,0,1-.35.16,1.56,1.56,0,0,1-.37.1,1.72,1.72,0,0,1-.39,0,1.63,1.63,0,0,1-.67-.13,1.42,1.42,0,0,1-.54-.36,1.88,1.88,0,0,1-.35-.59,2.47,2.47,0,0,1-.12-.81,2.15,2.15,0,0,1,.11-.68,1.73,1.73,0,0,1,.33-.56,1.41,1.41,0,0,1,.52-.37A1.67,1.67,0,0,1,183.6,177.61Zm0,.45a1,1,0,0,0-.71.26,1.26,1.26,0,0,0-.32.72h1.92a1.23,1.23,0,0,0-.06-.39.92.92,0,0,0-.17-.31.83.83,0,0,0-.28-.21A1.12,1.12,0,0,0,183.61,178.06Z" transform="translate(0 -1.46)" style="fill:#8a6c93"/></g></g></svg>