<svg xmlns="http://www.w3.org/2000/svg" width="134.287" height="134.287" viewBox="0 0 134.287 134.287"><defs><style>.a{opacity:0.27;}.b,.c{fill:#1d212e;}.c{font-size:28px;font-family:Comfortaa;font-weight:700;}</style></defs><g transform="translate(-0.287 -0.039)"><g transform="translate(0.287 0.039)"><g class="a"><path class="b" d="M127.9,181.744a67.144,67.144,0,1,1,67.144,67.144A67.2,67.2,0,0,1,127.9,181.744Zm9.988,0a57.155,57.155,0,1,0,57.155-57.155A57.252,57.252,0,0,0,137.888,181.744Z" transform="translate(-127.9 -114.6)"/></g><g transform="translate(62.149)"><path class="b" d="M150.3,248.887h4.994a67.144,67.144,0,0,0,0-134.287H150.3v9.988h4.994a57.155,57.155,0,0,1,0,114.311H150.3Z" transform="translate(-150.3 -114.6)"/></g></g><g transform="translate(49.177 39.601)"><text class="c" transform="translate(4.11 36.438)"><tspan x="0" y="0">Ai</tspan></text></g></g></svg>