<svg xmlns="http://www.w3.org/2000/svg" viewBox="0 0 204.67 192.1"><defs><style>.a{fill:#cd8c4f;}</style></defs><title>check-icon</title><path class="a" d="M0,116.91c1.2-1.25,2.45-2.66,3.82-4a57.62,57.62,0,0,1,12-8.88,31.88,31.88,0,0,1,10.44-3.59,12.6,12.6,0,0,1,10.57,3.21A44.68,44.68,0,0,1,45,113.55,141.34,141.34,0,0,1,55.23,133l3.59,8c.16-.24.28-.42.39-.6q9.5-15.7,20.49-30.42,9.4-12.63,19.72-24.51A497.55,497.55,0,0,1,135.1,48.43c8.27-7.75,16.82-15.19,25.7-22.23A299.87,299.87,0,0,1,197.93.81c.41-.24.83-.46,1.24-.71.22-.14.37-.15.54.09l5,7c-1,.8-2.08,1.58-3.1,2.37-6.38,4.94-12.46,10.23-18.34,15.74-7.18,6.73-14,13.78-20.69,21-6.28,6.85-12.37,13.89-18.3,21q-12.6,15.23-24.35,31.12a508.31,508.31,0,0,0-33.22,50.68c-3.88,6.82-7.56,13.75-11,20.82a3.83,3.83,0,0,1-1.41,1.6C67.87,176,61.4,180.36,55,184.87c-3.08,2.18-5.95,4.66-8.92,7l-.29.23c-.33-1-.63-2-1-3-2.75-8.12-6-16-9.43-23.89-3-7-6.11-14-9.7-20.82A99.34,99.34,0,0,0,17,130.21,40.23,40.23,0,0,0,5.72,119.82C3.85,118.72,1.84,117.84,0,116.91Z"/></svg>