<svg xmlns="http://www.w3.org/2000/svg" width="134.565" height="134.287" viewBox="0 0 134.565 134.287"><defs><style>.a,.c,.d{fill:#1d212e;}.a{opacity:0.27;}.b{fill:none;stroke:#020203;stroke-linecap:square;stroke-miterlimit:10;stroke-width:3.577px;}.d{font-size:16px;font-family:Comfortaa;font-weight:700;}</style></defs><g transform="translate(-0.25 -0.02)"><g transform="translate(0.25 0.02)"><path class="a" d="M64.1,124.444a67.144,67.144,0,1,1,67.144,67.144A67.2,67.2,0,0,1,64.1,124.444Zm9.988,0a57.155,57.155,0,1,0,57.155-57.155C99.891,67.011,74.088,92.814,74.088,124.444Z" transform="translate(-64.1 -57.3)"/><g transform="translate(30.797 16.647)"><path class="b" d="M75.2,63.3" transform="translate(-75.2 -63.3)"/></g><g transform="translate(0.276)"><path class="c" d="M131.345,191.587a67.144,67.144,0,1,0,0-134.287h-4.994v9.988h4.994A57,57,0,1,1,97.773,78.109l3.884-2.775-5.826-8.046-3.884,2.775A67.045,67.045,0,0,0,64.2,124.444C63.924,161.345,94.166,191.587,131.345,191.587Z" transform="translate(-64.199 -57.3)"/></g></g><g transform="translate(32.483 42.438)"><g transform="translate(0 1)"><text class="d" transform="translate(7.767 19.582)"><tspan x="0" y="0">Cocoa</tspan></text><text class="d" transform="translate(14.767 36.888)"><tspan x="0" y="0">Pods</tspan></text></g></g></g></svg>