<svg xmlns="http://www.w3.org/2000/svg" width="134.565" height="134.287" viewBox="0 0 134.565 134.287"><defs><style>.a{opacity:0.27;}.b,.d{fill:#1d212e;}.c{fill:none;stroke:#8a6c93;stroke-linecap:square;stroke-miterlimit:10;stroke-width:3.577px;}.d{font-size:16px;font-family:Comfortaa;font-weight:700;}</style></defs><g transform="translate(-0.25)"><g transform="translate(0.25)"><g class="a"><path class="b" d="M64.1,67.144C64.1,30.242,94.342,0,131.521,0a67.144,67.144,0,0,1,0,134.287C94.62,134.287,64.1,104.322,64.1,67.144Zm9.988,0A57.155,57.155,0,1,0,131.244,9.988,57.252,57.252,0,0,0,74.088,67.144Z" transform="translate(-64.1)"/></g><g transform="translate(7.214 50.496)"><path class="c" d="M66.7,18.2" transform="translate(-66.7 -18.2)"/></g><path class="b" d="M131.521,134.287A67.144,67.144,0,0,0,131.521,0h-4.994V9.988h4.994A57.155,57.155,0,1,1,74.366,67.144a69.649,69.649,0,0,1,1.942-15.26L77.7,47.167l-9.433-2.775L66.6,49.109a65.81,65.81,0,0,0-2.5,18.034A67.257,67.257,0,0,0,131.521,134.287Z" transform="translate(-64.1)"/></g><g transform="translate(12.858 40.199)"><g transform="translate(2 -3)"><text class="d" transform="translate(38.392 34.801)"><tspan x="0" y="0">GIT</tspan></text></g></g></g></svg>