<svg xmlns="http://www.w3.org/2000/svg" viewBox="0 0 274 67.62"><title>languages</title><g id="Layer_2" data-name="Layer 2"><g id="Layer_1-2" data-name="Layer 1"><rect y="36.5" width="127.56" height="5.99" style="fill:#fff;opacity:0.33"/><rect y="36.5" width="114.8" height="5.99" style="fill:#1d212e"/><path d="M10.51,34.85H9.37a.47.47,0,0,1-.32-.1.55.55,0,0,1-.18-.24l-.59-1.62H5l-.59,1.62a.51.51,0,0,1-.18.24.52.52,0,0,1-.31.1H2.75l3.12-8H7.39Zm-5.15-3H7.9l-1-2.65c0-.12-.09-.25-.15-.41s-.1-.34-.15-.52c0,.18-.11.36-.16.52a3,3,0,0,1-.14.42Z" transform="translate(-2.71 -1.52)" style="fill:#1d1d1b"/><path d="M12.7,26.68v8.17H11.34V26.68Z" transform="translate(-2.71 -1.52)" style="fill:#1d1d1b"/><path d="M15.68,26.68v8.17H14.32V26.68Z" transform="translate(-2.71 -1.52)" style="fill:#1d1d1b"/><path d="M19.54,29.12a2.86,2.86,0,0,1,1,.17,2.09,2.09,0,0,1,.77.5,2.24,2.24,0,0,1,.51.8A3.08,3.08,0,0,1,22,31.68a1.69,1.69,0,0,1,0,.25.34.34,0,0,1,0,.16.14.14,0,0,1-.09.08.35.35,0,0,1-.16,0H18.19a1.93,1.93,0,0,0,.46,1.27,1.45,1.45,0,0,0,1.08.41,1.64,1.64,0,0,0,.57-.08,2,2,0,0,0,.42-.17l.31-.17a.54.54,0,0,1,.26-.07.33.33,0,0,1,.15,0,.28.28,0,0,1,.1.09l.4.5a2.38,2.38,0,0,1-.51.44,2.62,2.62,0,0,1-.58.29,3.4,3.4,0,0,1-.63.15,4.26,4.26,0,0,1-.61,0,3,3,0,0,1-1.09-.19,2.5,2.5,0,0,1-.88-.58,2.69,2.69,0,0,1-.59-.95,3.69,3.69,0,0,1-.22-1.3A3.24,3.24,0,0,1,17,30.82a2.55,2.55,0,0,1,.54-.88,2.38,2.38,0,0,1,.85-.6A2.75,2.75,0,0,1,19.54,29.12Zm0,1a1.25,1.25,0,0,0-.93.34,1.72,1.72,0,0,0-.43.95h2.56a1.64,1.64,0,0,0-.08-.5,1.09,1.09,0,0,0-.22-.41,1,1,0,0,0-.37-.28A1.43,1.43,0,0,0,19.57,30.09Z" transform="translate(-2.71 -1.52)" style="fill:#1d1d1b"/><path d="M23.09,34.85V29.21h.83a.34.34,0,0,1,.35.24l.09.42a2.91,2.91,0,0,1,.31-.3,2.16,2.16,0,0,1,.35-.24,1.66,1.66,0,0,1,.39-.15,1.73,1.73,0,0,1,.47-.06,1.27,1.27,0,0,1,.87.29,1.81,1.81,0,0,1,.52.76,2,2,0,0,1,.33-.48,1.66,1.66,0,0,1,.43-.32,1.84,1.84,0,0,1,.51-.19,2.33,2.33,0,0,1,.53-.06,2.37,2.37,0,0,1,.83.14,1.66,1.66,0,0,1,.61.42,1.83,1.83,0,0,1,.38.67,2.82,2.82,0,0,1,.13.91v3.59H29.66V31.26a1.19,1.19,0,0,0-.24-.81.85.85,0,0,0-.69-.28,1,1,0,0,0-.39.08.79.79,0,0,0-.31.2,1,1,0,0,0-.21.34,1.36,1.36,0,0,0-.08.47v3.59H26.38V31.26a1.27,1.27,0,0,0-.23-.83.87.87,0,0,0-.68-.26,1,1,0,0,0-.54.15,2,2,0,0,0-.48.4v4.13Z" transform="translate(-2.71 -1.52)" style="fill:#1d1d1b"/><path d="M36.78,34.85h-.61a.68.68,0,0,1-.31-.06.38.38,0,0,1-.16-.23l-.12-.4-.42.34a3.62,3.62,0,0,1-.43.24,1.84,1.84,0,0,1-.47.15,3,3,0,0,1-.55,0,2,2,0,0,1-.66-.1,1.4,1.4,0,0,1-.52-.29,1.37,1.37,0,0,1-.33-.48,1.54,1.54,0,0,1-.13-.67,1.35,1.35,0,0,1,.17-.63,1.57,1.57,0,0,1,.56-.56,3.51,3.51,0,0,1,1-.42,6.67,6.67,0,0,1,1.61-.16v-.34a1.24,1.24,0,0,0-.24-.84.88.88,0,0,0-.69-.28,1.68,1.68,0,0,0-.55.08,2.4,2.4,0,0,0-.39.17,2.38,2.38,0,0,1-.3.18.6.6,0,0,1-.3.07.35.35,0,0,1-.23-.07.44.44,0,0,1-.16-.17L32.34,30a3.37,3.37,0,0,1,2.35-.89,2.42,2.42,0,0,1,.88.16,1.83,1.83,0,0,1,.66.46,2,2,0,0,1,.41.69,2.71,2.71,0,0,1,.14.88ZM34.14,34a1.53,1.53,0,0,0,.38,0,1.17,1.17,0,0,0,.33-.11,1.44,1.44,0,0,0,.31-.19,3.22,3.22,0,0,0,.29-.26v-.94a5.52,5.52,0,0,0-1,.07,2.92,2.92,0,0,0-.64.19.92.92,0,0,0-.35.27.7.7,0,0,0-.1.34.62.62,0,0,0,.21.52A1,1,0,0,0,34.14,34Z" transform="translate(-2.71 -1.52)" style="fill:#1d1d1b"/><path d="M38.11,34.85V29.21h.83a.33.33,0,0,1,.35.24l.09.45c.12-.12.24-.22.36-.32a2.8,2.8,0,0,1,.41-.25,2.18,2.18,0,0,1,.45-.16,2.89,2.89,0,0,1,.53-.05,1.94,1.94,0,0,1,.82.16,1.53,1.53,0,0,1,.59.44,2,2,0,0,1,.37.67,3,3,0,0,1,.12.87v3.59H41.67V31.26a1.19,1.19,0,0,0-.24-.8.89.89,0,0,0-.72-.29,1.45,1.45,0,0,0-.65.16,2.38,2.38,0,0,0-.59.44v4.08Z" transform="translate(-2.71 -1.52)" style="fill:#1d1d1b"/><path d="M48.34,34.85A.34.34,0,0,1,48,34.6l-.11-.54a4.17,4.17,0,0,1-.37.36,2.9,2.9,0,0,1-.41.27,2,2,0,0,1-.48.18,2.44,2.44,0,0,1-.55.06,1.81,1.81,0,0,1-1.51-.75,2.51,2.51,0,0,1-.43-.9A4.63,4.63,0,0,1,44,32a3.66,3.66,0,0,1,.17-1.16,2.72,2.72,0,0,1,.49-.94,2.14,2.14,0,0,1,.76-.61,2.2,2.2,0,0,1,1-.23,2,2,0,0,1,.81.15,2.21,2.21,0,0,1,.6.41v-3h1.36v8.17Zm-1.81-1a1.37,1.37,0,0,0,.72-.17,2.35,2.35,0,0,0,.56-.5V30.65a1.32,1.32,0,0,0-.5-.4,1.47,1.47,0,0,0-.59-.11,1.3,1.3,0,0,0-.56.11,1.18,1.18,0,0,0-.42.35,1.66,1.66,0,0,0-.27.6,3.43,3.43,0,0,0-.09.84,3.92,3.92,0,0,0,.08.84,1.52,1.52,0,0,0,.23.56.91.91,0,0,0,.36.32A1.21,1.21,0,0,0,46.53,33.85Z" transform="translate(-2.71 -1.52)" style="fill:#1d1d1b"/><rect y="61.63" width="127.56" height="5.99" style="fill:#fff;opacity:0.33"/><rect y="61.63" width="121.18" height="5.99" style="fill:#1d212e"/><path d="M7.94,52.06v1.18H4.42v2.35h3v1.19h-3V60H2.93V52.06Z" transform="translate(-2.71 -1.52)" style="fill:#1d1d1b"/><path d="M8.7,60V54.37h.79a.47.47,0,0,1,.3.08.42.42,0,0,1,.1.26l.09.68a2.74,2.74,0,0,1,.71-.82,1.48,1.48,0,0,1,.91-.3,1.15,1.15,0,0,1,.69.19l-.17,1a.22.22,0,0,1-.08.14.26.26,0,0,1-.14,0,.79.79,0,0,1-.23,0,1.29,1.29,0,0,0-.38,0,1.12,1.12,0,0,0-.72.24,1.69,1.69,0,0,0-.52.68V60Z" transform="translate(-2.71 -1.52)" style="fill:#1d1d1b"/><path d="M17.45,60h-.61a.62.62,0,0,1-.3,0,.38.38,0,0,1-.17-.24l-.12-.4a4.18,4.18,0,0,1-.42.34,2.25,2.25,0,0,1-.42.24,2,2,0,0,1-.47.15,2.39,2.39,0,0,1-.55.05,2.29,2.29,0,0,1-.66-.09,1.63,1.63,0,0,1-.52-.29,1.27,1.27,0,0,1-.34-.48,1.78,1.78,0,0,1-.12-.67,1.22,1.22,0,0,1,.17-.63,1.51,1.51,0,0,1,.56-.57,3.73,3.73,0,0,1,1-.41,6.7,6.7,0,0,1,1.62-.17v-.33a1.29,1.29,0,0,0-.24-.85.88.88,0,0,0-.7-.27,1.73,1.73,0,0,0-.55.08,2.27,2.27,0,0,0-.38.17l-.3.17a.61.61,0,0,1-.3.08.4.4,0,0,1-.24-.07.55.55,0,0,1-.16-.18L13,55.16a3.34,3.34,0,0,1,2.35-.89,2.19,2.19,0,0,1,.88.16,1.93,1.93,0,0,1,.66.45,1.84,1.84,0,0,1,.41.69,2.5,2.5,0,0,1,.14.88Zm-2.64-.84a1.61,1.61,0,0,0,.39,0,2.13,2.13,0,0,0,.33-.11,2.49,2.49,0,0,0,.3-.19,3.48,3.48,0,0,0,.3-.26v-1a5.53,5.53,0,0,0-1,.08,2.58,2.58,0,0,0-.64.19.88.88,0,0,0-.34.27.68.68,0,0,0,.11.85A.86.86,0,0,0,14.81,59.17Z" transform="translate(-2.71 -1.52)" style="fill:#1d1d1b"/><path d="M18.79,60V54.37h.83a.32.32,0,0,1,.34.25l.1.44a2.67,2.67,0,0,1,.36-.31,2.06,2.06,0,0,1,.4-.25,2.18,2.18,0,0,1,.45-.16,2.2,2.2,0,0,1,.53-.06,2.1,2.1,0,0,1,.82.16,1.56,1.56,0,0,1,.6.44,1.84,1.84,0,0,1,.36.68,2.93,2.93,0,0,1,.12.86V60H22.35V56.42a1.21,1.21,0,0,0-.24-.8.89.89,0,0,0-.72-.28,1.34,1.34,0,0,0-.66.16,2.36,2.36,0,0,0-.58.43V60Z" transform="translate(-2.71 -1.52)" style="fill:#1d1d1b"/><path d="M26.54,61.26h.08l.1,0,.11,0H27a.41.41,0,0,0,.27-.07.19.19,0,0,0,.1-.17c0-.1-.07-.18-.2-.22a3.25,3.25,0,0,0-.61-.13l.21-.69a2.26,2.26,0,0,1-.83-.31,2.46,2.46,0,0,1-.66-.59,2.79,2.79,0,0,1-.44-.86,3.61,3.61,0,0,1-.16-1.12A3.55,3.55,0,0,1,24.84,56a2.55,2.55,0,0,1,.53-.92,2.4,2.4,0,0,1,.85-.61,3.1,3.1,0,0,1,1.18-.22,2.75,2.75,0,0,1,1.11.21,2.57,2.57,0,0,1,.85.58l-.35.5-.12.12a.29.29,0,0,1-.17,0,.36.36,0,0,1-.2-.06l-.24-.15a1.72,1.72,0,0,0-.33-.14,1.53,1.53,0,0,0-.47-.06,1.38,1.38,0,0,0-.62.13,1.15,1.15,0,0,0-.45.37,1.64,1.64,0,0,0-.27.58,3.1,3.1,0,0,0-.09.78,3.32,3.32,0,0,0,.1.81,1.7,1.7,0,0,0,.28.59,1.17,1.17,0,0,0,.44.36A1.6,1.6,0,0,0,28,59a1.69,1.69,0,0,0,.33-.17l.24-.18a.4.4,0,0,1,.23-.08.3.3,0,0,1,.25.13l.39.49a2.39,2.39,0,0,1-.85.66,3.45,3.45,0,0,1-1,.25l-.07.24a1.48,1.48,0,0,1,.69.32.7.7,0,0,1,.2.49.56.56,0,0,1-.1.33.73.73,0,0,1-.27.25,1.6,1.6,0,0,1-.42.17,2.39,2.39,0,0,1-.55,0,2.64,2.64,0,0,1-.81-.12l.13-.42A.15.15,0,0,1,26.54,61.26Z" transform="translate(-2.71 -1.52)" style="fill:#1d1d1b"/><path d="M34.71,60H34.1a.62.62,0,0,1-.3,0,.38.38,0,0,1-.17-.24l-.12-.4a4.18,4.18,0,0,1-.42.34,2,2,0,0,1-.43.24,1.77,1.77,0,0,1-.46.15,2.39,2.39,0,0,1-.55.05A2.29,2.29,0,0,1,31,60a1.63,1.63,0,0,1-.52-.29,1.27,1.27,0,0,1-.34-.48,1.78,1.78,0,0,1-.12-.67,1.22,1.22,0,0,1,.17-.63,1.56,1.56,0,0,1,.55-.57,3.81,3.81,0,0,1,1-.41,6.67,6.67,0,0,1,1.61-.17v-.33a1.29,1.29,0,0,0-.23-.85.9.9,0,0,0-.7-.27,1.73,1.73,0,0,0-.55.08,2.27,2.27,0,0,0-.38.17l-.3.17a.61.61,0,0,1-.3.08.38.38,0,0,1-.24-.07.55.55,0,0,1-.16-.18l-.25-.43a3.33,3.33,0,0,1,2.35-.89,2.19,2.19,0,0,1,.88.16,1.93,1.93,0,0,1,.66.45,1.84,1.84,0,0,1,.41.69,2.75,2.75,0,0,1,.14.88Zm-2.64-.84a1.61,1.61,0,0,0,.39,0,2.13,2.13,0,0,0,.33-.11,2.49,2.49,0,0,0,.3-.19,2.35,2.35,0,0,0,.29-.26v-1a5.5,5.5,0,0,0-1,.08,2.58,2.58,0,0,0-.64.19.88.88,0,0,0-.34.27.68.68,0,0,0,.11.85A.86.86,0,0,0,32.07,59.17Z" transform="translate(-2.71 -1.52)" style="fill:#1d1d1b"/><path d="M37.7,52.73a.8.8,0,0,1-.08.33,1,1,0,0,1-.18.27,1.34,1.34,0,0,1-.28.18.86.86,0,0,1-.68,0,1.27,1.27,0,0,1-.27-.18.8.8,0,0,1-.18-.27.78.78,0,0,1-.07-.33.77.77,0,0,1,.07-.34.75.75,0,0,1,.18-.28.87.87,0,0,1,.95-.18.84.84,0,0,1,.28.18.9.9,0,0,1,.18.28A.77.77,0,0,1,37.7,52.73Zm-.21,1.64V60H36.13V54.37Z" transform="translate(-2.71 -1.52)" style="fill:#1d1d1b"/><path d="M42.38,55.47a.51.51,0,0,1-.12.13.33.33,0,0,1-.15,0,.54.54,0,0,1-.21-.05l-.27-.13-.33-.12a1.53,1.53,0,0,0-.45-.06,1,1,0,0,0-.63.17.54.54,0,0,0-.24.45.45.45,0,0,0,.12.31,1.11,1.11,0,0,0,.32.21,3.12,3.12,0,0,0,.44.17l.51.16.5.2a1.68,1.68,0,0,1,.44.29,1.3,1.3,0,0,1,.32.41,1.35,1.35,0,0,1,.12.59,1.86,1.86,0,0,1-.15.75,1.61,1.61,0,0,1-.44.59,1.9,1.9,0,0,1-.7.39,2.91,2.91,0,0,1-1,.14,3.66,3.66,0,0,1-.57-.05,2.46,2.46,0,0,1-.53-.15,2.26,2.26,0,0,1-.47-.22,1.92,1.92,0,0,1-.39-.27l.32-.52a.38.38,0,0,1,.14-.14.41.41,0,0,1,.21,0,.44.44,0,0,1,.24.07l.26.16a3.05,3.05,0,0,0,.35.15,1.46,1.46,0,0,0,.51.07,1.22,1.22,0,0,0,.41-.06,1,1,0,0,0,.29-.15.5.5,0,0,0,.16-.22.54.54,0,0,0,.06-.25.48.48,0,0,0-.12-.33,1.38,1.38,0,0,0-.32-.22,3.72,3.72,0,0,0-.44-.16l-.51-.17a2.85,2.85,0,0,1-.51-.2,1.77,1.77,0,0,1-.45-.3,1.21,1.21,0,0,1-.31-.45A1.52,1.52,0,0,1,38.7,56a1.5,1.5,0,0,1,.54-1.2,2.06,2.06,0,0,1,.67-.38,3,3,0,0,1,2,.06,2.32,2.32,0,0,1,.8.5Z" transform="translate(-2.71 -1.52)" style="fill:#1d1d1b"/><rect y="11.19" width="127.56" height="5.99" style="fill:#fff;opacity:0.33"/><rect y="11.19" width="121.18" height="5.99" style="fill:#1d212e"/><path d="M10.51,9.87H9.37a.53.53,0,0,1-.32-.1.55.55,0,0,1-.18-.24L8.28,7.91H5L4.39,9.53a.49.49,0,0,1-.18.23.47.47,0,0,1-.31.11H2.75l3.12-8H7.38Zm-5.15-3H7.9l-1-2.64c0-.12-.09-.26-.15-.42l-.16-.52c0,.19-.1.36-.15.53a3,3,0,0,1-.14.42Z" transform="translate(-2.71 -1.52)" style="fill:#1d1d1b"/><path d="M11.25,9.87V4.22h.83a.35.35,0,0,1,.35.25l.09.45a2.67,2.67,0,0,1,.36-.32,2.42,2.42,0,0,1,.4-.25,2.27,2.27,0,0,1,.46-.16,2.15,2.15,0,0,1,.53-.06,2.05,2.05,0,0,1,.81.16,1.67,1.67,0,0,1,.6.44,1.93,1.93,0,0,1,.36.68,2.63,2.63,0,0,1,.13.86v3.6H14.81V6.27a1.21,1.21,0,0,0-.24-.8.92.92,0,0,0-.72-.28,1.4,1.4,0,0,0-.66.16,2.34,2.34,0,0,0-.58.44V9.87Z" transform="translate(-2.71 -1.52)" style="fill:#1d1d1b"/><path d="M19.46,4.12a3,3,0,0,1,.68.08,2.12,2.12,0,0,1,.58.22h1.63v.5a.3.3,0,0,1-.07.2.41.41,0,0,1-.23.1l-.5.09c0,.1.06.2.08.3a1.87,1.87,0,0,1,0,.34,1.6,1.6,0,0,1-.17.76,1.68,1.68,0,0,1-.46.57,2.12,2.12,0,0,1-.7.37,3,3,0,0,1-.87.13,3.11,3.11,0,0,1-.62-.06.43.43,0,0,0-.27.36.27.27,0,0,0,.16.25,1.27,1.27,0,0,0,.41.11,5.09,5.09,0,0,0,.58,0l.67,0a4.77,4.77,0,0,1,.66.1,1.75,1.75,0,0,1,.58.22,1.12,1.12,0,0,1,.41.4,1.2,1.2,0,0,1,.16.66,1.58,1.58,0,0,1-.18.73,1.89,1.89,0,0,1-.54.63,2.72,2.72,0,0,1-.85.44,3.45,3.45,0,0,1-1.16.17,4.49,4.49,0,0,1-1.11-.12,2.51,2.51,0,0,1-.79-.33,1.49,1.49,0,0,1-.46-.48,1.12,1.12,0,0,1-.15-.56,1,1,0,0,1,.24-.66,1.56,1.56,0,0,1,.67-.43A1,1,0,0,1,17.53,9a1,1,0,0,1-.12-.5.78.78,0,0,1,0-.26,1.11,1.11,0,0,1,.13-.27,1.41,1.41,0,0,1,.56-.46,1.85,1.85,0,0,1-.68-.62,1.66,1.66,0,0,1-.24-.9,1.73,1.73,0,0,1,.17-.76,1.68,1.68,0,0,1,.46-.57,2.09,2.09,0,0,1,.71-.37A3.21,3.21,0,0,1,19.46,4.12Zm1.49,6a.41.41,0,0,0-.1-.27.73.73,0,0,0-.27-.17,1.57,1.57,0,0,0-.4-.08,3.64,3.64,0,0,0-.48,0h-.53a2.33,2.33,0,0,1-.53-.06,1.22,1.22,0,0,0-.37.3.63.63,0,0,0-.14.4.53.53,0,0,0,.08.27.63.63,0,0,0,.23.23,1.38,1.38,0,0,0,.42.14,3,3,0,0,0,.64.05,4,4,0,0,0,.65-.05,1.57,1.57,0,0,0,.45-.17.8.8,0,0,0,.27-.24A.69.69,0,0,0,21,10.1ZM19.46,6.91a1.5,1.5,0,0,0,.44-.07,1.08,1.08,0,0,0,.31-.19.79.79,0,0,0,.18-.29A1,1,0,0,0,20.46,6a.87.87,0,0,0-.25-.66,1.06,1.06,0,0,0-.75-.24,1,1,0,0,0-.75.24.87.87,0,0,0-.25.66,1.06,1.06,0,0,0,.06.37.73.73,0,0,0,.19.3.86.86,0,0,0,.31.19A1.45,1.45,0,0,0,19.46,6.91Z" transform="translate(-2.71 -1.52)" style="fill:#1d1d1b"/><path d="M24.64,1.69V9.87H23.29V1.69Z" transform="translate(-2.71 -1.52)" style="fill:#1d1d1b"/><path d="M30.6,9.87H30a.61.61,0,0,1-.3-.06.38.38,0,0,1-.17-.23l-.12-.41a4.18,4.18,0,0,1-.42.34,2.67,2.67,0,0,1-.43.25,2.24,2.24,0,0,1-.46.14,2.39,2.39,0,0,1-.55,0,2.29,2.29,0,0,1-.66-.09,1.38,1.38,0,0,1-.52-.29A1.27,1.27,0,0,1,26,9.09a1.74,1.74,0,0,1-.12-.67,1.34,1.34,0,0,1,.16-.63,1.58,1.58,0,0,1,.56-.56,3.51,3.51,0,0,1,1-.42,6.67,6.67,0,0,1,1.61-.17V6.31A1.24,1.24,0,0,0,29,5.47a.87.87,0,0,0-.7-.28,1.73,1.73,0,0,0-.55.08,2.27,2.27,0,0,0-.38.17l-.3.17a.55.55,0,0,1-.31.08.35.35,0,0,1-.23-.07.55.55,0,0,1-.16-.18L26.16,5a3.37,3.37,0,0,1,2.35-.89,2.23,2.23,0,0,1,.88.16,1.93,1.93,0,0,1,.66.45,1.84,1.84,0,0,1,.41.69,2.75,2.75,0,0,1,.14.88ZM28,9a1.48,1.48,0,0,0,.38,0,1.35,1.35,0,0,0,.34-.11,2.49,2.49,0,0,0,.3-.19,1.75,1.75,0,0,0,.29-.26v-1a5.5,5.5,0,0,0-1,.08,2.58,2.58,0,0,0-.64.19A.88.88,0,0,0,27.3,8a.68.68,0,0,0,.11.85A.86.86,0,0,0,28,9Z" transform="translate(-2.71 -1.52)" style="fill:#1d1d1b"/><path d="M33.59,2.58a.88.88,0,0,1-.07.33,1.31,1.31,0,0,1-.19.27,1,1,0,0,1-.28.18.86.86,0,0,1-.68,0,1,1,0,0,1-.27-.18,1,1,0,0,1-.18-.27.72.72,0,0,1-.07-.33.77.77,0,0,1,.07-.34A.9.9,0,0,1,32.1,2a1,1,0,0,1,.27-.18.86.86,0,0,1,.68,0,1,1,0,0,1,.28.18,1.15,1.15,0,0,1,.19.28A.94.94,0,0,1,33.59,2.58Zm-.21,1.64V9.87H32V4.22Z" transform="translate(-2.71 -1.52)" style="fill:#1d1d1b"/><path d="M38.27,5.32a.51.51,0,0,1-.12.13.33.33,0,0,1-.15,0,.54.54,0,0,1-.21-.05l-.26-.13-.34-.12a1.53,1.53,0,0,0-.45-.06,1,1,0,0,0-.63.18.5.5,0,0,0-.23.44.44.44,0,0,0,.11.31,1.11,1.11,0,0,0,.32.21,2.24,2.24,0,0,0,.44.17l.51.16.5.2a1.92,1.92,0,0,1,.45.29,1.48,1.48,0,0,1,.31.42,1.28,1.28,0,0,1,.12.58,1.86,1.86,0,0,1-.15.75,1.61,1.61,0,0,1-.44.59,1.9,1.9,0,0,1-.7.39,2.91,2.91,0,0,1-1,.14,2.75,2.75,0,0,1-.57,0,3.18,3.18,0,0,1-.53-.14c-.17-.07-.33-.14-.48-.22a2.88,2.88,0,0,1-.38-.28l.32-.52a.38.38,0,0,1,.14-.14.41.41,0,0,1,.21,0,.55.55,0,0,1,.24.07l.26.16a3.05,3.05,0,0,0,.35.15,1.46,1.46,0,0,0,.51.07A1.58,1.58,0,0,0,36.86,9a.81.81,0,0,0,.29-.16.54.54,0,0,0,.16-.21.62.62,0,0,0,.06-.26A.44.44,0,0,0,37.25,8a1,1,0,0,0-.32-.22,2.52,2.52,0,0,0-.44-.17L36,7.45a4.71,4.71,0,0,1-.52-.21,1.9,1.9,0,0,1-.44-.3,1.4,1.4,0,0,1-.31-.44,1.56,1.56,0,0,1-.12-.64,1.65,1.65,0,0,1,.13-.66,1.69,1.69,0,0,1,.41-.55,1.92,1.92,0,0,1,.66-.37,2.67,2.67,0,0,1,.93-.15,2.78,2.78,0,0,1,1.06.2,2.47,2.47,0,0,1,.8.5Z" transform="translate(-2.71 -1.52)" style="fill:#1d1d1b"/><rect x="146.44" y="11.12" width="127.56" height="6" style="fill:#fff;opacity:0.33"/><rect x="146.44" y="11.12" width="121.18" height="6" style="fill:#1d212e"/><path d="M150.09,6.37V9.48h-1.48v-8H151a5.13,5.13,0,0,1,1.39.17,2.64,2.64,0,0,1,.95.47,1.9,1.9,0,0,1,.55.72,2.56,2.56,0,0,1,.17.93,2.37,2.37,0,0,1-.12.76,2.12,2.12,0,0,1-.34.65,2.45,2.45,0,0,1-.55.51,2.65,2.65,0,0,1-.74.35,1.61,1.61,0,0,1,.48.46l2,2.94h-1.33a.67.67,0,0,1-.33-.08.68.68,0,0,1-.23-.22l-1.67-2.55a.63.63,0,0,0-.2-.2.77.77,0,0,0-.34-.06Zm0-1.06H151a2.24,2.24,0,0,0,.73-.11,1.27,1.27,0,0,0,.51-.29,1,1,0,0,0,.3-.43,1.47,1.47,0,0,0,.1-.56,1.13,1.13,0,0,0-.4-.93A1.92,1.92,0,0,0,151,2.67h-.95Z" transform="translate(-2.71 -1.52)" style="fill:#1d1d1b"/><path d="M156.93,3.83V7.42a1.19,1.19,0,0,0,.24.8.89.89,0,0,0,.72.28,1.52,1.52,0,0,0,.66-.15,2.56,2.56,0,0,0,.58-.43V3.83h1.36V9.48h-.83a.35.35,0,0,1-.35-.25l-.09-.45c-.12.12-.24.22-.36.32a2.42,2.42,0,0,1-.4.25,2.08,2.08,0,0,1-.46.16,2.87,2.87,0,0,1-.52.05,2.1,2.1,0,0,1-.82-.15,1.67,1.67,0,0,1-.6-.45,1.8,1.8,0,0,1-.36-.67,3,3,0,0,1-.13-.87V3.83Z" transform="translate(-2.71 -1.52)" style="fill:#1d1d1b"/><path d="M165.29,4.93a.36.36,0,0,1-.11.13.38.38,0,0,1-.16,0,.46.46,0,0,1-.21,0l-.26-.13-.34-.12a1.51,1.51,0,0,0-.45,0,1,1,0,0,0-.63.17.53.53,0,0,0-.23.44.45.45,0,0,0,.12.31,1.3,1.3,0,0,0,.31.22,3.72,3.72,0,0,0,.44.16l.51.17a3.59,3.59,0,0,1,.51.2,1.83,1.83,0,0,1,.44.28,1.43,1.43,0,0,1,.31.42,1.28,1.28,0,0,1,.12.58,1.86,1.86,0,0,1-.15.75,1.7,1.7,0,0,1-.43.6,2.09,2.09,0,0,1-.71.38,2.85,2.85,0,0,1-1,.14,2.63,2.63,0,0,1-.57-.05,3.05,3.05,0,0,1-.54-.14,4.12,4.12,0,0,1-.47-.22,2.88,2.88,0,0,1-.38-.28l.31-.51a.41.41,0,0,1,.14-.15.46.46,0,0,1,.21-.05.48.48,0,0,1,.24.07l.26.16.35.15a1.53,1.53,0,0,0,.51.07,1.73,1.73,0,0,0,.42,0,.76.76,0,0,0,.28-.16.56.56,0,0,0,.17-.21.75.75,0,0,0,0-.26.44.44,0,0,0-.12-.32.91.91,0,0,0-.31-.22,2.35,2.35,0,0,0-.45-.17L163,7.06a5.49,5.49,0,0,1-.51-.21,1.77,1.77,0,0,1-.45-.3,1.4,1.4,0,0,1-.31-.44,1.56,1.56,0,0,1-.12-.64,1.63,1.63,0,0,1,.54-1.21,2,2,0,0,1,.67-.37,2.62,2.62,0,0,1,.92-.14,2.78,2.78,0,0,1,1.06.19,2.39,2.39,0,0,1,.8.51Z" transform="translate(-2.71 -1.52)" style="fill:#1d1d1b"/><path d="M170.1,4.93a.51.51,0,0,1-.12.13.33.33,0,0,1-.15,0,.41.41,0,0,1-.21,0l-.26-.13L169,4.79a1.55,1.55,0,0,0-.45,0,1,1,0,0,0-.63.17.5.5,0,0,0-.23.44.45.45,0,0,0,.12.31,1.12,1.12,0,0,0,.31.22,3.72,3.72,0,0,0,.44.16l.51.17a3.07,3.07,0,0,1,.5.2,1.71,1.71,0,0,1,.45.28,1.43,1.43,0,0,1,.31.42,1.28,1.28,0,0,1,.12.58,1.86,1.86,0,0,1-.15.75,1.7,1.7,0,0,1-.43.6,2.19,2.19,0,0,1-.71.38,2.87,2.87,0,0,1-1,.14,2.75,2.75,0,0,1-.57-.05,3.18,3.18,0,0,1-.53-.14,4.12,4.12,0,0,1-.47-.22,2.34,2.34,0,0,1-.38-.28l.31-.51a.41.41,0,0,1,.14-.15.46.46,0,0,1,.21-.05.55.55,0,0,1,.24.07l.26.16.35.15a1.46,1.46,0,0,0,.51.07,1.58,1.58,0,0,0,.41,0A.73.73,0,0,0,169,8.4a.56.56,0,0,0,.17-.21.75.75,0,0,0,0-.26.44.44,0,0,0-.12-.32.91.91,0,0,0-.31-.22,2.35,2.35,0,0,0-.45-.17l-.51-.16a3.89,3.89,0,0,1-.51-.21,1.77,1.77,0,0,1-.45-.3,1.4,1.4,0,0,1-.31-.44,1.56,1.56,0,0,1-.12-.64,1.66,1.66,0,0,1,.14-.66,1.53,1.53,0,0,1,.4-.55,2,2,0,0,1,.67-.37,2.58,2.58,0,0,1,.92-.14,2.78,2.78,0,0,1,1.06.19,2.39,2.39,0,0,1,.8.51Z" transform="translate(-2.71 -1.52)" style="fill:#1d1d1b"/><path d="M173.89,3.75a2.59,2.59,0,0,1,1,.17,2.12,2.12,0,0,1,.77.49,2.24,2.24,0,0,1,.51.81,3.06,3.06,0,0,1,.18,1.08,1.93,1.93,0,0,1,0,.26.5.5,0,0,1,0,.16.19.19,0,0,1-.1.08.33.33,0,0,1-.15,0h-3.49A1.93,1.93,0,0,0,173,8.1a1.46,1.46,0,0,0,1.08.41,1.91,1.91,0,0,0,.57-.08,3.17,3.17,0,0,0,.41-.17l.32-.17a.52.52,0,0,1,.26-.08.33.33,0,0,1,.14,0,.31.31,0,0,1,.11.09l.39.49a2.34,2.34,0,0,1-.5.45,3.58,3.58,0,0,1-.59.29,3.3,3.3,0,0,1-.62.15c-.21,0-.42,0-.61,0a3.26,3.26,0,0,1-1.1-.19,2.65,2.65,0,0,1-.88-.58,2.84,2.84,0,0,1-.59-.95,3.73,3.73,0,0,1-.21-1.3,3.24,3.24,0,0,1,.18-1.09,2.76,2.76,0,0,1,.54-.89,2.45,2.45,0,0,1,.85-.59A2.79,2.79,0,0,1,173.89,3.75Zm0,1a1.26,1.26,0,0,0-.93.33,1.65,1.65,0,0,0-.43,1h2.55a1.59,1.59,0,0,0-.07-.5,1.16,1.16,0,0,0-.22-.41,1.08,1.08,0,0,0-.38-.28A1.21,1.21,0,0,0,173.92,4.72Z" transform="translate(-2.71 -1.52)" style="fill:#1d1d1b"/><rect x="146.44" y="36.29" width="127.56" height="6" style="fill:#1d212e"/><path d="M152.76,33.45a2.07,2.07,0,0,0,.77-.14,1.49,1.49,0,0,0,.57-.41,1.66,1.66,0,0,0,.36-.62,2.68,2.68,0,0,0,.12-.83V26.69h1.48v4.76a3.47,3.47,0,0,1-.23,1.31,2.92,2.92,0,0,1-.65,1,3.1,3.1,0,0,1-1,.69,3.77,3.77,0,0,1-1.38.24,3.68,3.68,0,0,1-1.37-.24,2.92,2.92,0,0,1-1.69-1.73,3.47,3.47,0,0,1-.23-1.31V26.69H151v4.76a2.62,2.62,0,0,0,.12.82,1.63,1.63,0,0,0,.36.63,1.49,1.49,0,0,0,.57.41A2,2,0,0,0,152.76,33.45Z" transform="translate(-2.71 -1.52)" style="fill:#1d1d1b"/><path d="M158.87,26.47v4.68h.25a.41.41,0,0,0,.21,0,.42.42,0,0,0,.17-.14l1.4-1.73a.84.84,0,0,1,.2-.18.55.55,0,0,1,.28-.06h1.24l-1.76,2.09a2,2,0,0,1-.19.22,1.06,1.06,0,0,1-.21.16,1.26,1.26,0,0,1,.2.2l.18.23,1.88,2.74h-1.23a.68.68,0,0,1-.27,0,.59.59,0,0,1-.2-.19l-1.43-2.14a.42.42,0,0,0-.17-.16.49.49,0,0,0-.24,0h-.31v2.58h-1.36V26.47Z" transform="translate(-2.71 -1.52)" style="fill:#1d1d1b"/><path d="M163.56,34.64V29h.8a.44.44,0,0,1,.29.08.49.49,0,0,1,.11.26l.08.68a2.62,2.62,0,0,1,.71-.82,1.51,1.51,0,0,1,.91-.3,1.2,1.2,0,0,1,.7.19l-.18,1a.21.21,0,0,1-.07.14.33.33,0,0,1-.15,0l-.23,0a1.26,1.26,0,0,0-.37,0,1.18,1.18,0,0,0-.73.23,1.88,1.88,0,0,0-.51.69v3.51Z" transform="translate(-2.71 -1.52)" style="fill:#1d1d1b"/><path d="M172.32,34.64h-.62a.67.67,0,0,1-.3-.06.32.32,0,0,1-.16-.23l-.12-.4-.42.34a2.61,2.61,0,0,1-.43.24,1.84,1.84,0,0,1-.47.15,3,3,0,0,1-.55,0,2,2,0,0,1-.66-.1,1.4,1.4,0,0,1-.52-.29,1.23,1.23,0,0,1-.34-.48,1.69,1.69,0,0,1-.12-.66,1.36,1.36,0,0,1,.17-.64,1.66,1.66,0,0,1,.56-.56,3.8,3.8,0,0,1,1-.42,6.67,6.67,0,0,1,1.61-.16v-.33a1.27,1.27,0,0,0-.24-.85.88.88,0,0,0-.7-.27,1.75,1.75,0,0,0-.55.07,2.69,2.69,0,0,0-.38.18l-.3.17a.61.61,0,0,1-.3.08.48.48,0,0,1-.24-.07.69.69,0,0,1-.16-.18l-.24-.43a3.32,3.32,0,0,1,2.34-.89,2.28,2.28,0,0,1,.89.16,1.89,1.89,0,0,1,.65.45,1.84,1.84,0,0,1,.41.69,2.5,2.5,0,0,1,.15.88Zm-2.65-.84a2.34,2.34,0,0,0,.39,0,1.61,1.61,0,0,0,.33-.12,1.92,1.92,0,0,0,.31-.18,3.45,3.45,0,0,0,.29-.27v-.94a5.34,5.34,0,0,0-1,.08,2.46,2.46,0,0,0-.64.19.71.71,0,0,0-.35.27.56.56,0,0,0-.1.33.59.59,0,0,0,.21.52A.94.94,0,0,0,169.67,33.8Z" transform="translate(-2.71 -1.52)" style="fill:#1d1d1b"/><path d="M175.3,27.36a.78.78,0,0,1-.07.33A.83.83,0,0,1,175,28a.92.92,0,0,1-.28.19.94.94,0,0,1-.34.07.88.88,0,0,1-.33-.07.77.77,0,0,1-.27-.19.83.83,0,0,1-.19-.26,1,1,0,0,1-.07-.33,1,1,0,0,1,.07-.35,1,1,0,0,1,.19-.27.77.77,0,0,1,.27-.19.88.88,0,0,1,.33-.06.93.93,0,0,1,.34.06.92.92,0,0,1,.28.19,1,1,0,0,1,.19.27A.81.81,0,0,1,175.3,27.36ZM175.1,29v5.64h-1.36V29Z" transform="translate(-2.71 -1.52)" style="fill:#1d1d1b"/><path d="M176.63,34.64V29h.83a.34.34,0,0,1,.35.25l.09.44.36-.32a3.26,3.26,0,0,1,.4-.24,1.93,1.93,0,0,1,.46-.16,2.2,2.2,0,0,1,.53-.06,2,2,0,0,1,.82.16,1.61,1.61,0,0,1,.59.44,2.07,2.07,0,0,1,.37.67,3,3,0,0,1,.12.87v3.59h-1.36V31.05a1.21,1.21,0,0,0-.24-.8.89.89,0,0,0-.72-.28,1.4,1.4,0,0,0-.66.16,2.29,2.29,0,0,0-.58.43v4.08Z" transform="translate(-2.71 -1.52)" style="fill:#1d1d1b"/><path d="M184.54,27.36a.9.9,0,0,1-.26.59,1.07,1.07,0,0,1-.28.19.86.86,0,0,1-.68,0,1,1,0,0,1-.27-.19.68.68,0,0,1-.18-.26.78.78,0,0,1-.07-.33.81.81,0,0,1,.07-.35.8.8,0,0,1,.18-.27,1,1,0,0,1,.27-.19,1,1,0,0,1,.68,0,1.07,1.07,0,0,1,.28.19,1,1,0,0,1,.18.27A.82.82,0,0,1,184.54,27.36ZM184.33,29v5.64H183V29Z" transform="translate(-2.71 -1.52)" style="fill:#1d1d1b"/><path d="M188.2,28.91a2.84,2.84,0,0,1,1,.17,2.14,2.14,0,0,1,.77.5,2.29,2.29,0,0,1,.51.8,3.08,3.08,0,0,1,.18,1.09,1.78,1.78,0,0,1,0,.25.43.43,0,0,1,0,.16.28.28,0,0,1-.1.09l-.15,0h-3.49a2,2,0,0,0,.47,1.28,1.46,1.46,0,0,0,1.08.4,2,2,0,0,0,.57-.07,3.17,3.17,0,0,0,.41-.17l.32-.17a.52.52,0,0,1,.26-.08.32.32,0,0,1,.14,0,.35.35,0,0,1,.11.1l.39.49a2.13,2.13,0,0,1-.51.44,2.62,2.62,0,0,1-.58.29,3.3,3.3,0,0,1-.62.15,4.4,4.4,0,0,1-.62,0,3,3,0,0,1-1.09-.19,2.37,2.37,0,0,1-.88-.58,2.64,2.64,0,0,1-.59-.94,3.75,3.75,0,0,1-.21-1.31,3.28,3.28,0,0,1,.18-1.09,2.71,2.71,0,0,1,.54-.88,2.61,2.61,0,0,1,.85-.6A3,3,0,0,1,188.2,28.91Zm0,1a1.26,1.26,0,0,0-.93.34,1.59,1.59,0,0,0-.43,1h2.55a1.68,1.68,0,0,0-.07-.5,1.25,1.25,0,0,0-.22-.41,1.05,1.05,0,0,0-.38-.27A1.21,1.21,0,0,0,188.23,29.88Z" transform="translate(-2.71 -1.52)" style="fill:#1d1d1b"/><path d="M191.75,34.64V29h.83a.32.32,0,0,1,.34.25l.1.44a3.73,3.73,0,0,1,.36-.32,2.65,2.65,0,0,1,.4-.24,1.72,1.72,0,0,1,.45-.16,2.2,2.2,0,0,1,.53-.06,1.94,1.94,0,0,1,.82.16,1.56,1.56,0,0,1,.6.44,1.88,1.88,0,0,1,.36.67,3,3,0,0,1,.12.87v3.59H195.3V31.05a1.21,1.21,0,0,0-.23-.8.89.89,0,0,0-.72-.28,1.34,1.34,0,0,0-.66.16,2.13,2.13,0,0,0-.58.43v4.08Z" transform="translate(-2.71 -1.52)" style="fill:#1d1d1b"/></g></g></svg>