<svg xmlns="http://www.w3.org/2000/svg" viewBox="0 0 23.01 23.01"><defs><style>.a{fill:#cd8c50;}</style></defs><title>Asset 24</title><path class="a" d="M19.64,3.37A11.5,11.5,0,1,0,23,11.5,11.47,11.47,0,0,0,19.64,3.37ZM19,19A10.59,10.59,0,0,1,4,19,10.59,10.59,0,0,1,4,4,10.59,10.59,0,0,1,19,4a10.59,10.59,0,0,1,0,15Z"/><polygon class="a" points="6.18 11.61 6.18 16.64 8.73 16.64 8.73 11.2 8.73 9.68 6.18 9.68 6.18 11.61"/><path class="a" d="M14.11,9.71a2.42,2.42,0,0,0-2,.88H12V9.68H10.12v7h2.11V13.26c0-.9.08-1.77,1.19-1.77s1.11,1,1.11,1.84v3.31h2.11V12.89a8.43,8.43,0,0,0,0-1A2.16,2.16,0,0,0,14.11,9.71Z"/><path class="a" d="M7.52,6.31A1.21,1.21,0,1,0,8.73,7.52,1.21,1.21,0,0,0,7.52,6.31Z"/></svg>