<svg xmlns="http://www.w3.org/2000/svg" viewBox="0 0 123.86 123.86"><defs><style>.cls-1{fill:#fff;}</style></defs><title>Asset 21</title><g id="Layer_2" data-name="Layer 2"><g id="Layer_4" data-name="Layer 4"><path class="cls-1" d="M110.1,23.47,39.22,94.34a6.88,6.88,0,1,1-10.38-9,7.49,7.49,0,0,1,.75-.74l70.74-70.81H75.7A6.88,6.88,0,1,1,75.7,0H117a6.88,6.88,0,0,1,6.88,6.88V48.17a6.88,6.88,0,1,1-13.76,0ZM96.34,75.7a6.88,6.88,0,1,1,13.76,0v34.4a13.76,13.76,0,0,1-13.76,13.76H13.76A13.76,13.76,0,0,1,0,110.1V27.53A13.81,13.81,0,0,1,13.76,13.76H48.17a6.89,6.89,0,0,1,0,13.77H13.76V110.1H96.34Z"/></g></g></svg>