<svg xmlns="http://www.w3.org/2000/svg" xmlns:xlink="http://www.w3.org/1999/xlink" viewBox="0 0 226.41 55.26"><defs><style>.a{fill:url(#a);}.b{fill:#1c202d;}.c{fill:#bfc4d7;}.d{isolation:isolate;}</style><linearGradient id="a" x1="516.62" y1="114.62" x2="517.43" y2="115.38" gradientTransform="matrix(60.06, 0, 0, -37.82, -31013.36, 4384.51)" gradientUnits="userSpaceOnUse"><stop offset="0.11" stop-color="#8b6d93"/><stop offset="1" stop-color="#bfc4d7"/></linearGradient></defs><title>Asset 28</title><path class="a" d="M55.39,19.18h0c-.16.09-.33.18-.49.25a5.79,5.79,0,0,0-.79.49h0L36,30.39,21.78,38.6,13.72,52.7l-.05.1a1.46,1.46,0,0,0-.2.79,1.71,1.71,0,0,0,1.62,1.67h.05a2.4,2.4,0,0,0,.83-.2l25.7-14.8L67.23,25.52l6.3-3.63A15.7,15.7,0,0,0,55.39,19.18Z"/><path class="b" d="M61.43,52l-1.81-3.14L51.41,34.62l-.15-.2L48,28.72l0-.15-.54-1-1.62-2.86-.15-.2-8-13.7L33.47,3.6l-1.13-2-.05-.1A1.63,1.63,0,0,0,30.07.91a1.59,1.59,0,0,0-.63.63h0L28.8,2.72l-4.37,7.66-1.38,2.41c.1-.1.15-.2.25-.29s.14-.15.24-.2a1.5,1.5,0,0,1,.79-.25h.29c.1,0,.15,0,.25,0s.1.05.15.05a2.34,2.34,0,0,1,.54.34.92.92,0,0,1,.24.35h0l.89,1.57,4.42,7.67,4.67,8.06.15.2,5.55,9.58.15.2,3.73,6.48.69,1.23h0a15.79,15.79,0,0,0,13.32,7.28A15.36,15.36,0,0,0,63,54.67Z"/><path class="b" d="M26.79,14.42l-.94-1.58h0a.92.92,0,0,0-.24-.34,1.33,1.33,0,0,0-.55-.35s-.1,0-.14,0-.15,0-.25,0h-.34a1.32,1.32,0,0,0-.79.24.78.78,0,0,0-.24.2,1.42,1.42,0,0,0-.25.3h0c-.05,0-.05.1-.1.1a.19.19,0,0,1-.05.1h0l-.84,1.47L1,51.37.3,52.66h0a1.93,1.93,0,0,0-.3.93,1.66,1.66,0,0,0,1.64,1.67H15a1.65,1.65,0,0,1-1.62-1.67,2,2,0,0,1,.2-.79l.05-.1,8.06-14.11.24-.44,9.19-16.07Z"/><path class="c" d="M23,13.24a1.48,1.48,0,0,1,.79-.25h.34c.1,0,.15,0,.25,0s.1.05.14.05a2.1,2.1,0,0,1,.55.34,1,1,0,0,1,.24.35h0l.89,1.57L30.62,23l.54-1-4.42-7.66-.89-1.53h0a.92.92,0,0,0-.24-.34,1.36,1.36,0,0,0-.54-.35c-.05,0-.1,0-.15,0s-.15,0-.25,0h-.34a1.32,1.32,0,0,0-.79.24.91.91,0,0,0-.24.2,1.42,1.42,0,0,0-.25.3h0c-.05,0-.05.1-.1.1a.14.14,0,0,1-.05.1h0l-.39.69a.53.53,0,0,1,.24-.25A1,1,0,0,1,23,13.24Z"/><g class="d"><g class="d"><path class="b" d="M72.47.12v20.3h-.81L57.24,1.91V20.42h-1V.12h.82l14.41,18.5V.12Z"/><path class="b" d="M96.65,14.47H84.5l-2.73,6H80.7L90.1.12h1l9.39,20.3H99.38Zm-.37-.84L90.59,1.25,84.88,13.63Z"/><path class="b" d="M106.6,17.72l.52-.69a9.25,9.25,0,0,0,6.7,2.64c4.26,0,6.15-2,6.15-4.3,0-6.49-12.79-2.64-12.79-10.15,0-2.73,2.09-5.22,6.93-5.22a10.38,10.38,0,0,1,6,1.86l-.43.78A9.66,9.66,0,0,0,114.14.87c-4.12,0-6,2-6,4.35,0,6.53,12.8,2.76,12.8,10.12,0,2.76-2.18,5.2-7.08,5.2C110.86,20.54,108,19.38,106.6,17.72Z"/><path class="b" d="M134.12,1h-7.46V.12h15.87V1h-7.45v19.4h-1Z"/><path class="b" d="M162.11,14.47H150l-2.72,6h-1.08l9.4-20.3h1l9.4,20.3h-1.08Zm-.38-.84L156,1.25l-5.71,12.38Z"/><path class="b" d="M172.05,17.72l.52-.69a9.27,9.27,0,0,0,6.7,2.64c4.27,0,6.15-2,6.15-4.3,0-6.49-12.79-2.64-12.79-10.15,0-2.73,2.09-5.22,6.93-5.22a10.41,10.41,0,0,1,6,1.86l-.44.78A9.64,9.64,0,0,0,179.59.87c-4.12,0-6,2-6,4.35,0,6.53,12.79,2.76,12.79,10.12,0,2.76-2.18,5.2-7.08,5.2C176.31,20.54,173.47,19.38,172.05,17.72Z"/><path class="b" d="M196,.12h1v20.3h-1Z"/><path class="b" d="M221.18,14.47H209l-2.73,6h-1.07L214.62.12h1l9.4,20.3h-1.07Zm-.38-.84L215.12,1.25,209.4,13.63Z"/></g></g><g class="d"><g class="d"><path class="b" d="M69.83,34.88H62.38V34H78.24v.9H70.79v19.4h-1Z"/><path class="b" d="M97.82,48.33H85.67l-2.73,6H81.87L91.26,34h1l9.4,20.3h-1.07Zm-.38-.84L91.76,35.11,86,47.49Z"/><path class="b" d="M126.1,34v20.3h-.82L110.87,35.77V54.28h-1V34h.81l14.42,18.5V34Z"/><path class="b" d="M135.78,44.13a10.12,10.12,0,0,1,10.47-10.27,9.73,9.73,0,0,1,7.05,2.7l-.61.64a8.85,8.85,0,0,0-6.41-2.44,9.37,9.37,0,1,0,0,18.74A8.88,8.88,0,0,0,152.69,51l.61.64a9.63,9.63,0,0,1-7.05,2.73A10.12,10.12,0,0,1,135.78,44.13Z"/><path class="b" d="M176.67,53.38v.9H160.54v-.7L175,34.88H160.69V34h15.66v.69L161.88,53.38Z"/><path class="b" d="M198.22,48.33H186.06l-2.72,6h-1.08l9.4-20.3h1l9.4,20.3h-1.08Zm-.38-.84-5.69-12.38-5.71,12.38Z"/><path class="b" d="M216.11,43.93l-4.85,5v5.36h-1V34h1V47.64L224.55,34h1.22l-9,9.28,9.63,11h-1.22Z"/></g></g></svg>