<svg xmlns="http://www.w3.org/2000/svg" xmlns:xlink="http://www.w3.org/1999/xlink" width="227.262" height="68.86" viewBox="0 0 227.262 68.86"><defs><style>.a{fill:url(#a);}.b,.d{fill:#1d212e;}.c{fill:#bec3d6;}.d{font-size:29px;font-family:Montserrat-ExtraLight, Montserrat;font-weight:200;letter-spacing:0.149em;}</style><linearGradient id="a" x1="0.02" y1="0.863" x2="0.827" y2="0.102" gradientUnits="objectBoundingBox"><stop offset="0.108" stop-color="#8a6c93"/><stop offset="1" stop-color="#bec3d6"/></linearGradient></defs><g transform="translate(0 8.282)"><path class="a" d="M68,45.094h0a4.546,4.546,0,0,1-.491.246,6.883,6.883,0,0,0-.786.491h0L48.589,56.3l-14.2,8.208-8.06,14.105-.049.1a1.442,1.442,0,0,0-.2.786A1.714,1.714,0,0,0,27.7,81.169h.049a2.315,2.315,0,0,0,.836-.2l25.7-14.793L79.847,51.434,86.138,47.8A15.705,15.705,0,0,0,68,45.094Z" transform="translate(-12.613 -26.615)"/><path class="b" d="M85.184,60.61l-1.818-3.145L75.158,43.212l-.147-.2-3.293-5.7-.049-.147-.541-.983-1.622-2.851-.147-.2L61.4,19.424,57.219,12.2l-1.13-1.966-.049-.1a1.633,1.633,0,0,0-2.851,0h0l-.639,1.18-4.374,7.667L46.8,21.39c.1-.1.147-.2.246-.295.1-.049.147-.147.246-.2a1.485,1.485,0,0,1,.786-.246h.295c.1,0,.147.049.246.049.049,0,.1.049.147.049a2.029,2.029,0,0,1,.541.344.882.882,0,0,1,.246.344h0l.885,1.573,4.423,7.667,4.669,8.06.147.2L65.23,48.52l.147.2L69.113,55.2l.688,1.229h0A15.783,15.783,0,0,0,83.12,63.706a15.037,15.037,0,0,0,3.637-.442Z" transform="translate(-23.75 -9.3)"/><path class="b" d="M26.685,34.759l-.934-1.573h0a.881.881,0,0,0-.246-.344,1.272,1.272,0,0,0-.541-.344c-.049,0-.1-.049-.147-.049-.1,0-.147-.049-.246-.049h-.344a1.36,1.36,0,0,0-.786.246.863.863,0,0,0-.246.2,1.3,1.3,0,0,0-.246.295h0c-.049.049-.049.1-.1.1a.172.172,0,0,1-.049.1h0l-.836,1.474L.932,71.718.195,73h0A1.907,1.907,0,0,0-.1,73.93,1.657,1.657,0,0,0,1.571,75.6H14.939a1.647,1.647,0,0,1-1.622-1.671,2.061,2.061,0,0,1,.2-.786l.049-.1,8.06-14.105.246-.442L31.06,42.426Z" transform="translate(0.1 -21.047)"/><path class="c" d="M46.191,33.58a1.485,1.485,0,0,1,.786-.246h.344c.1,0,.147.049.246.049.049,0,.1.049.147.049a2.03,2.03,0,0,1,.541.344.882.882,0,0,1,.246.344h0l.885,1.573,4.423,7.667.541-.983L49.927,34.71l-.885-1.524h0a.882.882,0,0,0-.246-.344,1.272,1.272,0,0,0-.541-.344c-.049,0-.1-.049-.147-.049-.1,0-.147-.049-.246-.049h-.344a1.36,1.36,0,0,0-.786.246.863.863,0,0,0-.246.2,1.3,1.3,0,0,0-.246.295h0c-.049.049-.049.1-.1.1a.172.172,0,0,1-.049.1h0l-.393.688a.592.592,0,0,1,.246-.246A.863.863,0,0,1,46.191,33.58Z" transform="translate(-23.19 -21.047)"/></g><g transform="translate(52.541)"><text class="d" transform="translate(0 28)"><tspan x="0" y="0">NASTASIA</tspan></text><text class="d" transform="translate(9.721 61.86)"><tspan x="0" y="0">TANCZAK</tspan></text></g></svg>