<svg xmlns="http://www.w3.org/2000/svg" xmlns:xlink="http://www.w3.org/1999/xlink" width="75.803" height="56.244" viewBox="0 0 75.803 56.244"><defs><style>.a{fill:url(#a);}.b{fill:#1d212e;}.c{fill:#bec3d6;}</style><linearGradient id="a" x1="0.02" y1="0.863" x2="0.827" y2="0.102" gradientUnits="objectBoundingBox"><stop offset="0.108" stop-color="#8a6c93"/><stop offset="1" stop-color="#bec3d6"/></linearGradient></defs><path class="a" d="M69.338,45.148h0a4.687,4.687,0,0,1-.507.253,7.1,7.1,0,0,0-.811.507h0L49.323,56.7,34.679,65.163l-8.31,14.542-.051.1a1.487,1.487,0,0,0-.2.811,1.767,1.767,0,0,0,1.672,1.723h.051a2.387,2.387,0,0,0,.861-.2L55.2,66.886l26.349-15.2,6.486-3.75A16.192,16.192,0,0,0,69.338,45.148Z" transform="translate(-12.232 -26.096)"/><path class="b" d="M86.374,62.2,84.5,58.957,76.037,44.263l-.152-.2L72.49,38.182l-.051-.152-.557-1.013L70.21,34.078l-.152-.2L61.849,19.738,57.542,12.29l-1.165-2.027-.051-.1a1.684,1.684,0,0,0-2.939,0h0l-.659,1.216-4.51,7.9L46.8,21.765c.1-.1.152-.2.253-.3.1-.051.152-.152.253-.2A1.531,1.531,0,0,1,48.117,21h.3c.1,0,.152.051.253.051.051,0,.1.051.152.051a2.092,2.092,0,0,1,.557.355.909.909,0,0,1,.253.355h0l.912,1.621,4.56,7.9,4.814,8.31.152.2L65.8,49.735l.152.2L69.8,56.626l.709,1.267h0a16.272,16.272,0,0,0,13.732,7.5A15.5,15.5,0,0,0,88,64.936Z" transform="translate(-23.036 -9.3)"/><path class="b" d="M27.515,34.832l-.963-1.621h0a.909.909,0,0,0-.253-.355,1.312,1.312,0,0,0-.557-.355c-.051,0-.1-.051-.152-.051-.1,0-.152-.051-.253-.051h-.355a1.4,1.4,0,0,0-.811.253.89.89,0,0,0-.253.2,1.344,1.344,0,0,0-.253.3h0c-.051.051-.051.1-.1.1a.177.177,0,0,1-.051.1h0l-.861,1.52L.964,72.936.2,74.254h0a1.967,1.967,0,0,0-.3.963,1.709,1.709,0,0,0,1.723,1.723H15.405a1.7,1.7,0,0,1-1.672-1.723,2.124,2.124,0,0,1,.2-.811l.051-.1L22.3,59.762l.253-.456,9.475-16.569Z" transform="translate(0.1 -20.695)"/><path class="c" d="M46.207,33.616a1.531,1.531,0,0,1,.811-.253h.355c.1,0,.152.051.253.051.051,0,.1.051.152.051a2.092,2.092,0,0,1,.557.355.909.909,0,0,1,.253.355h0l.912,1.621,4.56,7.9.557-1.013-4.56-7.9-.912-1.571h0a.909.909,0,0,0-.253-.355,1.312,1.312,0,0,0-.557-.355c-.051,0-.1-.051-.152-.051-.1,0-.152-.051-.253-.051h-.355a1.4,1.4,0,0,0-.811.253.89.89,0,0,0-.253.2,1.343,1.343,0,0,0-.253.3h0c-.051.051-.051.1-.1.1a.177.177,0,0,1-.051.1h0l-.405.709a.611.611,0,0,1,.253-.253A.89.89,0,0,1,46.207,33.616Z" transform="translate(-22.493 -20.695)"/></svg>