<svg xmlns="http://www.w3.org/2000/svg" width="134.289" height="134.287" viewBox="0 0 134.289 134.287"><defs><style>.a,.c,.d{fill:#1d212e;}.a{opacity:0.27;}.b{fill:none;stroke:#020203;stroke-linecap:square;stroke-miterlimit:10;stroke-width:3.577px;}.d{font-size:16px;font-family:Comfortaa;font-weight:700;}</style></defs><g transform="translate(0.435)"><g transform="translate(-0.435)"><g transform="translate(0)"><path class="a" d="M127.8,67.144a67.144,67.144,0,1,1,67.144,67.144A67.377,67.377,0,0,1,127.8,67.144Zm9.988,0A57.155,57.155,0,1,0,194.944,9.988,57.252,57.252,0,0,0,137.788,67.144Z" transform="translate(-127.8)"/></g><g transform="translate(30.797 16.647)"><path class="b" d="M138.9,6" transform="translate(-138.9 -6)"/></g><path class="c" d="M194.944,134.287a67.2,67.2,0,0,0,67.144-67.144C262.365,30.242,232.122,0,194.944,0h-4.994V9.988h4.994a57,57,0,1,1-33.572,10.821l3.884-2.775L159.43,9.988l-3.884,2.775a67.151,67.151,0,0,0,39.4,121.524Z" transform="translate(-127.8)"/></g><g transform="translate(25.85 52.889)"><text class="d" transform="translate(1.714 19.111)"><tspan x="0" y="0">Ms Office</tspan></text></g></g></svg>