<svg xmlns="http://www.w3.org/2000/svg" width="134.287" height="134.287" viewBox="0 0 134.287 134.287"><defs><style>.a,.c,.d{fill:#1d212e;}.a{opacity:0.27;}.b{fill:none;stroke:#020203;stroke-linecap:square;stroke-miterlimit:10;stroke-width:3.577px;}.d{font-size:16px;font-family:Comfortaa;font-weight:700;}</style></defs><g transform="translate(-0.14 -0.039)"><g transform="translate(0.14 0.039)"><path class="a" d="M64.5,181.744a67.144,67.144,0,1,1,67.144,67.144A67.2,67.2,0,0,1,64.5,181.744Zm9.988,0a57.155,57.155,0,1,0,57.155-57.155A57.252,57.252,0,0,0,74.488,181.744Z" transform="translate(-64.5 -114.6)"/><g transform="translate(31.075 117.917)"><path class="b" d="M75.7,157.1" transform="translate(-75.7 -157.1)"/></g><g transform="translate(24.138)"><path class="c" d="M116.205,248.887a67.144,67.144,0,1,0,0-134.287h-4.994v9.988h4.994a57.155,57.155,0,0,1,0,114.311,56.348,56.348,0,0,1-33.017-10.543l-4.162-2.775L73.2,233.627l4.162,2.775A65.5,65.5,0,0,0,116.205,248.887Z" transform="translate(-73.2 -114.6)"/></g></g><g transform="translate(51.534 52.212)"><text class="d" transform="translate(-2.394 19.827)"><tspan x="0" y="0">npm</tspan></text></g></g></svg>