<svg xmlns="http://www.w3.org/2000/svg" width="134.287" height="134.287" viewBox="0 0 134.287 134.287"><defs><style>.a,.c,.d{fill:#1d212e;}.a{opacity:0.27;}.b{fill:none;stroke:#020203;stroke-linecap:square;stroke-miterlimit:10;stroke-width:3.577px;}.d{font-size:16px;font-family:Comfortaa;font-weight:700;}</style></defs><path class="a" d="M0,67.144a67.144,67.144,0,1,1,67.144,67.144A67.377,67.377,0,0,1,0,67.144Zm9.988,0A57.155,57.155,0,1,0,67.144,9.988,57.252,57.252,0,0,0,9.988,67.144Z"/><g transform="translate(31.075 117.917)"><path class="b" d="M11.2,42.5" transform="translate(-11.2 -42.5)"/></g><g transform="translate(24.138)"><path class="c" d="M51.705,134.287A67.144,67.144,0,1,0,51.705,0H46.711V9.988h4.994a57.155,57.155,0,0,1,0,114.311,56.348,56.348,0,0,1-33.017-10.543l-4.162-2.775L8.7,119.027l4.162,2.775A65.5,65.5,0,0,0,51.705,134.287Z" transform="translate(-8.7)"/></g><g transform="translate(23.566 32.073)"><text class="d" transform="translate(7.434 41.927)"><tspan x="0" y="0">Terminal</tspan></text><text class="d" transform="translate(26.434 37.927)"><tspan x="0" y="0"> </tspan></text></g></svg>