<svg xmlns="http://www.w3.org/2000/svg" width="134.287" height="134.287" viewBox="0 0 134.287 134.287"><defs><style>.a{opacity:0.27;}.b,.d{fill:#1d212e;}.c{fill:none;stroke:#020203;stroke-linecap:square;stroke-miterlimit:10;stroke-width:3.577px;}.d{font-size:16px;font-family:Comfortaa;font-weight:700;}</style></defs><g transform="translate(0 -0.039)"><g transform="translate(0 0.039)"><g class="a"><path class="b" d="M0,181.744a67.144,67.144,0,1,1,67.144,67.144A67.2,67.2,0,0,1,0,181.744Zm9.988,0a57.155,57.155,0,1,0,57.155-57.155A57.252,57.252,0,0,0,9.988,181.744Z" transform="translate(0 -114.6)"/></g><g transform="translate(9.156 89.617)"><path class="c" d="M3.3,146.9" transform="translate(-3.3 -146.9)"/></g><g transform="translate(2.775)"><path class="b" d="M65.369,248.887a67.144,67.144,0,1,0,0-134.287H60.375v9.988h4.994a57.156,57.156,0,1,1-53.548,77.687l-1.665-4.717L1,201.165l1.665,4.717A67.677,67.677,0,0,0,65.369,248.887Z" transform="translate(-1 -114.6)"/></g></g><g transform="translate(30.665 52.551)"><text class="d" transform="translate(1.334 19.488)"><tspan x="0" y="0">VS Code</tspan></text></g></g></svg>