<svg xmlns="http://www.w3.org/2000/svg" width="134.287" height="134.287" viewBox="0 0 134.287 134.287"><defs><style>.a,.c,.d{fill:#1d212e;}.a{opacity:0.27;}.b{fill:none;stroke:#020203;stroke-linecap:square;stroke-miterlimit:10;stroke-width:3.577px;}.d{font-size:16px;font-family:Comfortaa;font-weight:700;}</style></defs><g transform="translate(-0.168 0.258)"><g transform="translate(0.168 -0.258)"><g transform="translate(0)"><path class="a" d="M.3,124.544a67.144,67.144,0,1,1,67.144,67.144A67.2,67.2,0,0,1,.3,124.544Zm9.988,0A57.155,57.155,0,1,0,67.444,67.388C35.814,67.111,10.288,92.914,10.288,124.544Z" transform="translate(-0.3 -57.4)"/></g><g transform="translate(30.797 16.647)"><path class="b" d="M11.4,63.4" transform="translate(-11.4 -63.4)"/></g><g transform="translate(0 0)"><path class="c" d="M67.444,191.687a67.144,67.144,0,1,0,0-134.287H62.449v9.988h4.994A57,57,0,1,1,33.872,78.209l3.884-2.775L31.93,67.388l-3.884,2.775a67.151,67.151,0,0,0,39.4,121.524Z" transform="translate(-0.3 -57.4)"/></g></g><g transform="translate(40.318 52.847)"><text class="d" transform="translate(0.849 18.895)"><tspan x="0" y="0">Xcode</tspan></text></g></g></svg>