<svg xmlns="http://www.w3.org/2000/svg" width="134.287" height="134.287" viewBox="0 0 134.287 134.287"><defs><style>.a{opacity:0.27;}.b,.d{fill:#1d212e;}.c{fill:none;stroke:#8a6c93;stroke-linecap:square;stroke-miterlimit:10;stroke-width:3.577px;}.d{font-size:28px;font-family:Comfortaa;font-weight:700;}</style></defs><g transform="translate(-0.287 0.258)"><g transform="translate(0.287 -0.258)"><g class="a"><path class="b" d="M127.9,124.544a67.144,67.144,0,1,1,67.144,67.144A67.2,67.2,0,0,1,127.9,124.544Zm9.988,0a57.155,57.155,0,1,0,57.155-57.155C163.414,67.111,137.888,92.914,137.888,124.544Z" transform="translate(-127.9 -57.4)"/></g><g transform="translate(7.214 50.496)"><path class="c" d="M130.5,75.6" transform="translate(-130.5 -75.6)"/></g><g transform="translate(0 0)"><path class="b" d="M195.044,191.687a67.144,67.144,0,1,0,0-134.287h-4.994v9.988h4.994a57.155,57.155,0,1,1-57.155,57.155,69.649,69.649,0,0,1,1.942-15.26l1.387-4.717-9.433-2.775-1.387,4.717a65.811,65.811,0,0,0-2.5,18.034A67.377,67.377,0,0,0,195.044,191.687Z" transform="translate(-127.9 -57.4)"/></g></g><g transform="translate(39.817 42.047)"><text class="d" transform="translate(6.47 33.695)"><tspan x="0" y="0">XD</tspan></text></g></g></svg>